G04 #@! TF.FileFunction,Legend,Top*
%FSLAX46Y46*%
G04 Gerber Fmt 4.6, Leading zero omitted, Abs format (unit mm)*
G04 Created by KiCad (PCBNEW 4.0.6-e0-6349~53~ubuntu14.04.1) date Mon Apr  3 13:55:31 2017*
%MOMM*%
%LPD*%
G01*
G04 APERTURE LIST*
%ADD10C,0.100000*%
%ADD11C,0.150000*%
%ADD12C,0.152400*%
G04 APERTURE END LIST*
D10*
D11*
X129342857Y-124371429D02*
X129342857Y-123771429D01*
X129571429Y-123771429D01*
X129628571Y-123800000D01*
X129657143Y-123828571D01*
X129685714Y-123885714D01*
X129685714Y-123971429D01*
X129657143Y-124028571D01*
X129628571Y-124057143D01*
X129571429Y-124085714D01*
X129342857Y-124085714D01*
X130057143Y-123771429D02*
X130114286Y-123771429D01*
X130171429Y-123800000D01*
X130200000Y-123828571D01*
X130228571Y-123885714D01*
X130257143Y-124000000D01*
X130257143Y-124142857D01*
X130228571Y-124257143D01*
X130200000Y-124314286D01*
X130171429Y-124342857D01*
X130114286Y-124371429D01*
X130057143Y-124371429D01*
X130000000Y-124342857D01*
X129971429Y-124314286D01*
X129942857Y-124257143D01*
X129914286Y-124142857D01*
X129914286Y-124000000D01*
X129942857Y-123885714D01*
X129971429Y-123828571D01*
X130000000Y-123800000D01*
X130057143Y-123771429D01*
X130685715Y-124571429D02*
X130542858Y-124571429D01*
X130542858Y-123714286D01*
X130685715Y-123714286D01*
X130885715Y-123828571D02*
X130914286Y-123800000D01*
X130971429Y-123771429D01*
X131114286Y-123771429D01*
X131171429Y-123800000D01*
X131200000Y-123828571D01*
X131228572Y-123885714D01*
X131228572Y-123942857D01*
X131200000Y-124028571D01*
X130857143Y-124371429D01*
X131228572Y-124371429D01*
X131771429Y-123771429D02*
X131485715Y-123771429D01*
X131457144Y-124057143D01*
X131485715Y-124028571D01*
X131542858Y-124000000D01*
X131685715Y-124000000D01*
X131742858Y-124028571D01*
X131771429Y-124057143D01*
X131800001Y-124114286D01*
X131800001Y-124257143D01*
X131771429Y-124314286D01*
X131742858Y-124342857D01*
X131685715Y-124371429D01*
X131542858Y-124371429D01*
X131485715Y-124342857D01*
X131457144Y-124314286D01*
X132000001Y-124571429D02*
X132142858Y-124571429D01*
X132142858Y-123714286D01*
X132000001Y-123714286D01*
X129342857Y-121871429D02*
X129342857Y-121271429D01*
X129571429Y-121271429D01*
X129628571Y-121300000D01*
X129657143Y-121328571D01*
X129685714Y-121385714D01*
X129685714Y-121471429D01*
X129657143Y-121528571D01*
X129628571Y-121557143D01*
X129571429Y-121585714D01*
X129342857Y-121585714D01*
X130057143Y-121271429D02*
X130114286Y-121271429D01*
X130171429Y-121300000D01*
X130200000Y-121328571D01*
X130228571Y-121385714D01*
X130257143Y-121500000D01*
X130257143Y-121642857D01*
X130228571Y-121757143D01*
X130200000Y-121814286D01*
X130171429Y-121842857D01*
X130114286Y-121871429D01*
X130057143Y-121871429D01*
X130000000Y-121842857D01*
X129971429Y-121814286D01*
X129942857Y-121757143D01*
X129914286Y-121642857D01*
X129914286Y-121500000D01*
X129942857Y-121385714D01*
X129971429Y-121328571D01*
X130000000Y-121300000D01*
X130057143Y-121271429D01*
X130685715Y-122071429D02*
X130542858Y-122071429D01*
X130542858Y-121214286D01*
X130685715Y-121214286D01*
X130885715Y-121328571D02*
X130914286Y-121300000D01*
X130971429Y-121271429D01*
X131114286Y-121271429D01*
X131171429Y-121300000D01*
X131200000Y-121328571D01*
X131228572Y-121385714D01*
X131228572Y-121442857D01*
X131200000Y-121528571D01*
X130857143Y-121871429D01*
X131228572Y-121871429D01*
X131742858Y-121271429D02*
X131628572Y-121271429D01*
X131571429Y-121300000D01*
X131542858Y-121328571D01*
X131485715Y-121414286D01*
X131457144Y-121528571D01*
X131457144Y-121757143D01*
X131485715Y-121814286D01*
X131514287Y-121842857D01*
X131571429Y-121871429D01*
X131685715Y-121871429D01*
X131742858Y-121842857D01*
X131771429Y-121814286D01*
X131800001Y-121757143D01*
X131800001Y-121614286D01*
X131771429Y-121557143D01*
X131742858Y-121528571D01*
X131685715Y-121500000D01*
X131571429Y-121500000D01*
X131514287Y-121528571D01*
X131485715Y-121557143D01*
X131457144Y-121614286D01*
X132000001Y-122071429D02*
X132142858Y-122071429D01*
X132142858Y-121214286D01*
X132000001Y-121214286D01*
X129266667Y-118616667D02*
X129666667Y-118616667D01*
X129466667Y-119316667D02*
X129466667Y-118616667D01*
X129833333Y-118616667D02*
X130300000Y-119316667D01*
X130300000Y-118616667D02*
X129833333Y-119316667D01*
X130566667Y-119316667D02*
X130566667Y-118616667D01*
X130733333Y-118616667D01*
X130833333Y-118650000D01*
X130900000Y-118716667D01*
X130933333Y-118783333D01*
X130966667Y-118916667D01*
X130966667Y-119016667D01*
X130933333Y-119150000D01*
X130900000Y-119216667D01*
X130833333Y-119283333D01*
X130733333Y-119316667D01*
X130566667Y-119316667D01*
X131400000Y-118616667D02*
X131466667Y-118616667D01*
X131533333Y-118650000D01*
X131566667Y-118683333D01*
X131600000Y-118750000D01*
X131633333Y-118883333D01*
X131633333Y-119050000D01*
X131600000Y-119183333D01*
X131566667Y-119250000D01*
X131533333Y-119283333D01*
X131466667Y-119316667D01*
X131400000Y-119316667D01*
X131333333Y-119283333D01*
X131300000Y-119250000D01*
X131266667Y-119183333D01*
X131233333Y-119050000D01*
X131233333Y-118883333D01*
X131266667Y-118750000D01*
X131300000Y-118683333D01*
X131333333Y-118650000D01*
X131400000Y-118616667D01*
X129766667Y-116816667D02*
X129533333Y-116483333D01*
X129366667Y-116816667D02*
X129366667Y-116116667D01*
X129633333Y-116116667D01*
X129700000Y-116150000D01*
X129733333Y-116183333D01*
X129766667Y-116250000D01*
X129766667Y-116350000D01*
X129733333Y-116416667D01*
X129700000Y-116450000D01*
X129633333Y-116483333D01*
X129366667Y-116483333D01*
X130000000Y-116116667D02*
X130466667Y-116816667D01*
X130466667Y-116116667D02*
X130000000Y-116816667D01*
X130733334Y-116816667D02*
X130733334Y-116116667D01*
X130900000Y-116116667D01*
X131000000Y-116150000D01*
X131066667Y-116216667D01*
X131100000Y-116283333D01*
X131133334Y-116416667D01*
X131133334Y-116516667D01*
X131100000Y-116650000D01*
X131066667Y-116716667D01*
X131000000Y-116783333D01*
X130900000Y-116816667D01*
X130733334Y-116816667D01*
X131566667Y-116116667D02*
X131633334Y-116116667D01*
X131700000Y-116150000D01*
X131733334Y-116183333D01*
X131766667Y-116250000D01*
X131800000Y-116383333D01*
X131800000Y-116550000D01*
X131766667Y-116683333D01*
X131733334Y-116750000D01*
X131700000Y-116783333D01*
X131633334Y-116816667D01*
X131566667Y-116816667D01*
X131500000Y-116783333D01*
X131466667Y-116750000D01*
X131433334Y-116683333D01*
X131400000Y-116550000D01*
X131400000Y-116383333D01*
X131433334Y-116250000D01*
X131466667Y-116183333D01*
X131500000Y-116150000D01*
X131566667Y-116116667D01*
X129333333Y-114183333D02*
X129433333Y-114216667D01*
X129600000Y-114216667D01*
X129666667Y-114183333D01*
X129700000Y-114150000D01*
X129733333Y-114083333D01*
X129733333Y-114016667D01*
X129700000Y-113950000D01*
X129666667Y-113916667D01*
X129600000Y-113883333D01*
X129466667Y-113850000D01*
X129400000Y-113816667D01*
X129366667Y-113783333D01*
X129333333Y-113716667D01*
X129333333Y-113650000D01*
X129366667Y-113583333D01*
X129400000Y-113550000D01*
X129466667Y-113516667D01*
X129633333Y-113516667D01*
X129733333Y-113550000D01*
X130033334Y-114216667D02*
X130033334Y-113516667D01*
X130200000Y-113516667D01*
X130300000Y-113550000D01*
X130366667Y-113616667D01*
X130400000Y-113683333D01*
X130433334Y-113816667D01*
X130433334Y-113916667D01*
X130400000Y-114050000D01*
X130366667Y-114116667D01*
X130300000Y-114183333D01*
X130200000Y-114216667D01*
X130033334Y-114216667D01*
X130700000Y-114016667D02*
X131033334Y-114016667D01*
X130633334Y-114216667D02*
X130866667Y-113516667D01*
X131100000Y-114216667D01*
X129333333Y-111683333D02*
X129433333Y-111716667D01*
X129600000Y-111716667D01*
X129666667Y-111683333D01*
X129700000Y-111650000D01*
X129733333Y-111583333D01*
X129733333Y-111516667D01*
X129700000Y-111450000D01*
X129666667Y-111416667D01*
X129600000Y-111383333D01*
X129466667Y-111350000D01*
X129400000Y-111316667D01*
X129366667Y-111283333D01*
X129333333Y-111216667D01*
X129333333Y-111150000D01*
X129366667Y-111083333D01*
X129400000Y-111050000D01*
X129466667Y-111016667D01*
X129633333Y-111016667D01*
X129733333Y-111050000D01*
X130433334Y-111650000D02*
X130400000Y-111683333D01*
X130300000Y-111716667D01*
X130233334Y-111716667D01*
X130133334Y-111683333D01*
X130066667Y-111616667D01*
X130033334Y-111550000D01*
X130000000Y-111416667D01*
X130000000Y-111316667D01*
X130033334Y-111183333D01*
X130066667Y-111116667D01*
X130133334Y-111050000D01*
X130233334Y-111016667D01*
X130300000Y-111016667D01*
X130400000Y-111050000D01*
X130433334Y-111083333D01*
X130733334Y-111716667D02*
X130733334Y-111016667D01*
X131133334Y-111716667D02*
X130833334Y-111316667D01*
X131133334Y-111016667D02*
X130733334Y-111416667D01*
X129342857Y-109071429D02*
X129342857Y-108471429D01*
X129600000Y-109042857D02*
X129685714Y-109071429D01*
X129828571Y-109071429D01*
X129885714Y-109042857D01*
X129914285Y-109014286D01*
X129942857Y-108957143D01*
X129942857Y-108900000D01*
X129914285Y-108842857D01*
X129885714Y-108814286D01*
X129828571Y-108785714D01*
X129714285Y-108757143D01*
X129657143Y-108728571D01*
X129628571Y-108700000D01*
X129600000Y-108642857D01*
X129600000Y-108585714D01*
X129628571Y-108528571D01*
X129657143Y-108500000D01*
X129714285Y-108471429D01*
X129857143Y-108471429D01*
X129942857Y-108500000D01*
X130200000Y-109071429D02*
X130200000Y-108471429D01*
X130428572Y-108471429D01*
X130485714Y-108500000D01*
X130514286Y-108528571D01*
X130542857Y-108585714D01*
X130542857Y-108671429D01*
X130514286Y-108728571D01*
X130485714Y-108757143D01*
X130428572Y-108785714D01*
X130200000Y-108785714D01*
X129200000Y-108368000D02*
X130657143Y-108368000D01*
X129585714Y-106571429D02*
X129385714Y-106285714D01*
X129242857Y-106571429D02*
X129242857Y-105971429D01*
X129471429Y-105971429D01*
X129528571Y-106000000D01*
X129557143Y-106028571D01*
X129585714Y-106085714D01*
X129585714Y-106171429D01*
X129557143Y-106228571D01*
X129528571Y-106257143D01*
X129471429Y-106285714D01*
X129242857Y-106285714D01*
X129842857Y-106257143D02*
X130042857Y-106257143D01*
X130128571Y-106571429D02*
X129842857Y-106571429D01*
X129842857Y-105971429D01*
X130128571Y-105971429D01*
X130357143Y-106542857D02*
X130442857Y-106571429D01*
X130585714Y-106571429D01*
X130642857Y-106542857D01*
X130671428Y-106514286D01*
X130700000Y-106457143D01*
X130700000Y-106400000D01*
X130671428Y-106342857D01*
X130642857Y-106314286D01*
X130585714Y-106285714D01*
X130471428Y-106257143D01*
X130414286Y-106228571D01*
X130385714Y-106200000D01*
X130357143Y-106142857D01*
X130357143Y-106085714D01*
X130385714Y-106028571D01*
X130414286Y-106000000D01*
X130471428Y-105971429D01*
X130614286Y-105971429D01*
X130700000Y-106000000D01*
X130957143Y-106257143D02*
X131157143Y-106257143D01*
X131242857Y-106571429D02*
X130957143Y-106571429D01*
X130957143Y-105971429D01*
X131242857Y-105971429D01*
X131414286Y-105971429D02*
X131757143Y-105971429D01*
X131585714Y-106571429D02*
X131585714Y-105971429D01*
X129100000Y-105868000D02*
X131814286Y-105868000D01*
X129242857Y-96471429D02*
X129242857Y-95871429D01*
X129471429Y-95871429D01*
X129528571Y-95900000D01*
X129557143Y-95928571D01*
X129585714Y-95985714D01*
X129585714Y-96071429D01*
X129557143Y-96128571D01*
X129528571Y-96157143D01*
X129471429Y-96185714D01*
X129242857Y-96185714D01*
X129785714Y-95871429D02*
X129928571Y-96471429D01*
X130042857Y-96042857D01*
X130157143Y-96471429D01*
X130300000Y-95871429D01*
X130871428Y-96471429D02*
X130671428Y-96185714D01*
X130528571Y-96471429D02*
X130528571Y-95871429D01*
X130757143Y-95871429D01*
X130814285Y-95900000D01*
X130842857Y-95928571D01*
X130871428Y-95985714D01*
X130871428Y-96071429D01*
X130842857Y-96128571D01*
X130814285Y-96157143D01*
X130757143Y-96185714D01*
X130528571Y-96185714D01*
X131242857Y-95871429D02*
X131357143Y-95871429D01*
X131414285Y-95900000D01*
X131471428Y-95957143D01*
X131500000Y-96071429D01*
X131500000Y-96271429D01*
X131471428Y-96385714D01*
X131414285Y-96442857D01*
X131357143Y-96471429D01*
X131242857Y-96471429D01*
X131185714Y-96442857D01*
X131128571Y-96385714D01*
X131100000Y-96271429D01*
X131100000Y-96071429D01*
X131128571Y-95957143D01*
X131185714Y-95900000D01*
X131242857Y-95871429D01*
X131757142Y-96471429D02*
X131757142Y-95871429D01*
X132099999Y-96471429D01*
X132099999Y-95871429D01*
X129700000Y-93216667D02*
X129366667Y-93216667D01*
X129333333Y-93550000D01*
X129366667Y-93516667D01*
X129433333Y-93483333D01*
X129600000Y-93483333D01*
X129666667Y-93516667D01*
X129700000Y-93550000D01*
X129733333Y-93616667D01*
X129733333Y-93783333D01*
X129700000Y-93850000D01*
X129666667Y-93883333D01*
X129600000Y-93916667D01*
X129433333Y-93916667D01*
X129366667Y-93883333D01*
X129333333Y-93850000D01*
X129933334Y-93216667D02*
X130166667Y-93916667D01*
X130400000Y-93216667D01*
X129733333Y-85750000D02*
X129666667Y-85716667D01*
X129566667Y-85716667D01*
X129466667Y-85750000D01*
X129400000Y-85816667D01*
X129366667Y-85883333D01*
X129333333Y-86016667D01*
X129333333Y-86116667D01*
X129366667Y-86250000D01*
X129400000Y-86316667D01*
X129466667Y-86383333D01*
X129566667Y-86416667D01*
X129633333Y-86416667D01*
X129733333Y-86383333D01*
X129766667Y-86350000D01*
X129766667Y-86116667D01*
X129633333Y-86116667D01*
X130066667Y-86416667D02*
X130066667Y-85716667D01*
X130466667Y-86416667D01*
X130466667Y-85716667D01*
X130800000Y-86416667D02*
X130800000Y-85716667D01*
X130966666Y-85716667D01*
X131066666Y-85750000D01*
X131133333Y-85816667D01*
X131166666Y-85883333D01*
X131200000Y-86016667D01*
X131200000Y-86116667D01*
X131166666Y-86250000D01*
X131133333Y-86316667D01*
X131066666Y-86383333D01*
X130966666Y-86416667D01*
X130800000Y-86416667D01*
X129366667Y-83016667D02*
X129366667Y-83583333D01*
X129400000Y-83650000D01*
X129433333Y-83683333D01*
X129500000Y-83716667D01*
X129633333Y-83716667D01*
X129700000Y-83683333D01*
X129733333Y-83650000D01*
X129766667Y-83583333D01*
X129766667Y-83016667D01*
X130066666Y-83683333D02*
X130166666Y-83716667D01*
X130333333Y-83716667D01*
X130400000Y-83683333D01*
X130433333Y-83650000D01*
X130466666Y-83583333D01*
X130466666Y-83516667D01*
X130433333Y-83450000D01*
X130400000Y-83416667D01*
X130333333Y-83383333D01*
X130200000Y-83350000D01*
X130133333Y-83316667D01*
X130100000Y-83283333D01*
X130066666Y-83216667D01*
X130066666Y-83150000D01*
X130100000Y-83083333D01*
X130133333Y-83050000D01*
X130200000Y-83016667D01*
X130366666Y-83016667D01*
X130466666Y-83050000D01*
X131000000Y-83350000D02*
X131100000Y-83383333D01*
X131133333Y-83416667D01*
X131166667Y-83483333D01*
X131166667Y-83583333D01*
X131133333Y-83650000D01*
X131100000Y-83683333D01*
X131033333Y-83716667D01*
X130766667Y-83716667D01*
X130766667Y-83016667D01*
X131000000Y-83016667D01*
X131066667Y-83050000D01*
X131100000Y-83083333D01*
X131133333Y-83150000D01*
X131133333Y-83216667D01*
X131100000Y-83283333D01*
X131066667Y-83316667D01*
X131000000Y-83350000D01*
X130766667Y-83350000D01*
X131466667Y-83450000D02*
X132000000Y-83450000D01*
X129366667Y-80616667D02*
X129366667Y-81183333D01*
X129400000Y-81250000D01*
X129433333Y-81283333D01*
X129500000Y-81316667D01*
X129633333Y-81316667D01*
X129700000Y-81283333D01*
X129733333Y-81250000D01*
X129766667Y-81183333D01*
X129766667Y-80616667D01*
X130066666Y-81283333D02*
X130166666Y-81316667D01*
X130333333Y-81316667D01*
X130400000Y-81283333D01*
X130433333Y-81250000D01*
X130466666Y-81183333D01*
X130466666Y-81116667D01*
X130433333Y-81050000D01*
X130400000Y-81016667D01*
X130333333Y-80983333D01*
X130200000Y-80950000D01*
X130133333Y-80916667D01*
X130100000Y-80883333D01*
X130066666Y-80816667D01*
X130066666Y-80750000D01*
X130100000Y-80683333D01*
X130133333Y-80650000D01*
X130200000Y-80616667D01*
X130366666Y-80616667D01*
X130466666Y-80650000D01*
X131000000Y-80950000D02*
X131100000Y-80983333D01*
X131133333Y-81016667D01*
X131166667Y-81083333D01*
X131166667Y-81183333D01*
X131133333Y-81250000D01*
X131100000Y-81283333D01*
X131033333Y-81316667D01*
X130766667Y-81316667D01*
X130766667Y-80616667D01*
X131000000Y-80616667D01*
X131066667Y-80650000D01*
X131100000Y-80683333D01*
X131133333Y-80750000D01*
X131133333Y-80816667D01*
X131100000Y-80883333D01*
X131066667Y-80916667D01*
X131000000Y-80950000D01*
X130766667Y-80950000D01*
X131466667Y-81050000D02*
X132000000Y-81050000D01*
X131733333Y-81316667D02*
X131733333Y-80783333D01*
D12*
X134009902Y-84500000D02*
G75*
G03X134009902Y-84500000I-509902J0D01*
G01*
X132300000Y-82200000D02*
X133700000Y-80800000D01*
X164700000Y-80800000D02*
X133700000Y-80800000D01*
X164700000Y-129000000D02*
X164700000Y-80800000D01*
X132300000Y-129000000D02*
X164700000Y-129000000D01*
X132300000Y-82200000D02*
X132300000Y-129000000D01*
D11*
X148166667Y-81852381D02*
X148166667Y-82566667D01*
X148119047Y-82709524D01*
X148023809Y-82804762D01*
X147880952Y-82852381D01*
X147785714Y-82852381D01*
X148595238Y-81947619D02*
X148642857Y-81900000D01*
X148738095Y-81852381D01*
X148976191Y-81852381D01*
X149071429Y-81900000D01*
X149119048Y-81947619D01*
X149166667Y-82042857D01*
X149166667Y-82138095D01*
X149119048Y-82280952D01*
X148547619Y-82852381D01*
X149166667Y-82852381D01*
M02*
