M48
;DRILL file {KiCad 4.0.7-e1-6374~58~ubuntu14.04.1} date Wed Aug 23 15:58:57 2017
;FORMAT={-:-/ absolute / inch / decimal}
FMAT,2
INCH,TZ
T1C0.012
T2C0.037
%
G90
G05
M72
T1
X5.1722Y-3.5069
X5.8406Y-5.6535
X5.8917Y-5.6467
X5.8957Y-5.5236
X5.9006Y-5.2106
X5.9734Y-5.186
X6.1614Y-3.1417
X6.2047Y-3.1496
T2
X5.0394Y-3.1854
X5.0394Y-3.2854
X5.0394Y-3.3854
X5.0394Y-3.4854
X5.0394Y-3.5854
X5.0394Y-3.6854
X5.0394Y-3.7854
X5.0394Y-3.8854
X5.0394Y-3.9854
X5.0394Y-4.0854
X5.0394Y-4.1854
X5.0394Y-4.2854
X5.0394Y-4.3854
X5.0394Y-4.4854
X5.0394Y-4.5854
X5.0394Y-4.6854
X5.0394Y-4.7854
X5.0394Y-4.8854
T0
M30
