G04 #@! TF.FileFunction,Legend,Top*
%FSLAX46Y46*%
G04 Gerber Fmt 4.6, Leading zero omitted, Abs format (unit mm)*
G04 Created by KiCad (PCBNEW 4.0.7-e1-6374~58~ubuntu14.04.1) date Wed Aug 23 15:58:55 2017*
%MOMM*%
%LPD*%
G01*
G04 APERTURE LIST*
%ADD10C,0.100000*%
%ADD11C,0.150000*%
%ADD12C,0.152400*%
G04 APERTURE END LIST*
D10*
D11*
X128639286Y-125842857D02*
X128725000Y-125871429D01*
X128867857Y-125871429D01*
X128925000Y-125842857D01*
X128953571Y-125814286D01*
X128982143Y-125757143D01*
X128982143Y-125700000D01*
X128953571Y-125642857D01*
X128925000Y-125614286D01*
X128867857Y-125585714D01*
X128753571Y-125557143D01*
X128696429Y-125528571D01*
X128667857Y-125500000D01*
X128639286Y-125442857D01*
X128639286Y-125385714D01*
X128667857Y-125328571D01*
X128696429Y-125300000D01*
X128753571Y-125271429D01*
X128896429Y-125271429D01*
X128982143Y-125300000D01*
X129182143Y-125271429D02*
X129325000Y-125871429D01*
X129439286Y-125442857D01*
X129553572Y-125871429D01*
X129696429Y-125271429D01*
X129925000Y-125871429D02*
X129925000Y-125271429D01*
X130067857Y-125271429D01*
X130153572Y-125300000D01*
X130210714Y-125357143D01*
X130239286Y-125414286D01*
X130267857Y-125528571D01*
X130267857Y-125614286D01*
X130239286Y-125728571D01*
X130210714Y-125785714D01*
X130153572Y-125842857D01*
X130067857Y-125871429D01*
X129925000Y-125871429D01*
X130525000Y-125871429D02*
X130525000Y-125271429D01*
X130925000Y-125271429D02*
X131039286Y-125271429D01*
X131096428Y-125300000D01*
X131153571Y-125357143D01*
X131182143Y-125471429D01*
X131182143Y-125671429D01*
X131153571Y-125785714D01*
X131096428Y-125842857D01*
X131039286Y-125871429D01*
X130925000Y-125871429D01*
X130867857Y-125842857D01*
X130810714Y-125785714D01*
X130782143Y-125671429D01*
X130782143Y-125471429D01*
X130810714Y-125357143D01*
X130867857Y-125300000D01*
X130925000Y-125271429D01*
X128639286Y-123042857D02*
X128725000Y-123071429D01*
X128867857Y-123071429D01*
X128925000Y-123042857D01*
X128953571Y-123014286D01*
X128982143Y-122957143D01*
X128982143Y-122900000D01*
X128953571Y-122842857D01*
X128925000Y-122814286D01*
X128867857Y-122785714D01*
X128753571Y-122757143D01*
X128696429Y-122728571D01*
X128667857Y-122700000D01*
X128639286Y-122642857D01*
X128639286Y-122585714D01*
X128667857Y-122528571D01*
X128696429Y-122500000D01*
X128753571Y-122471429D01*
X128896429Y-122471429D01*
X128982143Y-122500000D01*
X129182143Y-122471429D02*
X129325000Y-123071429D01*
X129439286Y-122642857D01*
X129553572Y-123071429D01*
X129696429Y-122471429D01*
X129925000Y-123071429D02*
X129925000Y-122471429D01*
X130067857Y-122471429D01*
X130153572Y-122500000D01*
X130210714Y-122557143D01*
X130239286Y-122614286D01*
X130267857Y-122728571D01*
X130267857Y-122814286D01*
X130239286Y-122928571D01*
X130210714Y-122985714D01*
X130153572Y-123042857D01*
X130067857Y-123071429D01*
X129925000Y-123071429D01*
X130867857Y-123014286D02*
X130839286Y-123042857D01*
X130753572Y-123071429D01*
X130696429Y-123071429D01*
X130610714Y-123042857D01*
X130553572Y-122985714D01*
X130525000Y-122928571D01*
X130496429Y-122814286D01*
X130496429Y-122728571D01*
X130525000Y-122614286D01*
X130553572Y-122557143D01*
X130610714Y-122500000D01*
X130696429Y-122471429D01*
X130753572Y-122471429D01*
X130839286Y-122500000D01*
X130867857Y-122528571D01*
X131410714Y-123071429D02*
X131125000Y-123071429D01*
X131125000Y-122471429D01*
X131610714Y-123071429D02*
X131610714Y-122471429D01*
X131953571Y-123071429D02*
X131696428Y-122728571D01*
X131953571Y-122471429D02*
X131610714Y-122814286D01*
X129266667Y-118616667D02*
X129666667Y-118616667D01*
X129466667Y-119316667D02*
X129466667Y-118616667D01*
X129833333Y-118616667D02*
X130300000Y-119316667D01*
X130300000Y-118616667D02*
X129833333Y-119316667D01*
X130566667Y-119316667D02*
X130566667Y-118616667D01*
X130733333Y-118616667D01*
X130833333Y-118650000D01*
X130900000Y-118716667D01*
X130933333Y-118783333D01*
X130966667Y-118916667D01*
X130966667Y-119016667D01*
X130933333Y-119150000D01*
X130900000Y-119216667D01*
X130833333Y-119283333D01*
X130733333Y-119316667D01*
X130566667Y-119316667D01*
X131400000Y-118616667D02*
X131466667Y-118616667D01*
X131533333Y-118650000D01*
X131566667Y-118683333D01*
X131600000Y-118750000D01*
X131633333Y-118883333D01*
X131633333Y-119050000D01*
X131600000Y-119183333D01*
X131566667Y-119250000D01*
X131533333Y-119283333D01*
X131466667Y-119316667D01*
X131400000Y-119316667D01*
X131333333Y-119283333D01*
X131300000Y-119250000D01*
X131266667Y-119183333D01*
X131233333Y-119050000D01*
X131233333Y-118883333D01*
X131266667Y-118750000D01*
X131300000Y-118683333D01*
X131333333Y-118650000D01*
X131400000Y-118616667D01*
X129766667Y-116816667D02*
X129533333Y-116483333D01*
X129366667Y-116816667D02*
X129366667Y-116116667D01*
X129633333Y-116116667D01*
X129700000Y-116150000D01*
X129733333Y-116183333D01*
X129766667Y-116250000D01*
X129766667Y-116350000D01*
X129733333Y-116416667D01*
X129700000Y-116450000D01*
X129633333Y-116483333D01*
X129366667Y-116483333D01*
X130000000Y-116116667D02*
X130466667Y-116816667D01*
X130466667Y-116116667D02*
X130000000Y-116816667D01*
X130733334Y-116816667D02*
X130733334Y-116116667D01*
X130900000Y-116116667D01*
X131000000Y-116150000D01*
X131066667Y-116216667D01*
X131100000Y-116283333D01*
X131133334Y-116416667D01*
X131133334Y-116516667D01*
X131100000Y-116650000D01*
X131066667Y-116716667D01*
X131000000Y-116783333D01*
X130900000Y-116816667D01*
X130733334Y-116816667D01*
X131566667Y-116116667D02*
X131633334Y-116116667D01*
X131700000Y-116150000D01*
X131733334Y-116183333D01*
X131766667Y-116250000D01*
X131800000Y-116383333D01*
X131800000Y-116550000D01*
X131766667Y-116683333D01*
X131733334Y-116750000D01*
X131700000Y-116783333D01*
X131633334Y-116816667D01*
X131566667Y-116816667D01*
X131500000Y-116783333D01*
X131466667Y-116750000D01*
X131433334Y-116683333D01*
X131400000Y-116550000D01*
X131400000Y-116383333D01*
X131433334Y-116250000D01*
X131466667Y-116183333D01*
X131500000Y-116150000D01*
X131566667Y-116116667D01*
X129333333Y-114183333D02*
X129433333Y-114216667D01*
X129600000Y-114216667D01*
X129666667Y-114183333D01*
X129700000Y-114150000D01*
X129733333Y-114083333D01*
X129733333Y-114016667D01*
X129700000Y-113950000D01*
X129666667Y-113916667D01*
X129600000Y-113883333D01*
X129466667Y-113850000D01*
X129400000Y-113816667D01*
X129366667Y-113783333D01*
X129333333Y-113716667D01*
X129333333Y-113650000D01*
X129366667Y-113583333D01*
X129400000Y-113550000D01*
X129466667Y-113516667D01*
X129633333Y-113516667D01*
X129733333Y-113550000D01*
X130033334Y-114216667D02*
X130033334Y-113516667D01*
X130200000Y-113516667D01*
X130300000Y-113550000D01*
X130366667Y-113616667D01*
X130400000Y-113683333D01*
X130433334Y-113816667D01*
X130433334Y-113916667D01*
X130400000Y-114050000D01*
X130366667Y-114116667D01*
X130300000Y-114183333D01*
X130200000Y-114216667D01*
X130033334Y-114216667D01*
X130700000Y-114016667D02*
X131033334Y-114016667D01*
X130633334Y-114216667D02*
X130866667Y-113516667D01*
X131100000Y-114216667D01*
X129333333Y-111683333D02*
X129433333Y-111716667D01*
X129600000Y-111716667D01*
X129666667Y-111683333D01*
X129700000Y-111650000D01*
X129733333Y-111583333D01*
X129733333Y-111516667D01*
X129700000Y-111450000D01*
X129666667Y-111416667D01*
X129600000Y-111383333D01*
X129466667Y-111350000D01*
X129400000Y-111316667D01*
X129366667Y-111283333D01*
X129333333Y-111216667D01*
X129333333Y-111150000D01*
X129366667Y-111083333D01*
X129400000Y-111050000D01*
X129466667Y-111016667D01*
X129633333Y-111016667D01*
X129733333Y-111050000D01*
X130433334Y-111650000D02*
X130400000Y-111683333D01*
X130300000Y-111716667D01*
X130233334Y-111716667D01*
X130133334Y-111683333D01*
X130066667Y-111616667D01*
X130033334Y-111550000D01*
X130000000Y-111416667D01*
X130000000Y-111316667D01*
X130033334Y-111183333D01*
X130066667Y-111116667D01*
X130133334Y-111050000D01*
X130233334Y-111016667D01*
X130300000Y-111016667D01*
X130400000Y-111050000D01*
X130433334Y-111083333D01*
X130733334Y-111716667D02*
X130733334Y-111016667D01*
X131133334Y-111716667D02*
X130833334Y-111316667D01*
X131133334Y-111016667D02*
X130733334Y-111416667D01*
X129342857Y-109071429D02*
X129342857Y-108471429D01*
X129600000Y-109042857D02*
X129685714Y-109071429D01*
X129828571Y-109071429D01*
X129885714Y-109042857D01*
X129914285Y-109014286D01*
X129942857Y-108957143D01*
X129942857Y-108900000D01*
X129914285Y-108842857D01*
X129885714Y-108814286D01*
X129828571Y-108785714D01*
X129714285Y-108757143D01*
X129657143Y-108728571D01*
X129628571Y-108700000D01*
X129600000Y-108642857D01*
X129600000Y-108585714D01*
X129628571Y-108528571D01*
X129657143Y-108500000D01*
X129714285Y-108471429D01*
X129857143Y-108471429D01*
X129942857Y-108500000D01*
X130200000Y-109071429D02*
X130200000Y-108471429D01*
X130428572Y-108471429D01*
X130485714Y-108500000D01*
X130514286Y-108528571D01*
X130542857Y-108585714D01*
X130542857Y-108671429D01*
X130514286Y-108728571D01*
X130485714Y-108757143D01*
X130428572Y-108785714D01*
X130200000Y-108785714D01*
X129200000Y-108368000D02*
X130657143Y-108368000D01*
X129585714Y-106571429D02*
X129385714Y-106285714D01*
X129242857Y-106571429D02*
X129242857Y-105971429D01*
X129471429Y-105971429D01*
X129528571Y-106000000D01*
X129557143Y-106028571D01*
X129585714Y-106085714D01*
X129585714Y-106171429D01*
X129557143Y-106228571D01*
X129528571Y-106257143D01*
X129471429Y-106285714D01*
X129242857Y-106285714D01*
X129842857Y-106257143D02*
X130042857Y-106257143D01*
X130128571Y-106571429D02*
X129842857Y-106571429D01*
X129842857Y-105971429D01*
X130128571Y-105971429D01*
X130357143Y-106542857D02*
X130442857Y-106571429D01*
X130585714Y-106571429D01*
X130642857Y-106542857D01*
X130671428Y-106514286D01*
X130700000Y-106457143D01*
X130700000Y-106400000D01*
X130671428Y-106342857D01*
X130642857Y-106314286D01*
X130585714Y-106285714D01*
X130471428Y-106257143D01*
X130414286Y-106228571D01*
X130385714Y-106200000D01*
X130357143Y-106142857D01*
X130357143Y-106085714D01*
X130385714Y-106028571D01*
X130414286Y-106000000D01*
X130471428Y-105971429D01*
X130614286Y-105971429D01*
X130700000Y-106000000D01*
X130957143Y-106257143D02*
X131157143Y-106257143D01*
X131242857Y-106571429D02*
X130957143Y-106571429D01*
X130957143Y-105971429D01*
X131242857Y-105971429D01*
X131414286Y-105971429D02*
X131757143Y-105971429D01*
X131585714Y-106571429D02*
X131585714Y-105971429D01*
X129100000Y-105868000D02*
X131814286Y-105868000D01*
X129242857Y-96471429D02*
X129242857Y-95871429D01*
X129471429Y-95871429D01*
X129528571Y-95900000D01*
X129557143Y-95928571D01*
X129585714Y-95985714D01*
X129585714Y-96071429D01*
X129557143Y-96128571D01*
X129528571Y-96157143D01*
X129471429Y-96185714D01*
X129242857Y-96185714D01*
X129785714Y-95871429D02*
X129928571Y-96471429D01*
X130042857Y-96042857D01*
X130157143Y-96471429D01*
X130300000Y-95871429D01*
X130871428Y-96471429D02*
X130671428Y-96185714D01*
X130528571Y-96471429D02*
X130528571Y-95871429D01*
X130757143Y-95871429D01*
X130814285Y-95900000D01*
X130842857Y-95928571D01*
X130871428Y-95985714D01*
X130871428Y-96071429D01*
X130842857Y-96128571D01*
X130814285Y-96157143D01*
X130757143Y-96185714D01*
X130528571Y-96185714D01*
X131242857Y-95871429D02*
X131357143Y-95871429D01*
X131414285Y-95900000D01*
X131471428Y-95957143D01*
X131500000Y-96071429D01*
X131500000Y-96271429D01*
X131471428Y-96385714D01*
X131414285Y-96442857D01*
X131357143Y-96471429D01*
X131242857Y-96471429D01*
X131185714Y-96442857D01*
X131128571Y-96385714D01*
X131100000Y-96271429D01*
X131100000Y-96071429D01*
X131128571Y-95957143D01*
X131185714Y-95900000D01*
X131242857Y-95871429D01*
X131757142Y-96471429D02*
X131757142Y-95871429D01*
X132099999Y-96471429D01*
X132099999Y-95871429D01*
X129700000Y-93216667D02*
X129366667Y-93216667D01*
X129333333Y-93550000D01*
X129366667Y-93516667D01*
X129433333Y-93483333D01*
X129600000Y-93483333D01*
X129666667Y-93516667D01*
X129700000Y-93550000D01*
X129733333Y-93616667D01*
X129733333Y-93783333D01*
X129700000Y-93850000D01*
X129666667Y-93883333D01*
X129600000Y-93916667D01*
X129433333Y-93916667D01*
X129366667Y-93883333D01*
X129333333Y-93850000D01*
X129933334Y-93216667D02*
X130166667Y-93916667D01*
X130400000Y-93216667D01*
X129733333Y-85750000D02*
X129666667Y-85716667D01*
X129566667Y-85716667D01*
X129466667Y-85750000D01*
X129400000Y-85816667D01*
X129366667Y-85883333D01*
X129333333Y-86016667D01*
X129333333Y-86116667D01*
X129366667Y-86250000D01*
X129400000Y-86316667D01*
X129466667Y-86383333D01*
X129566667Y-86416667D01*
X129633333Y-86416667D01*
X129733333Y-86383333D01*
X129766667Y-86350000D01*
X129766667Y-86116667D01*
X129633333Y-86116667D01*
X130066667Y-86416667D02*
X130066667Y-85716667D01*
X130466667Y-86416667D01*
X130466667Y-85716667D01*
X130800000Y-86416667D02*
X130800000Y-85716667D01*
X130966666Y-85716667D01*
X131066666Y-85750000D01*
X131133333Y-85816667D01*
X131166666Y-85883333D01*
X131200000Y-86016667D01*
X131200000Y-86116667D01*
X131166666Y-86250000D01*
X131133333Y-86316667D01*
X131066666Y-86383333D01*
X130966666Y-86416667D01*
X130800000Y-86416667D01*
X129366667Y-83016667D02*
X129366667Y-83583333D01*
X129400000Y-83650000D01*
X129433333Y-83683333D01*
X129500000Y-83716667D01*
X129633333Y-83716667D01*
X129700000Y-83683333D01*
X129733333Y-83650000D01*
X129766667Y-83583333D01*
X129766667Y-83016667D01*
X130066666Y-83683333D02*
X130166666Y-83716667D01*
X130333333Y-83716667D01*
X130400000Y-83683333D01*
X130433333Y-83650000D01*
X130466666Y-83583333D01*
X130466666Y-83516667D01*
X130433333Y-83450000D01*
X130400000Y-83416667D01*
X130333333Y-83383333D01*
X130200000Y-83350000D01*
X130133333Y-83316667D01*
X130100000Y-83283333D01*
X130066666Y-83216667D01*
X130066666Y-83150000D01*
X130100000Y-83083333D01*
X130133333Y-83050000D01*
X130200000Y-83016667D01*
X130366666Y-83016667D01*
X130466666Y-83050000D01*
X131000000Y-83350000D02*
X131100000Y-83383333D01*
X131133333Y-83416667D01*
X131166667Y-83483333D01*
X131166667Y-83583333D01*
X131133333Y-83650000D01*
X131100000Y-83683333D01*
X131033333Y-83716667D01*
X130766667Y-83716667D01*
X130766667Y-83016667D01*
X131000000Y-83016667D01*
X131066667Y-83050000D01*
X131100000Y-83083333D01*
X131133333Y-83150000D01*
X131133333Y-83216667D01*
X131100000Y-83283333D01*
X131066667Y-83316667D01*
X131000000Y-83350000D01*
X130766667Y-83350000D01*
X131466667Y-83450000D02*
X132000000Y-83450000D01*
X129366667Y-80616667D02*
X129366667Y-81183333D01*
X129400000Y-81250000D01*
X129433333Y-81283333D01*
X129500000Y-81316667D01*
X129633333Y-81316667D01*
X129700000Y-81283333D01*
X129733333Y-81250000D01*
X129766667Y-81183333D01*
X129766667Y-80616667D01*
X130066666Y-81283333D02*
X130166666Y-81316667D01*
X130333333Y-81316667D01*
X130400000Y-81283333D01*
X130433333Y-81250000D01*
X130466666Y-81183333D01*
X130466666Y-81116667D01*
X130433333Y-81050000D01*
X130400000Y-81016667D01*
X130333333Y-80983333D01*
X130200000Y-80950000D01*
X130133333Y-80916667D01*
X130100000Y-80883333D01*
X130066666Y-80816667D01*
X130066666Y-80750000D01*
X130100000Y-80683333D01*
X130133333Y-80650000D01*
X130200000Y-80616667D01*
X130366666Y-80616667D01*
X130466666Y-80650000D01*
X131000000Y-80950000D02*
X131100000Y-80983333D01*
X131133333Y-81016667D01*
X131166667Y-81083333D01*
X131166667Y-81183333D01*
X131133333Y-81250000D01*
X131100000Y-81283333D01*
X131033333Y-81316667D01*
X130766667Y-81316667D01*
X130766667Y-80616667D01*
X131000000Y-80616667D01*
X131066667Y-80650000D01*
X131100000Y-80683333D01*
X131133333Y-80750000D01*
X131133333Y-80816667D01*
X131100000Y-80883333D01*
X131066667Y-80916667D01*
X131000000Y-80950000D01*
X130766667Y-80950000D01*
X131466667Y-81050000D02*
X132000000Y-81050000D01*
X131733333Y-81316667D02*
X131733333Y-80783333D01*
D12*
X134009902Y-84500000D02*
G75*
G03X134009902Y-84500000I-509902J0D01*
G01*
X132300000Y-82200000D02*
X133700000Y-80800000D01*
X164700000Y-80800000D02*
X133700000Y-80800000D01*
X164700000Y-129000000D02*
X164700000Y-80800000D01*
X132300000Y-129000000D02*
X164700000Y-129000000D01*
X132300000Y-82200000D02*
X132300000Y-129000000D01*
X167400000Y-146000000D02*
X167400000Y-134400000D01*
X165400000Y-132800000D02*
X151400000Y-132800000D01*
X151400000Y-132800000D02*
X151400000Y-134800000D01*
X155000000Y-146600000D02*
X151400000Y-146600000D01*
X151400000Y-146600000D02*
X151400000Y-146100000D01*
X161400000Y-146600000D02*
X156400000Y-146600000D01*
X164600000Y-146600000D02*
X162400000Y-146600000D01*
D11*
X148166667Y-81852381D02*
X148166667Y-82566667D01*
X148119047Y-82709524D01*
X148023809Y-82804762D01*
X147880952Y-82852381D01*
X147785714Y-82852381D01*
X148595238Y-81947619D02*
X148642857Y-81900000D01*
X148738095Y-81852381D01*
X148976191Y-81852381D01*
X149071429Y-81900000D01*
X149119048Y-81947619D01*
X149166667Y-82042857D01*
X149166667Y-82138095D01*
X149119048Y-82280952D01*
X148547619Y-82852381D01*
X149166667Y-82852381D01*
X159152381Y-140109524D02*
X158152381Y-140109524D01*
X158866667Y-139776190D01*
X158152381Y-139442857D01*
X159152381Y-139442857D01*
X159152381Y-138966667D02*
X158152381Y-138966667D01*
X158152381Y-138585714D01*
X158200000Y-138490476D01*
X158247619Y-138442857D01*
X158342857Y-138395238D01*
X158485714Y-138395238D01*
X158580952Y-138442857D01*
X158628571Y-138490476D01*
X158676190Y-138585714D01*
X158676190Y-138966667D01*
X159152381Y-137442857D02*
X159152381Y-138014286D01*
X159152381Y-137728572D02*
X158152381Y-137728572D01*
X158295238Y-137823810D01*
X158390476Y-137919048D01*
X158438095Y-138014286D01*
M02*
