G04 #@! TF.FileFunction,Copper,L1,Top,Signal*
%FSLAX46Y46*%
G04 Gerber Fmt 4.6, Leading zero omitted, Abs format (unit mm)*
G04 Created by KiCad (PCBNEW 4.0.6-e0-6349~53~ubuntu14.04.1) date Sun Jun 18 12:02:25 2017*
%MOMM*%
%LPD*%
G01*
G04 APERTURE LIST*
%ADD10C,0.100000*%
%ADD11R,2.000000X1.000000*%
%ADD12R,1.000000X2.000000*%
%ADD13C,1.500000*%
%ADD14R,1.200000X0.700000*%
%ADD15R,1.200000X1.000000*%
%ADD16R,2.800000X1.000000*%
%ADD17R,0.800000X1.000000*%
%ADD18R,1.900000X1.300000*%
%ADD19R,0.350000X0.550000*%
%ADD20C,0.600000*%
%ADD21C,1.000000*%
%ADD22C,0.200000*%
%ADD23C,0.500000*%
G04 APERTURE END LIST*
D10*
D11*
X133500000Y-85950000D03*
X133500000Y-88490000D03*
X133500000Y-91030000D03*
X133500000Y-93570000D03*
X133500000Y-96110000D03*
X133500000Y-98650000D03*
X133500000Y-101190000D03*
X133500000Y-103730000D03*
X133500000Y-106270000D03*
X133500000Y-108810000D03*
X133500000Y-111350000D03*
X133500000Y-113890000D03*
X133500000Y-116430000D03*
X133500000Y-118970000D03*
X133500000Y-121510000D03*
X133500000Y-124050000D03*
D12*
X136500000Y-127750000D03*
X138500000Y-127650000D03*
X140500000Y-127750000D03*
X142500000Y-127750000D03*
X144500000Y-127750000D03*
X146500000Y-127750000D03*
X148500000Y-127750000D03*
X150500000Y-127750000D03*
X152500000Y-127500000D03*
X154500000Y-127750000D03*
X156500000Y-127750000D03*
X158500000Y-127750000D03*
X160500000Y-127750000D03*
D11*
X163500000Y-124050000D03*
X163500000Y-121510000D03*
X163500000Y-118970000D03*
X163500000Y-116430000D03*
X163500000Y-113890000D03*
X163500000Y-111350000D03*
X163500000Y-108810000D03*
X163500000Y-106270000D03*
X163500000Y-103730000D03*
X163500000Y-101190000D03*
X163500000Y-98650000D03*
X163500000Y-96110000D03*
X163500000Y-93570000D03*
X163500000Y-91030000D03*
X163500000Y-88490000D03*
X163500000Y-85950000D03*
D12*
X160500000Y-81950000D03*
X158500000Y-81950000D03*
X156500000Y-81950000D03*
X154500000Y-81950000D03*
X142500000Y-81950000D03*
X140500000Y-81950000D03*
X138500000Y-81950000D03*
X136500000Y-81950000D03*
D13*
X128000000Y-85990000D03*
X128000000Y-88530000D03*
X128000000Y-91070000D03*
X128000000Y-93610000D03*
X128000000Y-96150000D03*
X128000000Y-98690000D03*
X128000000Y-101230000D03*
X128000000Y-103770000D03*
X128000000Y-106310000D03*
X128000000Y-108850000D03*
X128000000Y-111390000D03*
X128000000Y-113930000D03*
X128000000Y-116470000D03*
X128000000Y-119010000D03*
X128000000Y-121550000D03*
X128000000Y-124090000D03*
X128000000Y-83450000D03*
X128000000Y-80910000D03*
D14*
X150400000Y-136000000D03*
X150400000Y-137100000D03*
X150400000Y-138200000D03*
X150400000Y-139300000D03*
X150400000Y-140400000D03*
X150400000Y-141500000D03*
X150400000Y-142600000D03*
X150400000Y-143700000D03*
X150400000Y-144650000D03*
D15*
X150400000Y-134450000D03*
D16*
X165050000Y-145600000D03*
D17*
X160900000Y-145600000D03*
D15*
X154700000Y-145600000D03*
D18*
X165500000Y-132100000D03*
D19*
X166275000Y-133025000D03*
D20*
X156500000Y-79800000D03*
X157600000Y-80000000D03*
X131600000Y-88750000D03*
X151650000Y-139300000D03*
X148050000Y-134100000D03*
X149050000Y-138100000D03*
D21*
X128000000Y-98690000D02*
X133460000Y-98690000D01*
X133460000Y-98690000D02*
X133500000Y-98650000D01*
X128000000Y-85990000D02*
X133460000Y-85990000D01*
X133460000Y-85990000D02*
X133500000Y-85950000D01*
X133460000Y-98690000D02*
X133500000Y-98650000D01*
X133460000Y-85990000D02*
X133500000Y-85950000D01*
X128000000Y-93610000D02*
X133460000Y-93610000D01*
X133460000Y-93610000D02*
X133500000Y-93570000D01*
X133460000Y-93610000D02*
X133500000Y-93570000D01*
D22*
X133500000Y-96110000D02*
X128040000Y-96110000D01*
X128040000Y-96110000D02*
X128000000Y-96150000D01*
X133460000Y-96150000D02*
X133500000Y-96110000D01*
X128000000Y-106310000D02*
X133460000Y-106310000D01*
X133460000Y-106310000D02*
X133500000Y-106270000D01*
X128000000Y-108850000D02*
X133460000Y-108850000D01*
X133460000Y-108850000D02*
X133500000Y-108810000D01*
X128000000Y-111390000D02*
X133460000Y-111390000D01*
X133460000Y-111390000D02*
X133500000Y-111350000D01*
X128000000Y-113930000D02*
X133460000Y-113930000D01*
X133460000Y-113930000D02*
X133500000Y-113890000D01*
X128000000Y-116470000D02*
X133460000Y-116470000D01*
X133460000Y-116470000D02*
X133500000Y-116430000D01*
X128000000Y-119010000D02*
X133460000Y-119010000D01*
X133460000Y-119010000D02*
X133500000Y-118970000D01*
X156500000Y-79800000D02*
X156500000Y-81950000D01*
X158500000Y-80300000D02*
X158500000Y-81950000D01*
X158200000Y-80000000D02*
X158500000Y-80300000D01*
X157600000Y-80000000D02*
X158200000Y-80000000D01*
X128000000Y-121550000D02*
X133460000Y-121550000D01*
X133460000Y-121550000D02*
X133500000Y-121510000D01*
X128000000Y-124090000D02*
X133460000Y-124090000D01*
X133460000Y-124090000D02*
X133500000Y-124050000D01*
D23*
X131860000Y-88490000D02*
X131600000Y-88750000D01*
X131860000Y-88490000D02*
X133500000Y-88490000D01*
X150400000Y-139300000D02*
X151650000Y-139300000D01*
D22*
X147575000Y-130800000D02*
X147375000Y-131000000D01*
X148400000Y-142600000D02*
X150400000Y-142600000D01*
X147375000Y-141575000D02*
X148400000Y-142600000D01*
X147375000Y-131000000D02*
X147375000Y-141575000D01*
X163500000Y-103730000D02*
X163500000Y-104075000D01*
X163500000Y-104075000D02*
X164975000Y-105550000D01*
X164975000Y-105550000D02*
X164975000Y-128350000D01*
X164975000Y-128350000D02*
X163750000Y-129575000D01*
X163750000Y-129575000D02*
X148800000Y-129575000D01*
X148800000Y-129575000D02*
X147575000Y-130800000D01*
X147575000Y-130800000D02*
X147600000Y-130775000D01*
X150400000Y-138200000D02*
X149150000Y-138200000D01*
X165375002Y-103065002D02*
X165375002Y-128515686D01*
X165375002Y-128515686D02*
X163915686Y-129975002D01*
X163915686Y-129975002D02*
X149274998Y-129975002D01*
X149274998Y-129975002D02*
X148375000Y-130875000D01*
X165375002Y-103065002D02*
X163500000Y-101190000D01*
X148050000Y-131200000D02*
X148375000Y-130875000D01*
X148050000Y-134100000D02*
X148050000Y-131200000D01*
X149150000Y-138200000D02*
X149050000Y-138100000D01*
X150400000Y-140400000D02*
X148875000Y-140400000D01*
X150109308Y-130375004D02*
X150325000Y-130375004D01*
X148724998Y-131759314D02*
X150109308Y-130375004D01*
X148724998Y-137375002D02*
X148724998Y-131759314D01*
X148350000Y-137750000D02*
X148724998Y-137375002D01*
X148350000Y-139875000D02*
X148350000Y-137750000D01*
X148875000Y-140400000D02*
X148350000Y-139875000D01*
X163500000Y-98650000D02*
X165775004Y-100925004D01*
X164081372Y-130375004D02*
X150325000Y-130375004D01*
X165775004Y-128681372D02*
X164081372Y-130375004D01*
X165775004Y-100925004D02*
X165775004Y-128681372D01*
X150400000Y-137100000D02*
X149600000Y-137100000D01*
X166175006Y-98785006D02*
X166175006Y-128847058D01*
X166175006Y-128847058D02*
X164247058Y-130775006D01*
X164247058Y-130775006D02*
X150274994Y-130775006D01*
X150274994Y-130775006D02*
X149625000Y-131425000D01*
X166175006Y-98785006D02*
X163500000Y-96110000D01*
X149125000Y-131925000D02*
X149625000Y-131425000D01*
X149125000Y-136625000D02*
X149125000Y-131925000D01*
X149600000Y-137100000D02*
X149125000Y-136625000D01*
G36*
X141037220Y-79410142D02*
X141068774Y-79431225D01*
X141089859Y-79462781D01*
X141112590Y-79577060D01*
X141188710Y-79959743D01*
X141247689Y-80102133D01*
X141464462Y-80426557D01*
X141518953Y-80481047D01*
X141573443Y-80535538D01*
X141808779Y-80692784D01*
X141772502Y-80716128D01*
X141699436Y-80823063D01*
X141673731Y-80950000D01*
X141673731Y-82950000D01*
X141696044Y-83068585D01*
X141718704Y-83103800D01*
X141282209Y-83103800D01*
X141300564Y-83076937D01*
X141326269Y-82950000D01*
X141326269Y-80950000D01*
X141303956Y-80831415D01*
X141233872Y-80722502D01*
X141126937Y-80649436D01*
X141000000Y-80623731D01*
X140000000Y-80623731D01*
X139881415Y-80646044D01*
X139772502Y-80716128D01*
X139699436Y-80823063D01*
X139673731Y-80950000D01*
X139673731Y-82950000D01*
X139696044Y-83068585D01*
X139718704Y-83103800D01*
X139282209Y-83103800D01*
X139300564Y-83076937D01*
X139326269Y-82950000D01*
X139326269Y-80950000D01*
X139303956Y-80831415D01*
X139233872Y-80722502D01*
X139126937Y-80649436D01*
X139000000Y-80623731D01*
X138000000Y-80623731D01*
X137881415Y-80646044D01*
X137772502Y-80716128D01*
X137699436Y-80823063D01*
X137673731Y-80950000D01*
X137673731Y-82950000D01*
X137696044Y-83068585D01*
X137718704Y-83103800D01*
X137282209Y-83103800D01*
X137300564Y-83076937D01*
X137326269Y-82950000D01*
X137326269Y-80950000D01*
X137303956Y-80831415D01*
X137233872Y-80722502D01*
X137126937Y-80649436D01*
X137000000Y-80623731D01*
X136000000Y-80623731D01*
X135881415Y-80646044D01*
X135772502Y-80716128D01*
X135699436Y-80823063D01*
X135673731Y-80950000D01*
X135673731Y-82950000D01*
X135696044Y-83068585D01*
X135718704Y-83103800D01*
X135500000Y-83103800D01*
X135348381Y-83133959D01*
X135219844Y-83219844D01*
X135133959Y-83348381D01*
X135103800Y-83500000D01*
X135103800Y-126500000D01*
X135133959Y-126651619D01*
X135219844Y-126780156D01*
X135348381Y-126866041D01*
X135500000Y-126896200D01*
X135673731Y-126896200D01*
X135673731Y-128750000D01*
X135696044Y-128868585D01*
X135766128Y-128977498D01*
X135873063Y-129050564D01*
X136000000Y-129076269D01*
X137000000Y-129076269D01*
X137118585Y-129053956D01*
X137227498Y-128983872D01*
X137300564Y-128876937D01*
X137326269Y-128750000D01*
X137326269Y-126896200D01*
X137673731Y-126896200D01*
X137673731Y-128650000D01*
X137696044Y-128768585D01*
X137766128Y-128877498D01*
X137873063Y-128950564D01*
X138000000Y-128976269D01*
X139000000Y-128976269D01*
X139118585Y-128953956D01*
X139227498Y-128883872D01*
X139300564Y-128776937D01*
X139326269Y-128650000D01*
X139326269Y-126896200D01*
X139673731Y-126896200D01*
X139673731Y-128750000D01*
X139696044Y-128868585D01*
X139766128Y-128977498D01*
X139873063Y-129050564D01*
X140000000Y-129076269D01*
X141000000Y-129076269D01*
X141118585Y-129053956D01*
X141227498Y-128983872D01*
X141300564Y-128876937D01*
X141326269Y-128750000D01*
X141326269Y-126896200D01*
X141673731Y-126896200D01*
X141673731Y-128750000D01*
X141696044Y-128868585D01*
X141766128Y-128977498D01*
X141873063Y-129050564D01*
X142000000Y-129076269D01*
X143000000Y-129076269D01*
X143118585Y-129053956D01*
X143227498Y-128983872D01*
X143300564Y-128876937D01*
X143326269Y-128750000D01*
X143326269Y-126896200D01*
X143673731Y-126896200D01*
X143673731Y-128750000D01*
X143696044Y-128868585D01*
X143766128Y-128977498D01*
X143873063Y-129050564D01*
X144000000Y-129076269D01*
X145000000Y-129076269D01*
X145118585Y-129053956D01*
X145227498Y-128983872D01*
X145300564Y-128876937D01*
X145326269Y-128750000D01*
X145326269Y-126896200D01*
X145673731Y-126896200D01*
X145673731Y-128750000D01*
X145696044Y-128868585D01*
X145766128Y-128977498D01*
X145873063Y-129050564D01*
X146000000Y-129076269D01*
X147000000Y-129076269D01*
X147118585Y-129053956D01*
X147227498Y-128983872D01*
X147300564Y-128876937D01*
X147326269Y-128750000D01*
X147326269Y-126896200D01*
X147673731Y-126896200D01*
X147673731Y-128750000D01*
X147696044Y-128868585D01*
X147766128Y-128977498D01*
X147873063Y-129050564D01*
X148000000Y-129076269D01*
X149000000Y-129076269D01*
X149118585Y-129053956D01*
X149227498Y-128983872D01*
X149300564Y-128876937D01*
X149326269Y-128750000D01*
X149326269Y-126896200D01*
X149673731Y-126896200D01*
X149673731Y-128750000D01*
X149696044Y-128868585D01*
X149766128Y-128977498D01*
X149873063Y-129050564D01*
X150000000Y-129076269D01*
X151000000Y-129076269D01*
X151118585Y-129053956D01*
X151227498Y-128983872D01*
X151300564Y-128876937D01*
X151326269Y-128750000D01*
X151326269Y-126896200D01*
X151673731Y-126896200D01*
X151673731Y-128500000D01*
X151696044Y-128618585D01*
X151766128Y-128727498D01*
X151873063Y-128800564D01*
X152000000Y-128826269D01*
X153000000Y-128826269D01*
X153118585Y-128803956D01*
X153227498Y-128733872D01*
X153300564Y-128626937D01*
X153326269Y-128500000D01*
X153326269Y-126896200D01*
X153673731Y-126896200D01*
X153673731Y-128750000D01*
X153696044Y-128868585D01*
X153766128Y-128977498D01*
X153873063Y-129050564D01*
X154000000Y-129076269D01*
X155000000Y-129076269D01*
X155118585Y-129053956D01*
X155227498Y-128983872D01*
X155300564Y-128876937D01*
X155326269Y-128750000D01*
X155326269Y-126896200D01*
X155673731Y-126896200D01*
X155673731Y-128750000D01*
X155696044Y-128868585D01*
X155766128Y-128977498D01*
X155873063Y-129050564D01*
X156000000Y-129076269D01*
X157000000Y-129076269D01*
X157118585Y-129053956D01*
X157227498Y-128983872D01*
X157300564Y-128876937D01*
X157326269Y-128750000D01*
X157326269Y-126896200D01*
X157673731Y-126896200D01*
X157673731Y-128750000D01*
X157696044Y-128868585D01*
X157766128Y-128977498D01*
X157873063Y-129050564D01*
X158000000Y-129076269D01*
X159000000Y-129076269D01*
X159118585Y-129053956D01*
X159227498Y-128983872D01*
X159300564Y-128876937D01*
X159326269Y-128750000D01*
X159326269Y-126896200D01*
X159673731Y-126896200D01*
X159673731Y-128750000D01*
X159696044Y-128868585D01*
X159766128Y-128977498D01*
X159873063Y-129050564D01*
X160000000Y-129076269D01*
X161000000Y-129076269D01*
X161118585Y-129053956D01*
X161227498Y-128983872D01*
X161300564Y-128876937D01*
X161326269Y-128750000D01*
X161326269Y-126896200D01*
X161500000Y-126896200D01*
X161651619Y-126866041D01*
X161780156Y-126780156D01*
X161866041Y-126651619D01*
X161896200Y-126500000D01*
X161896200Y-93070000D01*
X162173731Y-93070000D01*
X162173731Y-94070000D01*
X162196044Y-94188585D01*
X162266128Y-94297498D01*
X162373063Y-94370564D01*
X162500000Y-94396269D01*
X164500000Y-94396269D01*
X164618585Y-94373956D01*
X164727498Y-94303872D01*
X164800564Y-94196937D01*
X164826269Y-94070000D01*
X164826269Y-93070000D01*
X164803956Y-92951415D01*
X164733872Y-92842502D01*
X164626937Y-92769436D01*
X164500000Y-92743731D01*
X162500000Y-92743731D01*
X162381415Y-92766044D01*
X162272502Y-92836128D01*
X162199436Y-92943063D01*
X162173731Y-93070000D01*
X161896200Y-93070000D01*
X161896200Y-90530000D01*
X162173731Y-90530000D01*
X162173731Y-91530000D01*
X162196044Y-91648585D01*
X162266128Y-91757498D01*
X162373063Y-91830564D01*
X162500000Y-91856269D01*
X164500000Y-91856269D01*
X164618585Y-91833956D01*
X164727498Y-91763872D01*
X164800564Y-91656937D01*
X164826269Y-91530000D01*
X164826269Y-90530000D01*
X164803956Y-90411415D01*
X164733872Y-90302502D01*
X164626937Y-90229436D01*
X164500000Y-90203731D01*
X162500000Y-90203731D01*
X162381415Y-90226044D01*
X162272502Y-90296128D01*
X162199436Y-90403063D01*
X162173731Y-90530000D01*
X161896200Y-90530000D01*
X161896200Y-87990000D01*
X162173731Y-87990000D01*
X162173731Y-88990000D01*
X162196044Y-89108585D01*
X162266128Y-89217498D01*
X162373063Y-89290564D01*
X162500000Y-89316269D01*
X164500000Y-89316269D01*
X164618585Y-89293956D01*
X164727498Y-89223872D01*
X164800564Y-89116937D01*
X164826269Y-88990000D01*
X164826269Y-87990000D01*
X164803956Y-87871415D01*
X164733872Y-87762502D01*
X164626937Y-87689436D01*
X164500000Y-87663731D01*
X162500000Y-87663731D01*
X162381415Y-87686044D01*
X162272502Y-87756128D01*
X162199436Y-87863063D01*
X162173731Y-87990000D01*
X161896200Y-87990000D01*
X161896200Y-85450000D01*
X162173731Y-85450000D01*
X162173731Y-86450000D01*
X162196044Y-86568585D01*
X162266128Y-86677498D01*
X162373063Y-86750564D01*
X162500000Y-86776269D01*
X164500000Y-86776269D01*
X164618585Y-86753956D01*
X164727498Y-86683872D01*
X164800564Y-86576937D01*
X164826269Y-86450000D01*
X164826269Y-85450000D01*
X164803956Y-85331415D01*
X164733872Y-85222502D01*
X164626937Y-85149436D01*
X164500000Y-85123731D01*
X162500000Y-85123731D01*
X162381415Y-85146044D01*
X162272502Y-85216128D01*
X162199436Y-85323063D01*
X162173731Y-85450000D01*
X161896200Y-85450000D01*
X161896200Y-83500000D01*
X161866041Y-83348381D01*
X161780156Y-83219844D01*
X161651619Y-83133959D01*
X161500000Y-83103800D01*
X161282209Y-83103800D01*
X161300564Y-83076937D01*
X161326269Y-82950000D01*
X161326269Y-80950000D01*
X161303956Y-80831415D01*
X161233872Y-80722502D01*
X161126937Y-80649436D01*
X161000000Y-80623731D01*
X160000000Y-80623731D01*
X159881415Y-80646044D01*
X159772502Y-80716128D01*
X159699436Y-80823063D01*
X159673731Y-80950000D01*
X159673731Y-82950000D01*
X159696044Y-83068585D01*
X159718704Y-83103800D01*
X159282209Y-83103800D01*
X159300564Y-83076937D01*
X159326269Y-82950000D01*
X159326269Y-80950000D01*
X159303956Y-80831415D01*
X159233872Y-80722502D01*
X159126937Y-80649436D01*
X159000000Y-80623731D01*
X158920000Y-80623731D01*
X158920000Y-80300000D01*
X158888029Y-80139273D01*
X158796985Y-80003015D01*
X158496985Y-79703015D01*
X158360727Y-79611971D01*
X158200000Y-79580000D01*
X158056781Y-79580000D01*
X157951661Y-79474696D01*
X157759733Y-79395000D01*
X165961098Y-79395000D01*
X166228561Y-79448201D01*
X166422327Y-79577671D01*
X166551799Y-79771440D01*
X166605000Y-80038902D01*
X166605000Y-146961098D01*
X166551799Y-147228560D01*
X166422327Y-147422329D01*
X166228561Y-147551799D01*
X165961098Y-147605000D01*
X145038902Y-147605000D01*
X144771440Y-147551799D01*
X144577671Y-147422327D01*
X144448201Y-147228561D01*
X144395000Y-146961098D01*
X144395000Y-145650000D01*
X154000000Y-145650000D01*
X154000000Y-146119891D01*
X154015224Y-146156645D01*
X154043354Y-146184776D01*
X154080109Y-146200000D01*
X154650000Y-146200000D01*
X154675000Y-146175000D01*
X154675000Y-145625000D01*
X154725000Y-145625000D01*
X154725000Y-146175000D01*
X154750000Y-146200000D01*
X155319891Y-146200000D01*
X155356646Y-146184776D01*
X155384776Y-146156645D01*
X155400000Y-146119891D01*
X155400000Y-145650000D01*
X160400000Y-145650000D01*
X160400000Y-146119891D01*
X160415224Y-146156645D01*
X160443354Y-146184776D01*
X160480109Y-146200000D01*
X160850000Y-146200000D01*
X160875000Y-146175000D01*
X160875000Y-145625000D01*
X160925000Y-145625000D01*
X160925000Y-146175000D01*
X160950000Y-146200000D01*
X161319891Y-146200000D01*
X161356646Y-146184776D01*
X161384776Y-146156645D01*
X161400000Y-146119891D01*
X161400000Y-145650000D01*
X163550000Y-145650000D01*
X163550000Y-146119891D01*
X163565224Y-146156645D01*
X163593354Y-146184776D01*
X163630109Y-146200000D01*
X165000000Y-146200000D01*
X165025000Y-146175000D01*
X165025000Y-145625000D01*
X165075000Y-145625000D01*
X165075000Y-146175000D01*
X165100000Y-146200000D01*
X166469891Y-146200000D01*
X166506646Y-146184776D01*
X166534776Y-146156645D01*
X166550000Y-146119891D01*
X166550000Y-145650000D01*
X166525000Y-145625000D01*
X165075000Y-145625000D01*
X165025000Y-145625000D01*
X163575000Y-145625000D01*
X163550000Y-145650000D01*
X161400000Y-145650000D01*
X161375000Y-145625000D01*
X160925000Y-145625000D01*
X160875000Y-145625000D01*
X160425000Y-145625000D01*
X160400000Y-145650000D01*
X155400000Y-145650000D01*
X155375000Y-145625000D01*
X154725000Y-145625000D01*
X154675000Y-145625000D01*
X154025000Y-145625000D01*
X154000000Y-145650000D01*
X144395000Y-145650000D01*
X144395000Y-144700000D01*
X149700000Y-144700000D01*
X149700000Y-145019891D01*
X149715224Y-145056645D01*
X149743354Y-145084776D01*
X149780109Y-145100000D01*
X150350000Y-145100000D01*
X150375000Y-145075000D01*
X150375000Y-144675000D01*
X150425000Y-144675000D01*
X150425000Y-145075000D01*
X150450000Y-145100000D01*
X151019891Y-145100000D01*
X151056646Y-145084776D01*
X151061312Y-145080109D01*
X154000000Y-145080109D01*
X154000000Y-145550000D01*
X154025000Y-145575000D01*
X154675000Y-145575000D01*
X154675000Y-145025000D01*
X154725000Y-145025000D01*
X154725000Y-145575000D01*
X155375000Y-145575000D01*
X155400000Y-145550000D01*
X155400000Y-145080109D01*
X160400000Y-145080109D01*
X160400000Y-145550000D01*
X160425000Y-145575000D01*
X160875000Y-145575000D01*
X160875000Y-145025000D01*
X160925000Y-145025000D01*
X160925000Y-145575000D01*
X161375000Y-145575000D01*
X161400000Y-145550000D01*
X161400000Y-145080109D01*
X163550000Y-145080109D01*
X163550000Y-145550000D01*
X163575000Y-145575000D01*
X165025000Y-145575000D01*
X165025000Y-145025000D01*
X165075000Y-145025000D01*
X165075000Y-145575000D01*
X166525000Y-145575000D01*
X166550000Y-145550000D01*
X166550000Y-145080109D01*
X166534776Y-145043355D01*
X166506646Y-145015224D01*
X166469891Y-145000000D01*
X165100000Y-145000000D01*
X165075000Y-145025000D01*
X165025000Y-145025000D01*
X165000000Y-145000000D01*
X163630109Y-145000000D01*
X163593354Y-145015224D01*
X163565224Y-145043355D01*
X163550000Y-145080109D01*
X161400000Y-145080109D01*
X161384776Y-145043355D01*
X161356646Y-145015224D01*
X161319891Y-145000000D01*
X160950000Y-145000000D01*
X160925000Y-145025000D01*
X160875000Y-145025000D01*
X160850000Y-145000000D01*
X160480109Y-145000000D01*
X160443354Y-145015224D01*
X160415224Y-145043355D01*
X160400000Y-145080109D01*
X155400000Y-145080109D01*
X155384776Y-145043355D01*
X155356646Y-145015224D01*
X155319891Y-145000000D01*
X154750000Y-145000000D01*
X154725000Y-145025000D01*
X154675000Y-145025000D01*
X154650000Y-145000000D01*
X154080109Y-145000000D01*
X154043354Y-145015224D01*
X154015224Y-145043355D01*
X154000000Y-145080109D01*
X151061312Y-145080109D01*
X151084776Y-145056645D01*
X151100000Y-145019891D01*
X151100000Y-144700000D01*
X151075000Y-144675000D01*
X150425000Y-144675000D01*
X150375000Y-144675000D01*
X149725000Y-144675000D01*
X149700000Y-144700000D01*
X144395000Y-144700000D01*
X144395000Y-131000000D01*
X146955000Y-131000000D01*
X146955000Y-141575000D01*
X146986971Y-141735727D01*
X147078015Y-141871985D01*
X148103015Y-142896985D01*
X148239273Y-142988029D01*
X148400000Y-143020000D01*
X149486902Y-143020000D01*
X149496044Y-143068585D01*
X149548882Y-143150697D01*
X149499436Y-143223063D01*
X149473731Y-143350000D01*
X149473731Y-144050000D01*
X149496044Y-144168585D01*
X149566128Y-144277498D01*
X149673063Y-144350564D01*
X149700000Y-144356019D01*
X149700000Y-144600000D01*
X149725000Y-144625000D01*
X150375000Y-144625000D01*
X150375000Y-144605000D01*
X150425000Y-144605000D01*
X150425000Y-144625000D01*
X151075000Y-144625000D01*
X151100000Y-144600000D01*
X151100000Y-144357453D01*
X151118585Y-144353956D01*
X151227498Y-144283872D01*
X151300564Y-144176937D01*
X151326269Y-144050000D01*
X151326269Y-143350000D01*
X151303956Y-143231415D01*
X151251118Y-143149303D01*
X151300564Y-143076937D01*
X151326269Y-142950000D01*
X151326269Y-142250000D01*
X151303956Y-142131415D01*
X151233872Y-142022502D01*
X151126937Y-141949436D01*
X151055955Y-141935062D01*
X151056646Y-141934776D01*
X151084776Y-141906645D01*
X151100000Y-141869891D01*
X151100000Y-141550000D01*
X151075000Y-141525000D01*
X150425000Y-141525000D01*
X150425000Y-141545000D01*
X150375000Y-141545000D01*
X150375000Y-141525000D01*
X149725000Y-141525000D01*
X149700000Y-141550000D01*
X149700000Y-141869891D01*
X149715224Y-141906645D01*
X149743029Y-141934451D01*
X149681415Y-141946044D01*
X149572502Y-142016128D01*
X149499436Y-142123063D01*
X149487906Y-142180000D01*
X148573970Y-142180000D01*
X147795000Y-141401030D01*
X147795000Y-134665441D01*
X147926133Y-134719893D01*
X148172785Y-134720108D01*
X148304998Y-134665478D01*
X148304998Y-137201032D01*
X148053015Y-137453015D01*
X147961971Y-137589273D01*
X147930000Y-137750000D01*
X147930000Y-139875000D01*
X147961971Y-140035727D01*
X148053015Y-140171985D01*
X148578015Y-140696985D01*
X148714273Y-140788029D01*
X148875000Y-140820000D01*
X149486902Y-140820000D01*
X149496044Y-140868585D01*
X149566128Y-140977498D01*
X149673063Y-141050564D01*
X149744045Y-141064938D01*
X149743354Y-141065224D01*
X149715224Y-141093355D01*
X149700000Y-141130109D01*
X149700000Y-141450000D01*
X149725000Y-141475000D01*
X150375000Y-141475000D01*
X150375000Y-141455000D01*
X150425000Y-141455000D01*
X150425000Y-141475000D01*
X151075000Y-141475000D01*
X151100000Y-141450000D01*
X151100000Y-141130109D01*
X151084776Y-141093355D01*
X151056971Y-141065549D01*
X151118585Y-141053956D01*
X151227498Y-140983872D01*
X151300564Y-140876937D01*
X151326269Y-140750000D01*
X151326269Y-140050000D01*
X151303956Y-139931415D01*
X151264436Y-139870000D01*
X151405978Y-139870000D01*
X151526133Y-139919893D01*
X151772785Y-139920108D01*
X152000743Y-139825917D01*
X152175304Y-139651661D01*
X152269893Y-139423867D01*
X152270108Y-139177215D01*
X152175917Y-138949257D01*
X152001661Y-138774696D01*
X151773867Y-138680107D01*
X151527215Y-138679892D01*
X151405945Y-138730000D01*
X151264307Y-138730000D01*
X151300564Y-138676937D01*
X151326269Y-138550000D01*
X151326269Y-137850000D01*
X151303956Y-137731415D01*
X151251118Y-137649303D01*
X151300564Y-137576937D01*
X151326269Y-137450000D01*
X151326269Y-136750000D01*
X151303956Y-136631415D01*
X151251118Y-136549303D01*
X151300564Y-136476937D01*
X151326269Y-136350000D01*
X151326269Y-135650000D01*
X151303956Y-135531415D01*
X151233872Y-135422502D01*
X151126937Y-135349436D01*
X151000000Y-135323731D01*
X149800000Y-135323731D01*
X149681415Y-135346044D01*
X149572502Y-135416128D01*
X149545000Y-135456378D01*
X149545000Y-135144664D01*
X149566128Y-135177498D01*
X149673063Y-135250564D01*
X149800000Y-135276269D01*
X151000000Y-135276269D01*
X151118585Y-135253956D01*
X151227498Y-135183872D01*
X151300564Y-135076937D01*
X151326269Y-134950000D01*
X151326269Y-133950000D01*
X151303956Y-133831415D01*
X151233872Y-133722502D01*
X151126937Y-133649436D01*
X151000000Y-133623731D01*
X149800000Y-133623731D01*
X149681415Y-133646044D01*
X149572502Y-133716128D01*
X149545000Y-133756378D01*
X149545000Y-133075000D01*
X166000000Y-133075000D01*
X166000000Y-133319891D01*
X166015224Y-133356645D01*
X166043354Y-133384776D01*
X166080109Y-133400000D01*
X166225000Y-133400000D01*
X166250000Y-133375000D01*
X166250000Y-133050000D01*
X166300000Y-133050000D01*
X166300000Y-133375000D01*
X166325000Y-133400000D01*
X166469891Y-133400000D01*
X166506646Y-133384776D01*
X166534776Y-133356645D01*
X166550000Y-133319891D01*
X166550000Y-133075000D01*
X166525000Y-133050000D01*
X166300000Y-133050000D01*
X166250000Y-133050000D01*
X166025000Y-133050000D01*
X166000000Y-133075000D01*
X149545000Y-133075000D01*
X149545000Y-132150000D01*
X164450000Y-132150000D01*
X164450000Y-132769891D01*
X164465224Y-132806645D01*
X164493354Y-132834776D01*
X164530109Y-132850000D01*
X165450000Y-132850000D01*
X165475000Y-132825000D01*
X165475000Y-132125000D01*
X165525000Y-132125000D01*
X165525000Y-132825000D01*
X165550000Y-132850000D01*
X166000000Y-132850000D01*
X166000000Y-132975000D01*
X166025000Y-133000000D01*
X166250000Y-133000000D01*
X166250000Y-132980000D01*
X166300000Y-132980000D01*
X166300000Y-133000000D01*
X166525000Y-133000000D01*
X166550000Y-132975000D01*
X166550000Y-132150000D01*
X166525000Y-132125000D01*
X165525000Y-132125000D01*
X165475000Y-132125000D01*
X164475000Y-132125000D01*
X164450000Y-132150000D01*
X149545000Y-132150000D01*
X149545000Y-132098970D01*
X150213861Y-131430109D01*
X164450000Y-131430109D01*
X164450000Y-132050000D01*
X164475000Y-132075000D01*
X165475000Y-132075000D01*
X165475000Y-131375000D01*
X165525000Y-131375000D01*
X165525000Y-132075000D01*
X166525000Y-132075000D01*
X166550000Y-132050000D01*
X166550000Y-131430109D01*
X166534776Y-131393355D01*
X166506646Y-131365224D01*
X166469891Y-131350000D01*
X165550000Y-131350000D01*
X165525000Y-131375000D01*
X165475000Y-131375000D01*
X165450000Y-131350000D01*
X164530109Y-131350000D01*
X164493354Y-131365224D01*
X164465224Y-131393355D01*
X164450000Y-131430109D01*
X150213861Y-131430109D01*
X150448964Y-131195006D01*
X164247058Y-131195006D01*
X164407785Y-131163035D01*
X164544043Y-131071991D01*
X166471991Y-129144043D01*
X166563035Y-129007785D01*
X166595006Y-128847058D01*
X166595006Y-98785006D01*
X166563035Y-98624279D01*
X166471991Y-98488021D01*
X164768230Y-96784260D01*
X164800564Y-96736937D01*
X164826269Y-96610000D01*
X164826269Y-95610000D01*
X164803956Y-95491415D01*
X164733872Y-95382502D01*
X164626937Y-95309436D01*
X164500000Y-95283731D01*
X162500000Y-95283731D01*
X162381415Y-95306044D01*
X162272502Y-95376128D01*
X162199436Y-95483063D01*
X162173731Y-95610000D01*
X162173731Y-96610000D01*
X162196044Y-96728585D01*
X162266128Y-96837498D01*
X162373063Y-96910564D01*
X162500000Y-96936269D01*
X163732299Y-96936269D01*
X164685439Y-97889409D01*
X164626937Y-97849436D01*
X164500000Y-97823731D01*
X162500000Y-97823731D01*
X162381415Y-97846044D01*
X162272502Y-97916128D01*
X162199436Y-98023063D01*
X162173731Y-98150000D01*
X162173731Y-99150000D01*
X162196044Y-99268585D01*
X162266128Y-99377498D01*
X162373063Y-99450564D01*
X162500000Y-99476269D01*
X163732299Y-99476269D01*
X164685439Y-100429409D01*
X164626937Y-100389436D01*
X164500000Y-100363731D01*
X162500000Y-100363731D01*
X162381415Y-100386044D01*
X162272502Y-100456128D01*
X162199436Y-100563063D01*
X162173731Y-100690000D01*
X162173731Y-101690000D01*
X162196044Y-101808585D01*
X162266128Y-101917498D01*
X162373063Y-101990564D01*
X162500000Y-102016269D01*
X163732299Y-102016269D01*
X164685439Y-102969409D01*
X164626937Y-102929436D01*
X164500000Y-102903731D01*
X162500000Y-102903731D01*
X162381415Y-102926044D01*
X162272502Y-102996128D01*
X162199436Y-103103063D01*
X162173731Y-103230000D01*
X162173731Y-104230000D01*
X162196044Y-104348585D01*
X162266128Y-104457498D01*
X162373063Y-104530564D01*
X162500000Y-104556269D01*
X163387299Y-104556269D01*
X164274761Y-105443731D01*
X162500000Y-105443731D01*
X162381415Y-105466044D01*
X162272502Y-105536128D01*
X162199436Y-105643063D01*
X162173731Y-105770000D01*
X162173731Y-106770000D01*
X162196044Y-106888585D01*
X162266128Y-106997498D01*
X162373063Y-107070564D01*
X162500000Y-107096269D01*
X164500000Y-107096269D01*
X164555000Y-107085920D01*
X164555000Y-107994869D01*
X164500000Y-107983731D01*
X162500000Y-107983731D01*
X162381415Y-108006044D01*
X162272502Y-108076128D01*
X162199436Y-108183063D01*
X162173731Y-108310000D01*
X162173731Y-109310000D01*
X162196044Y-109428585D01*
X162266128Y-109537498D01*
X162373063Y-109610564D01*
X162500000Y-109636269D01*
X164500000Y-109636269D01*
X164555000Y-109625920D01*
X164555000Y-110534869D01*
X164500000Y-110523731D01*
X162500000Y-110523731D01*
X162381415Y-110546044D01*
X162272502Y-110616128D01*
X162199436Y-110723063D01*
X162173731Y-110850000D01*
X162173731Y-111850000D01*
X162196044Y-111968585D01*
X162266128Y-112077498D01*
X162373063Y-112150564D01*
X162500000Y-112176269D01*
X164500000Y-112176269D01*
X164555000Y-112165920D01*
X164555000Y-113074869D01*
X164500000Y-113063731D01*
X162500000Y-113063731D01*
X162381415Y-113086044D01*
X162272502Y-113156128D01*
X162199436Y-113263063D01*
X162173731Y-113390000D01*
X162173731Y-114390000D01*
X162196044Y-114508585D01*
X162266128Y-114617498D01*
X162373063Y-114690564D01*
X162500000Y-114716269D01*
X164500000Y-114716269D01*
X164555000Y-114705920D01*
X164555000Y-115614869D01*
X164500000Y-115603731D01*
X162500000Y-115603731D01*
X162381415Y-115626044D01*
X162272502Y-115696128D01*
X162199436Y-115803063D01*
X162173731Y-115930000D01*
X162173731Y-116930000D01*
X162196044Y-117048585D01*
X162266128Y-117157498D01*
X162373063Y-117230564D01*
X162500000Y-117256269D01*
X164500000Y-117256269D01*
X164555000Y-117245920D01*
X164555000Y-118154869D01*
X164500000Y-118143731D01*
X162500000Y-118143731D01*
X162381415Y-118166044D01*
X162272502Y-118236128D01*
X162199436Y-118343063D01*
X162173731Y-118470000D01*
X162173731Y-119470000D01*
X162196044Y-119588585D01*
X162266128Y-119697498D01*
X162373063Y-119770564D01*
X162500000Y-119796269D01*
X164500000Y-119796269D01*
X164555000Y-119785920D01*
X164555000Y-120694869D01*
X164500000Y-120683731D01*
X162500000Y-120683731D01*
X162381415Y-120706044D01*
X162272502Y-120776128D01*
X162199436Y-120883063D01*
X162173731Y-121010000D01*
X162173731Y-122010000D01*
X162196044Y-122128585D01*
X162266128Y-122237498D01*
X162373063Y-122310564D01*
X162500000Y-122336269D01*
X164500000Y-122336269D01*
X164555000Y-122325920D01*
X164555000Y-123234869D01*
X164500000Y-123223731D01*
X162500000Y-123223731D01*
X162381415Y-123246044D01*
X162272502Y-123316128D01*
X162199436Y-123423063D01*
X162173731Y-123550000D01*
X162173731Y-124550000D01*
X162196044Y-124668585D01*
X162266128Y-124777498D01*
X162373063Y-124850564D01*
X162500000Y-124876269D01*
X164500000Y-124876269D01*
X164555000Y-124865920D01*
X164555000Y-128176030D01*
X163576030Y-129155000D01*
X148800000Y-129155000D01*
X148639273Y-129186971D01*
X148503015Y-129278015D01*
X147078015Y-130703015D01*
X146986971Y-130839273D01*
X146955000Y-131000000D01*
X144395000Y-131000000D01*
X144387410Y-130961843D01*
X144387410Y-130922940D01*
X144311290Y-130540257D01*
X144309416Y-130535731D01*
X144252310Y-130397867D01*
X144035538Y-130073443D01*
X143981047Y-130018953D01*
X143926557Y-129964462D01*
X143602133Y-129747689D01*
X143459743Y-129688710D01*
X143077060Y-129612590D01*
X143038157Y-129612590D01*
X143000000Y-129605000D01*
X128038903Y-129605000D01*
X127388755Y-129475677D01*
X126870565Y-129129435D01*
X126524323Y-128611245D01*
X126395000Y-127961096D01*
X126395000Y-124301902D01*
X126929814Y-124301902D01*
X127092369Y-124695315D01*
X127393102Y-124996573D01*
X127786230Y-125159814D01*
X128211902Y-125160186D01*
X128605315Y-124997631D01*
X128906573Y-124696898D01*
X128984180Y-124510000D01*
X132173731Y-124510000D01*
X132173731Y-124550000D01*
X132196044Y-124668585D01*
X132266128Y-124777498D01*
X132373063Y-124850564D01*
X132500000Y-124876269D01*
X134500000Y-124876269D01*
X134618585Y-124853956D01*
X134727498Y-124783872D01*
X134800564Y-124676937D01*
X134826269Y-124550000D01*
X134826269Y-123550000D01*
X134803956Y-123431415D01*
X134733872Y-123322502D01*
X134626937Y-123249436D01*
X134500000Y-123223731D01*
X132500000Y-123223731D01*
X132381415Y-123246044D01*
X132272502Y-123316128D01*
X132199436Y-123423063D01*
X132173731Y-123550000D01*
X132173731Y-123670000D01*
X128984202Y-123670000D01*
X128907631Y-123484685D01*
X128606898Y-123183427D01*
X128213770Y-123020186D01*
X127788098Y-123019814D01*
X127394685Y-123182369D01*
X127093427Y-123483102D01*
X126930186Y-123876230D01*
X126929814Y-124301902D01*
X126395000Y-124301902D01*
X126395000Y-121761902D01*
X126929814Y-121761902D01*
X127092369Y-122155315D01*
X127393102Y-122456573D01*
X127786230Y-122619814D01*
X128211902Y-122620186D01*
X128605315Y-122457631D01*
X128906573Y-122156898D01*
X128984180Y-121970000D01*
X132173731Y-121970000D01*
X132173731Y-122010000D01*
X132196044Y-122128585D01*
X132266128Y-122237498D01*
X132373063Y-122310564D01*
X132500000Y-122336269D01*
X134500000Y-122336269D01*
X134618585Y-122313956D01*
X134727498Y-122243872D01*
X134800564Y-122136937D01*
X134826269Y-122010000D01*
X134826269Y-121010000D01*
X134803956Y-120891415D01*
X134733872Y-120782502D01*
X134626937Y-120709436D01*
X134500000Y-120683731D01*
X132500000Y-120683731D01*
X132381415Y-120706044D01*
X132272502Y-120776128D01*
X132199436Y-120883063D01*
X132173731Y-121010000D01*
X132173731Y-121130000D01*
X128984202Y-121130000D01*
X128907631Y-120944685D01*
X128606898Y-120643427D01*
X128213770Y-120480186D01*
X127788098Y-120479814D01*
X127394685Y-120642369D01*
X127093427Y-120943102D01*
X126930186Y-121336230D01*
X126929814Y-121761902D01*
X126395000Y-121761902D01*
X126395000Y-119221902D01*
X126929814Y-119221902D01*
X127092369Y-119615315D01*
X127393102Y-119916573D01*
X127786230Y-120079814D01*
X128211902Y-120080186D01*
X128605315Y-119917631D01*
X128906573Y-119616898D01*
X128984180Y-119430000D01*
X132173731Y-119430000D01*
X132173731Y-119470000D01*
X132196044Y-119588585D01*
X132266128Y-119697498D01*
X132373063Y-119770564D01*
X132500000Y-119796269D01*
X134500000Y-119796269D01*
X134618585Y-119773956D01*
X134727498Y-119703872D01*
X134800564Y-119596937D01*
X134826269Y-119470000D01*
X134826269Y-118470000D01*
X134803956Y-118351415D01*
X134733872Y-118242502D01*
X134626937Y-118169436D01*
X134500000Y-118143731D01*
X132500000Y-118143731D01*
X132381415Y-118166044D01*
X132272502Y-118236128D01*
X132199436Y-118343063D01*
X132173731Y-118470000D01*
X132173731Y-118590000D01*
X128984202Y-118590000D01*
X128907631Y-118404685D01*
X128606898Y-118103427D01*
X128213770Y-117940186D01*
X127788098Y-117939814D01*
X127394685Y-118102369D01*
X127093427Y-118403102D01*
X126930186Y-118796230D01*
X126929814Y-119221902D01*
X126395000Y-119221902D01*
X126395000Y-116681902D01*
X126929814Y-116681902D01*
X127092369Y-117075315D01*
X127393102Y-117376573D01*
X127786230Y-117539814D01*
X128211902Y-117540186D01*
X128605315Y-117377631D01*
X128906573Y-117076898D01*
X128984180Y-116890000D01*
X132173731Y-116890000D01*
X132173731Y-116930000D01*
X132196044Y-117048585D01*
X132266128Y-117157498D01*
X132373063Y-117230564D01*
X132500000Y-117256269D01*
X134500000Y-117256269D01*
X134618585Y-117233956D01*
X134727498Y-117163872D01*
X134800564Y-117056937D01*
X134826269Y-116930000D01*
X134826269Y-115930000D01*
X134803956Y-115811415D01*
X134733872Y-115702502D01*
X134626937Y-115629436D01*
X134500000Y-115603731D01*
X132500000Y-115603731D01*
X132381415Y-115626044D01*
X132272502Y-115696128D01*
X132199436Y-115803063D01*
X132173731Y-115930000D01*
X132173731Y-116050000D01*
X128984202Y-116050000D01*
X128907631Y-115864685D01*
X128606898Y-115563427D01*
X128213770Y-115400186D01*
X127788098Y-115399814D01*
X127394685Y-115562369D01*
X127093427Y-115863102D01*
X126930186Y-116256230D01*
X126929814Y-116681902D01*
X126395000Y-116681902D01*
X126395000Y-114141902D01*
X126929814Y-114141902D01*
X127092369Y-114535315D01*
X127393102Y-114836573D01*
X127786230Y-114999814D01*
X128211902Y-115000186D01*
X128605315Y-114837631D01*
X128906573Y-114536898D01*
X128984180Y-114350000D01*
X132173731Y-114350000D01*
X132173731Y-114390000D01*
X132196044Y-114508585D01*
X132266128Y-114617498D01*
X132373063Y-114690564D01*
X132500000Y-114716269D01*
X134500000Y-114716269D01*
X134618585Y-114693956D01*
X134727498Y-114623872D01*
X134800564Y-114516937D01*
X134826269Y-114390000D01*
X134826269Y-113390000D01*
X134803956Y-113271415D01*
X134733872Y-113162502D01*
X134626937Y-113089436D01*
X134500000Y-113063731D01*
X132500000Y-113063731D01*
X132381415Y-113086044D01*
X132272502Y-113156128D01*
X132199436Y-113263063D01*
X132173731Y-113390000D01*
X132173731Y-113510000D01*
X128984202Y-113510000D01*
X128907631Y-113324685D01*
X128606898Y-113023427D01*
X128213770Y-112860186D01*
X127788098Y-112859814D01*
X127394685Y-113022369D01*
X127093427Y-113323102D01*
X126930186Y-113716230D01*
X126929814Y-114141902D01*
X126395000Y-114141902D01*
X126395000Y-111601902D01*
X126929814Y-111601902D01*
X127092369Y-111995315D01*
X127393102Y-112296573D01*
X127786230Y-112459814D01*
X128211902Y-112460186D01*
X128605315Y-112297631D01*
X128906573Y-111996898D01*
X128984180Y-111810000D01*
X132173731Y-111810000D01*
X132173731Y-111850000D01*
X132196044Y-111968585D01*
X132266128Y-112077498D01*
X132373063Y-112150564D01*
X132500000Y-112176269D01*
X134500000Y-112176269D01*
X134618585Y-112153956D01*
X134727498Y-112083872D01*
X134800564Y-111976937D01*
X134826269Y-111850000D01*
X134826269Y-110850000D01*
X134803956Y-110731415D01*
X134733872Y-110622502D01*
X134626937Y-110549436D01*
X134500000Y-110523731D01*
X132500000Y-110523731D01*
X132381415Y-110546044D01*
X132272502Y-110616128D01*
X132199436Y-110723063D01*
X132173731Y-110850000D01*
X132173731Y-110970000D01*
X128984202Y-110970000D01*
X128907631Y-110784685D01*
X128606898Y-110483427D01*
X128213770Y-110320186D01*
X127788098Y-110319814D01*
X127394685Y-110482369D01*
X127093427Y-110783102D01*
X126930186Y-111176230D01*
X126929814Y-111601902D01*
X126395000Y-111601902D01*
X126395000Y-109061902D01*
X126929814Y-109061902D01*
X127092369Y-109455315D01*
X127393102Y-109756573D01*
X127786230Y-109919814D01*
X128211902Y-109920186D01*
X128605315Y-109757631D01*
X128906573Y-109456898D01*
X128984180Y-109270000D01*
X132173731Y-109270000D01*
X132173731Y-109310000D01*
X132196044Y-109428585D01*
X132266128Y-109537498D01*
X132373063Y-109610564D01*
X132500000Y-109636269D01*
X134500000Y-109636269D01*
X134618585Y-109613956D01*
X134727498Y-109543872D01*
X134800564Y-109436937D01*
X134826269Y-109310000D01*
X134826269Y-108310000D01*
X134803956Y-108191415D01*
X134733872Y-108082502D01*
X134626937Y-108009436D01*
X134500000Y-107983731D01*
X132500000Y-107983731D01*
X132381415Y-108006044D01*
X132272502Y-108076128D01*
X132199436Y-108183063D01*
X132173731Y-108310000D01*
X132173731Y-108430000D01*
X128984202Y-108430000D01*
X128907631Y-108244685D01*
X128606898Y-107943427D01*
X128213770Y-107780186D01*
X127788098Y-107779814D01*
X127394685Y-107942369D01*
X127093427Y-108243102D01*
X126930186Y-108636230D01*
X126929814Y-109061902D01*
X126395000Y-109061902D01*
X126395000Y-106521902D01*
X126929814Y-106521902D01*
X127092369Y-106915315D01*
X127393102Y-107216573D01*
X127786230Y-107379814D01*
X128211902Y-107380186D01*
X128605315Y-107217631D01*
X128906573Y-106916898D01*
X128984180Y-106730000D01*
X132173731Y-106730000D01*
X132173731Y-106770000D01*
X132196044Y-106888585D01*
X132266128Y-106997498D01*
X132373063Y-107070564D01*
X132500000Y-107096269D01*
X134500000Y-107096269D01*
X134618585Y-107073956D01*
X134727498Y-107003872D01*
X134800564Y-106896937D01*
X134826269Y-106770000D01*
X134826269Y-105770000D01*
X134803956Y-105651415D01*
X134733872Y-105542502D01*
X134626937Y-105469436D01*
X134500000Y-105443731D01*
X132500000Y-105443731D01*
X132381415Y-105466044D01*
X132272502Y-105536128D01*
X132199436Y-105643063D01*
X132173731Y-105770000D01*
X132173731Y-105890000D01*
X128984202Y-105890000D01*
X128907631Y-105704685D01*
X128606898Y-105403427D01*
X128213770Y-105240186D01*
X127788098Y-105239814D01*
X127394685Y-105402369D01*
X127093427Y-105703102D01*
X126930186Y-106096230D01*
X126929814Y-106521902D01*
X126395000Y-106521902D01*
X126395000Y-103981902D01*
X126929814Y-103981902D01*
X127092369Y-104375315D01*
X127393102Y-104676573D01*
X127786230Y-104839814D01*
X128211902Y-104840186D01*
X128605315Y-104677631D01*
X128906573Y-104376898D01*
X129069814Y-103983770D01*
X129070186Y-103558098D01*
X128934619Y-103230000D01*
X132173731Y-103230000D01*
X132173731Y-104230000D01*
X132196044Y-104348585D01*
X132266128Y-104457498D01*
X132373063Y-104530564D01*
X132500000Y-104556269D01*
X134500000Y-104556269D01*
X134618585Y-104533956D01*
X134727498Y-104463872D01*
X134800564Y-104356937D01*
X134826269Y-104230000D01*
X134826269Y-103230000D01*
X134803956Y-103111415D01*
X134733872Y-103002502D01*
X134626937Y-102929436D01*
X134500000Y-102903731D01*
X132500000Y-102903731D01*
X132381415Y-102926044D01*
X132272502Y-102996128D01*
X132199436Y-103103063D01*
X132173731Y-103230000D01*
X128934619Y-103230000D01*
X128907631Y-103164685D01*
X128606898Y-102863427D01*
X128213770Y-102700186D01*
X127788098Y-102699814D01*
X127394685Y-102862369D01*
X127093427Y-103163102D01*
X126930186Y-103556230D01*
X126929814Y-103981902D01*
X126395000Y-103981902D01*
X126395000Y-101441902D01*
X126929814Y-101441902D01*
X127092369Y-101835315D01*
X127393102Y-102136573D01*
X127786230Y-102299814D01*
X128211902Y-102300186D01*
X128605315Y-102137631D01*
X128906573Y-101836898D01*
X129069814Y-101443770D01*
X129070186Y-101018098D01*
X128934619Y-100690000D01*
X132173731Y-100690000D01*
X132173731Y-101690000D01*
X132196044Y-101808585D01*
X132266128Y-101917498D01*
X132373063Y-101990564D01*
X132500000Y-102016269D01*
X134500000Y-102016269D01*
X134618585Y-101993956D01*
X134727498Y-101923872D01*
X134800564Y-101816937D01*
X134826269Y-101690000D01*
X134826269Y-100690000D01*
X134803956Y-100571415D01*
X134733872Y-100462502D01*
X134626937Y-100389436D01*
X134500000Y-100363731D01*
X132500000Y-100363731D01*
X132381415Y-100386044D01*
X132272502Y-100456128D01*
X132199436Y-100563063D01*
X132173731Y-100690000D01*
X128934619Y-100690000D01*
X128907631Y-100624685D01*
X128606898Y-100323427D01*
X128213770Y-100160186D01*
X127788098Y-100159814D01*
X127394685Y-100322369D01*
X127093427Y-100623102D01*
X126930186Y-101016230D01*
X126929814Y-101441902D01*
X126395000Y-101441902D01*
X126395000Y-99302553D01*
X127422802Y-99302553D01*
X127511032Y-99405539D01*
X127822078Y-99538192D01*
X128160210Y-99541715D01*
X128473952Y-99415573D01*
X128488968Y-99405539D01*
X128577198Y-99302553D01*
X128000000Y-98725355D01*
X127422802Y-99302553D01*
X126395000Y-99302553D01*
X126395000Y-98850210D01*
X127148285Y-98850210D01*
X127274427Y-99163952D01*
X127284461Y-99178968D01*
X127387447Y-99267198D01*
X127964645Y-98690000D01*
X128035355Y-98690000D01*
X128612553Y-99267198D01*
X128715539Y-99178968D01*
X128848192Y-98867922D01*
X128849941Y-98700000D01*
X132400000Y-98700000D01*
X132400000Y-99169891D01*
X132415224Y-99206646D01*
X132443355Y-99234776D01*
X132480109Y-99250000D01*
X133450000Y-99250000D01*
X133475000Y-99225000D01*
X133475000Y-98675000D01*
X133525000Y-98675000D01*
X133525000Y-99225000D01*
X133550000Y-99250000D01*
X134519891Y-99250000D01*
X134556645Y-99234776D01*
X134584776Y-99206646D01*
X134600000Y-99169891D01*
X134600000Y-98700000D01*
X134575000Y-98675000D01*
X133525000Y-98675000D01*
X133475000Y-98675000D01*
X132425000Y-98675000D01*
X132400000Y-98700000D01*
X128849941Y-98700000D01*
X128851715Y-98529790D01*
X128725573Y-98216048D01*
X128715539Y-98201032D01*
X128632755Y-98130109D01*
X132400000Y-98130109D01*
X132400000Y-98600000D01*
X132425000Y-98625000D01*
X133475000Y-98625000D01*
X133475000Y-98075000D01*
X133525000Y-98075000D01*
X133525000Y-98625000D01*
X134575000Y-98625000D01*
X134600000Y-98600000D01*
X134600000Y-98130109D01*
X134584776Y-98093354D01*
X134556645Y-98065224D01*
X134519891Y-98050000D01*
X133550000Y-98050000D01*
X133525000Y-98075000D01*
X133475000Y-98075000D01*
X133450000Y-98050000D01*
X132480109Y-98050000D01*
X132443355Y-98065224D01*
X132415224Y-98093354D01*
X132400000Y-98130109D01*
X128632755Y-98130109D01*
X128612553Y-98112802D01*
X128035355Y-98690000D01*
X127964645Y-98690000D01*
X127387447Y-98112802D01*
X127284461Y-98201032D01*
X127151808Y-98512078D01*
X127148285Y-98850210D01*
X126395000Y-98850210D01*
X126395000Y-98077447D01*
X127422802Y-98077447D01*
X128000000Y-98654645D01*
X128577198Y-98077447D01*
X128488968Y-97974461D01*
X128177922Y-97841808D01*
X127839790Y-97838285D01*
X127526048Y-97964427D01*
X127511032Y-97974461D01*
X127422802Y-98077447D01*
X126395000Y-98077447D01*
X126395000Y-96361902D01*
X126929814Y-96361902D01*
X127092369Y-96755315D01*
X127393102Y-97056573D01*
X127786230Y-97219814D01*
X128211902Y-97220186D01*
X128605315Y-97057631D01*
X128906573Y-96756898D01*
X129000789Y-96530000D01*
X132173731Y-96530000D01*
X132173731Y-96610000D01*
X132196044Y-96728585D01*
X132266128Y-96837498D01*
X132373063Y-96910564D01*
X132500000Y-96936269D01*
X134500000Y-96936269D01*
X134618585Y-96913956D01*
X134727498Y-96843872D01*
X134800564Y-96736937D01*
X134826269Y-96610000D01*
X134826269Y-95610000D01*
X134803956Y-95491415D01*
X134733872Y-95382502D01*
X134626937Y-95309436D01*
X134500000Y-95283731D01*
X132500000Y-95283731D01*
X132381415Y-95306044D01*
X132272502Y-95376128D01*
X132199436Y-95483063D01*
X132173731Y-95610000D01*
X132173731Y-95690000D01*
X128967674Y-95690000D01*
X128907631Y-95544685D01*
X128606898Y-95243427D01*
X128213770Y-95080186D01*
X127788098Y-95079814D01*
X127394685Y-95242369D01*
X127093427Y-95543102D01*
X126930186Y-95936230D01*
X126929814Y-96361902D01*
X126395000Y-96361902D01*
X126395000Y-93821902D01*
X126929814Y-93821902D01*
X127092369Y-94215315D01*
X127393102Y-94516573D01*
X127786230Y-94679814D01*
X128211902Y-94680186D01*
X128605315Y-94517631D01*
X128693099Y-94430000D01*
X133459995Y-94430000D01*
X133460000Y-94430001D01*
X133629579Y-94396269D01*
X134500000Y-94396269D01*
X134618585Y-94373956D01*
X134727498Y-94303872D01*
X134800564Y-94196937D01*
X134826269Y-94070000D01*
X134826269Y-93070000D01*
X134803956Y-92951415D01*
X134733872Y-92842502D01*
X134626937Y-92769436D01*
X134500000Y-92743731D01*
X132500000Y-92743731D01*
X132381415Y-92766044D01*
X132344187Y-92790000D01*
X128693320Y-92790000D01*
X128606898Y-92703427D01*
X128213770Y-92540186D01*
X127788098Y-92539814D01*
X127394685Y-92702369D01*
X127093427Y-93003102D01*
X126930186Y-93396230D01*
X126929814Y-93821902D01*
X126395000Y-93821902D01*
X126395000Y-91281902D01*
X126929814Y-91281902D01*
X127092369Y-91675315D01*
X127393102Y-91976573D01*
X127786230Y-92139814D01*
X128211902Y-92140186D01*
X128605315Y-91977631D01*
X128906573Y-91676898D01*
X129069814Y-91283770D01*
X129070186Y-90858098D01*
X128934619Y-90530000D01*
X132173731Y-90530000D01*
X132173731Y-91530000D01*
X132196044Y-91648585D01*
X132266128Y-91757498D01*
X132373063Y-91830564D01*
X132500000Y-91856269D01*
X134500000Y-91856269D01*
X134618585Y-91833956D01*
X134727498Y-91763872D01*
X134800564Y-91656937D01*
X134826269Y-91530000D01*
X134826269Y-90530000D01*
X134803956Y-90411415D01*
X134733872Y-90302502D01*
X134626937Y-90229436D01*
X134500000Y-90203731D01*
X132500000Y-90203731D01*
X132381415Y-90226044D01*
X132272502Y-90296128D01*
X132199436Y-90403063D01*
X132173731Y-90530000D01*
X128934619Y-90530000D01*
X128907631Y-90464685D01*
X128606898Y-90163427D01*
X128213770Y-90000186D01*
X127788098Y-89999814D01*
X127394685Y-90162369D01*
X127093427Y-90463102D01*
X126930186Y-90856230D01*
X126929814Y-91281902D01*
X126395000Y-91281902D01*
X126395000Y-88741902D01*
X126929814Y-88741902D01*
X127092369Y-89135315D01*
X127393102Y-89436573D01*
X127786230Y-89599814D01*
X128211902Y-89600186D01*
X128605315Y-89437631D01*
X128906573Y-89136898D01*
X129016242Y-88872785D01*
X130979892Y-88872785D01*
X131074083Y-89100743D01*
X131248339Y-89275304D01*
X131476133Y-89369893D01*
X131722785Y-89370108D01*
X131950743Y-89275917D01*
X132125304Y-89101661D01*
X132142603Y-89060000D01*
X132186902Y-89060000D01*
X132196044Y-89108585D01*
X132266128Y-89217498D01*
X132373063Y-89290564D01*
X132500000Y-89316269D01*
X134500000Y-89316269D01*
X134618585Y-89293956D01*
X134727498Y-89223872D01*
X134800564Y-89116937D01*
X134826269Y-88990000D01*
X134826269Y-87990000D01*
X134803956Y-87871415D01*
X134733872Y-87762502D01*
X134626937Y-87689436D01*
X134500000Y-87663731D01*
X132500000Y-87663731D01*
X132381415Y-87686044D01*
X132272502Y-87756128D01*
X132199436Y-87863063D01*
X132187906Y-87920000D01*
X131860005Y-87920000D01*
X131860000Y-87919999D01*
X131641871Y-87963388D01*
X131456949Y-88086949D01*
X131369498Y-88174400D01*
X131249257Y-88224083D01*
X131074696Y-88398339D01*
X130980107Y-88626133D01*
X130979892Y-88872785D01*
X129016242Y-88872785D01*
X129069814Y-88743770D01*
X129070186Y-88318098D01*
X128907631Y-87924685D01*
X128606898Y-87623427D01*
X128213770Y-87460186D01*
X127788098Y-87459814D01*
X127394685Y-87622369D01*
X127093427Y-87923102D01*
X126930186Y-88316230D01*
X126929814Y-88741902D01*
X126395000Y-88741902D01*
X126395000Y-86602553D01*
X127422802Y-86602553D01*
X127511032Y-86705539D01*
X127822078Y-86838192D01*
X128160210Y-86841715D01*
X128473952Y-86715573D01*
X128488968Y-86705539D01*
X128577198Y-86602553D01*
X128000000Y-86025355D01*
X127422802Y-86602553D01*
X126395000Y-86602553D01*
X126395000Y-86150210D01*
X127148285Y-86150210D01*
X127274427Y-86463952D01*
X127284461Y-86478968D01*
X127387447Y-86567198D01*
X127964645Y-85990000D01*
X128035355Y-85990000D01*
X128612553Y-86567198D01*
X128715539Y-86478968D01*
X128848192Y-86167922D01*
X128849941Y-86000000D01*
X132400000Y-86000000D01*
X132400000Y-86469891D01*
X132415224Y-86506646D01*
X132443355Y-86534776D01*
X132480109Y-86550000D01*
X133450000Y-86550000D01*
X133475000Y-86525000D01*
X133475000Y-85975000D01*
X133525000Y-85975000D01*
X133525000Y-86525000D01*
X133550000Y-86550000D01*
X134519891Y-86550000D01*
X134556645Y-86534776D01*
X134584776Y-86506646D01*
X134600000Y-86469891D01*
X134600000Y-86000000D01*
X134575000Y-85975000D01*
X133525000Y-85975000D01*
X133475000Y-85975000D01*
X132425000Y-85975000D01*
X132400000Y-86000000D01*
X128849941Y-86000000D01*
X128851715Y-85829790D01*
X128725573Y-85516048D01*
X128715539Y-85501032D01*
X128632755Y-85430109D01*
X132400000Y-85430109D01*
X132400000Y-85900000D01*
X132425000Y-85925000D01*
X133475000Y-85925000D01*
X133475000Y-85375000D01*
X133525000Y-85375000D01*
X133525000Y-85925000D01*
X134575000Y-85925000D01*
X134600000Y-85900000D01*
X134600000Y-85430109D01*
X134584776Y-85393354D01*
X134556645Y-85365224D01*
X134519891Y-85350000D01*
X133550000Y-85350000D01*
X133525000Y-85375000D01*
X133475000Y-85375000D01*
X133450000Y-85350000D01*
X132480109Y-85350000D01*
X132443355Y-85365224D01*
X132415224Y-85393354D01*
X132400000Y-85430109D01*
X128632755Y-85430109D01*
X128612553Y-85412802D01*
X128035355Y-85990000D01*
X127964645Y-85990000D01*
X127387447Y-85412802D01*
X127284461Y-85501032D01*
X127151808Y-85812078D01*
X127148285Y-86150210D01*
X126395000Y-86150210D01*
X126395000Y-85377447D01*
X127422802Y-85377447D01*
X128000000Y-85954645D01*
X128577198Y-85377447D01*
X128488968Y-85274461D01*
X128177922Y-85141808D01*
X127839790Y-85138285D01*
X127526048Y-85264427D01*
X127511032Y-85274461D01*
X127422802Y-85377447D01*
X126395000Y-85377447D01*
X126395000Y-83661902D01*
X126929814Y-83661902D01*
X127092369Y-84055315D01*
X127393102Y-84356573D01*
X127786230Y-84519814D01*
X128211902Y-84520186D01*
X128605315Y-84357631D01*
X128906573Y-84056898D01*
X129069814Y-83663770D01*
X129070186Y-83238098D01*
X128907631Y-82844685D01*
X128606898Y-82543427D01*
X128213770Y-82380186D01*
X127788098Y-82379814D01*
X127394685Y-82542369D01*
X127093427Y-82843102D01*
X126930186Y-83236230D01*
X126929814Y-83661902D01*
X126395000Y-83661902D01*
X126395000Y-81121902D01*
X126929814Y-81121902D01*
X127092369Y-81515315D01*
X127393102Y-81816573D01*
X127786230Y-81979814D01*
X128211902Y-81980186D01*
X128605315Y-81817631D01*
X128906573Y-81516898D01*
X129069814Y-81123770D01*
X129070186Y-80698098D01*
X128907631Y-80304685D01*
X128606898Y-80003427D01*
X128213770Y-79840186D01*
X127788098Y-79839814D01*
X127394685Y-80002369D01*
X127093427Y-80303102D01*
X126930186Y-80696230D01*
X126929814Y-81121902D01*
X126395000Y-81121902D01*
X126395000Y-81038904D01*
X126524323Y-80388755D01*
X126870565Y-79870565D01*
X127388755Y-79524323D01*
X128038903Y-79395000D01*
X140961098Y-79395000D01*
X141037220Y-79410142D01*
X141037220Y-79410142D01*
G37*
X141037220Y-79410142D02*
X141068774Y-79431225D01*
X141089859Y-79462781D01*
X141112590Y-79577060D01*
X141188710Y-79959743D01*
X141247689Y-80102133D01*
X141464462Y-80426557D01*
X141518953Y-80481047D01*
X141573443Y-80535538D01*
X141808779Y-80692784D01*
X141772502Y-80716128D01*
X141699436Y-80823063D01*
X141673731Y-80950000D01*
X141673731Y-82950000D01*
X141696044Y-83068585D01*
X141718704Y-83103800D01*
X141282209Y-83103800D01*
X141300564Y-83076937D01*
X141326269Y-82950000D01*
X141326269Y-80950000D01*
X141303956Y-80831415D01*
X141233872Y-80722502D01*
X141126937Y-80649436D01*
X141000000Y-80623731D01*
X140000000Y-80623731D01*
X139881415Y-80646044D01*
X139772502Y-80716128D01*
X139699436Y-80823063D01*
X139673731Y-80950000D01*
X139673731Y-82950000D01*
X139696044Y-83068585D01*
X139718704Y-83103800D01*
X139282209Y-83103800D01*
X139300564Y-83076937D01*
X139326269Y-82950000D01*
X139326269Y-80950000D01*
X139303956Y-80831415D01*
X139233872Y-80722502D01*
X139126937Y-80649436D01*
X139000000Y-80623731D01*
X138000000Y-80623731D01*
X137881415Y-80646044D01*
X137772502Y-80716128D01*
X137699436Y-80823063D01*
X137673731Y-80950000D01*
X137673731Y-82950000D01*
X137696044Y-83068585D01*
X137718704Y-83103800D01*
X137282209Y-83103800D01*
X137300564Y-83076937D01*
X137326269Y-82950000D01*
X137326269Y-80950000D01*
X137303956Y-80831415D01*
X137233872Y-80722502D01*
X137126937Y-80649436D01*
X137000000Y-80623731D01*
X136000000Y-80623731D01*
X135881415Y-80646044D01*
X135772502Y-80716128D01*
X135699436Y-80823063D01*
X135673731Y-80950000D01*
X135673731Y-82950000D01*
X135696044Y-83068585D01*
X135718704Y-83103800D01*
X135500000Y-83103800D01*
X135348381Y-83133959D01*
X135219844Y-83219844D01*
X135133959Y-83348381D01*
X135103800Y-83500000D01*
X135103800Y-126500000D01*
X135133959Y-126651619D01*
X135219844Y-126780156D01*
X135348381Y-126866041D01*
X135500000Y-126896200D01*
X135673731Y-126896200D01*
X135673731Y-128750000D01*
X135696044Y-128868585D01*
X135766128Y-128977498D01*
X135873063Y-129050564D01*
X136000000Y-129076269D01*
X137000000Y-129076269D01*
X137118585Y-129053956D01*
X137227498Y-128983872D01*
X137300564Y-128876937D01*
X137326269Y-128750000D01*
X137326269Y-126896200D01*
X137673731Y-126896200D01*
X137673731Y-128650000D01*
X137696044Y-128768585D01*
X137766128Y-128877498D01*
X137873063Y-128950564D01*
X138000000Y-128976269D01*
X139000000Y-128976269D01*
X139118585Y-128953956D01*
X139227498Y-128883872D01*
X139300564Y-128776937D01*
X139326269Y-128650000D01*
X139326269Y-126896200D01*
X139673731Y-126896200D01*
X139673731Y-128750000D01*
X139696044Y-128868585D01*
X139766128Y-128977498D01*
X139873063Y-129050564D01*
X140000000Y-129076269D01*
X141000000Y-129076269D01*
X141118585Y-129053956D01*
X141227498Y-128983872D01*
X141300564Y-128876937D01*
X141326269Y-128750000D01*
X141326269Y-126896200D01*
X141673731Y-126896200D01*
X141673731Y-128750000D01*
X141696044Y-128868585D01*
X141766128Y-128977498D01*
X141873063Y-129050564D01*
X142000000Y-129076269D01*
X143000000Y-129076269D01*
X143118585Y-129053956D01*
X143227498Y-128983872D01*
X143300564Y-128876937D01*
X143326269Y-128750000D01*
X143326269Y-126896200D01*
X143673731Y-126896200D01*
X143673731Y-128750000D01*
X143696044Y-128868585D01*
X143766128Y-128977498D01*
X143873063Y-129050564D01*
X144000000Y-129076269D01*
X145000000Y-129076269D01*
X145118585Y-129053956D01*
X145227498Y-128983872D01*
X145300564Y-128876937D01*
X145326269Y-128750000D01*
X145326269Y-126896200D01*
X145673731Y-126896200D01*
X145673731Y-128750000D01*
X145696044Y-128868585D01*
X145766128Y-128977498D01*
X145873063Y-129050564D01*
X146000000Y-129076269D01*
X147000000Y-129076269D01*
X147118585Y-129053956D01*
X147227498Y-128983872D01*
X147300564Y-128876937D01*
X147326269Y-128750000D01*
X147326269Y-126896200D01*
X147673731Y-126896200D01*
X147673731Y-128750000D01*
X147696044Y-128868585D01*
X147766128Y-128977498D01*
X147873063Y-129050564D01*
X148000000Y-129076269D01*
X149000000Y-129076269D01*
X149118585Y-129053956D01*
X149227498Y-128983872D01*
X149300564Y-128876937D01*
X149326269Y-128750000D01*
X149326269Y-126896200D01*
X149673731Y-126896200D01*
X149673731Y-128750000D01*
X149696044Y-128868585D01*
X149766128Y-128977498D01*
X149873063Y-129050564D01*
X150000000Y-129076269D01*
X151000000Y-129076269D01*
X151118585Y-129053956D01*
X151227498Y-128983872D01*
X151300564Y-128876937D01*
X151326269Y-128750000D01*
X151326269Y-126896200D01*
X151673731Y-126896200D01*
X151673731Y-128500000D01*
X151696044Y-128618585D01*
X151766128Y-128727498D01*
X151873063Y-128800564D01*
X152000000Y-128826269D01*
X153000000Y-128826269D01*
X153118585Y-128803956D01*
X153227498Y-128733872D01*
X153300564Y-128626937D01*
X153326269Y-128500000D01*
X153326269Y-126896200D01*
X153673731Y-126896200D01*
X153673731Y-128750000D01*
X153696044Y-128868585D01*
X153766128Y-128977498D01*
X153873063Y-129050564D01*
X154000000Y-129076269D01*
X155000000Y-129076269D01*
X155118585Y-129053956D01*
X155227498Y-128983872D01*
X155300564Y-128876937D01*
X155326269Y-128750000D01*
X155326269Y-126896200D01*
X155673731Y-126896200D01*
X155673731Y-128750000D01*
X155696044Y-128868585D01*
X155766128Y-128977498D01*
X155873063Y-129050564D01*
X156000000Y-129076269D01*
X157000000Y-129076269D01*
X157118585Y-129053956D01*
X157227498Y-128983872D01*
X157300564Y-128876937D01*
X157326269Y-128750000D01*
X157326269Y-126896200D01*
X157673731Y-126896200D01*
X157673731Y-128750000D01*
X157696044Y-128868585D01*
X157766128Y-128977498D01*
X157873063Y-129050564D01*
X158000000Y-129076269D01*
X159000000Y-129076269D01*
X159118585Y-129053956D01*
X159227498Y-128983872D01*
X159300564Y-128876937D01*
X159326269Y-128750000D01*
X159326269Y-126896200D01*
X159673731Y-126896200D01*
X159673731Y-128750000D01*
X159696044Y-128868585D01*
X159766128Y-128977498D01*
X159873063Y-129050564D01*
X160000000Y-129076269D01*
X161000000Y-129076269D01*
X161118585Y-129053956D01*
X161227498Y-128983872D01*
X161300564Y-128876937D01*
X161326269Y-128750000D01*
X161326269Y-126896200D01*
X161500000Y-126896200D01*
X161651619Y-126866041D01*
X161780156Y-126780156D01*
X161866041Y-126651619D01*
X161896200Y-126500000D01*
X161896200Y-93070000D01*
X162173731Y-93070000D01*
X162173731Y-94070000D01*
X162196044Y-94188585D01*
X162266128Y-94297498D01*
X162373063Y-94370564D01*
X162500000Y-94396269D01*
X164500000Y-94396269D01*
X164618585Y-94373956D01*
X164727498Y-94303872D01*
X164800564Y-94196937D01*
X164826269Y-94070000D01*
X164826269Y-93070000D01*
X164803956Y-92951415D01*
X164733872Y-92842502D01*
X164626937Y-92769436D01*
X164500000Y-92743731D01*
X162500000Y-92743731D01*
X162381415Y-92766044D01*
X162272502Y-92836128D01*
X162199436Y-92943063D01*
X162173731Y-93070000D01*
X161896200Y-93070000D01*
X161896200Y-90530000D01*
X162173731Y-90530000D01*
X162173731Y-91530000D01*
X162196044Y-91648585D01*
X162266128Y-91757498D01*
X162373063Y-91830564D01*
X162500000Y-91856269D01*
X164500000Y-91856269D01*
X164618585Y-91833956D01*
X164727498Y-91763872D01*
X164800564Y-91656937D01*
X164826269Y-91530000D01*
X164826269Y-90530000D01*
X164803956Y-90411415D01*
X164733872Y-90302502D01*
X164626937Y-90229436D01*
X164500000Y-90203731D01*
X162500000Y-90203731D01*
X162381415Y-90226044D01*
X162272502Y-90296128D01*
X162199436Y-90403063D01*
X162173731Y-90530000D01*
X161896200Y-90530000D01*
X161896200Y-87990000D01*
X162173731Y-87990000D01*
X162173731Y-88990000D01*
X162196044Y-89108585D01*
X162266128Y-89217498D01*
X162373063Y-89290564D01*
X162500000Y-89316269D01*
X164500000Y-89316269D01*
X164618585Y-89293956D01*
X164727498Y-89223872D01*
X164800564Y-89116937D01*
X164826269Y-88990000D01*
X164826269Y-87990000D01*
X164803956Y-87871415D01*
X164733872Y-87762502D01*
X164626937Y-87689436D01*
X164500000Y-87663731D01*
X162500000Y-87663731D01*
X162381415Y-87686044D01*
X162272502Y-87756128D01*
X162199436Y-87863063D01*
X162173731Y-87990000D01*
X161896200Y-87990000D01*
X161896200Y-85450000D01*
X162173731Y-85450000D01*
X162173731Y-86450000D01*
X162196044Y-86568585D01*
X162266128Y-86677498D01*
X162373063Y-86750564D01*
X162500000Y-86776269D01*
X164500000Y-86776269D01*
X164618585Y-86753956D01*
X164727498Y-86683872D01*
X164800564Y-86576937D01*
X164826269Y-86450000D01*
X164826269Y-85450000D01*
X164803956Y-85331415D01*
X164733872Y-85222502D01*
X164626937Y-85149436D01*
X164500000Y-85123731D01*
X162500000Y-85123731D01*
X162381415Y-85146044D01*
X162272502Y-85216128D01*
X162199436Y-85323063D01*
X162173731Y-85450000D01*
X161896200Y-85450000D01*
X161896200Y-83500000D01*
X161866041Y-83348381D01*
X161780156Y-83219844D01*
X161651619Y-83133959D01*
X161500000Y-83103800D01*
X161282209Y-83103800D01*
X161300564Y-83076937D01*
X161326269Y-82950000D01*
X161326269Y-80950000D01*
X161303956Y-80831415D01*
X161233872Y-80722502D01*
X161126937Y-80649436D01*
X161000000Y-80623731D01*
X160000000Y-80623731D01*
X159881415Y-80646044D01*
X159772502Y-80716128D01*
X159699436Y-80823063D01*
X159673731Y-80950000D01*
X159673731Y-82950000D01*
X159696044Y-83068585D01*
X159718704Y-83103800D01*
X159282209Y-83103800D01*
X159300564Y-83076937D01*
X159326269Y-82950000D01*
X159326269Y-80950000D01*
X159303956Y-80831415D01*
X159233872Y-80722502D01*
X159126937Y-80649436D01*
X159000000Y-80623731D01*
X158920000Y-80623731D01*
X158920000Y-80300000D01*
X158888029Y-80139273D01*
X158796985Y-80003015D01*
X158496985Y-79703015D01*
X158360727Y-79611971D01*
X158200000Y-79580000D01*
X158056781Y-79580000D01*
X157951661Y-79474696D01*
X157759733Y-79395000D01*
X165961098Y-79395000D01*
X166228561Y-79448201D01*
X166422327Y-79577671D01*
X166551799Y-79771440D01*
X166605000Y-80038902D01*
X166605000Y-146961098D01*
X166551799Y-147228560D01*
X166422327Y-147422329D01*
X166228561Y-147551799D01*
X165961098Y-147605000D01*
X145038902Y-147605000D01*
X144771440Y-147551799D01*
X144577671Y-147422327D01*
X144448201Y-147228561D01*
X144395000Y-146961098D01*
X144395000Y-145650000D01*
X154000000Y-145650000D01*
X154000000Y-146119891D01*
X154015224Y-146156645D01*
X154043354Y-146184776D01*
X154080109Y-146200000D01*
X154650000Y-146200000D01*
X154675000Y-146175000D01*
X154675000Y-145625000D01*
X154725000Y-145625000D01*
X154725000Y-146175000D01*
X154750000Y-146200000D01*
X155319891Y-146200000D01*
X155356646Y-146184776D01*
X155384776Y-146156645D01*
X155400000Y-146119891D01*
X155400000Y-145650000D01*
X160400000Y-145650000D01*
X160400000Y-146119891D01*
X160415224Y-146156645D01*
X160443354Y-146184776D01*
X160480109Y-146200000D01*
X160850000Y-146200000D01*
X160875000Y-146175000D01*
X160875000Y-145625000D01*
X160925000Y-145625000D01*
X160925000Y-146175000D01*
X160950000Y-146200000D01*
X161319891Y-146200000D01*
X161356646Y-146184776D01*
X161384776Y-146156645D01*
X161400000Y-146119891D01*
X161400000Y-145650000D01*
X163550000Y-145650000D01*
X163550000Y-146119891D01*
X163565224Y-146156645D01*
X163593354Y-146184776D01*
X163630109Y-146200000D01*
X165000000Y-146200000D01*
X165025000Y-146175000D01*
X165025000Y-145625000D01*
X165075000Y-145625000D01*
X165075000Y-146175000D01*
X165100000Y-146200000D01*
X166469891Y-146200000D01*
X166506646Y-146184776D01*
X166534776Y-146156645D01*
X166550000Y-146119891D01*
X166550000Y-145650000D01*
X166525000Y-145625000D01*
X165075000Y-145625000D01*
X165025000Y-145625000D01*
X163575000Y-145625000D01*
X163550000Y-145650000D01*
X161400000Y-145650000D01*
X161375000Y-145625000D01*
X160925000Y-145625000D01*
X160875000Y-145625000D01*
X160425000Y-145625000D01*
X160400000Y-145650000D01*
X155400000Y-145650000D01*
X155375000Y-145625000D01*
X154725000Y-145625000D01*
X154675000Y-145625000D01*
X154025000Y-145625000D01*
X154000000Y-145650000D01*
X144395000Y-145650000D01*
X144395000Y-144700000D01*
X149700000Y-144700000D01*
X149700000Y-145019891D01*
X149715224Y-145056645D01*
X149743354Y-145084776D01*
X149780109Y-145100000D01*
X150350000Y-145100000D01*
X150375000Y-145075000D01*
X150375000Y-144675000D01*
X150425000Y-144675000D01*
X150425000Y-145075000D01*
X150450000Y-145100000D01*
X151019891Y-145100000D01*
X151056646Y-145084776D01*
X151061312Y-145080109D01*
X154000000Y-145080109D01*
X154000000Y-145550000D01*
X154025000Y-145575000D01*
X154675000Y-145575000D01*
X154675000Y-145025000D01*
X154725000Y-145025000D01*
X154725000Y-145575000D01*
X155375000Y-145575000D01*
X155400000Y-145550000D01*
X155400000Y-145080109D01*
X160400000Y-145080109D01*
X160400000Y-145550000D01*
X160425000Y-145575000D01*
X160875000Y-145575000D01*
X160875000Y-145025000D01*
X160925000Y-145025000D01*
X160925000Y-145575000D01*
X161375000Y-145575000D01*
X161400000Y-145550000D01*
X161400000Y-145080109D01*
X163550000Y-145080109D01*
X163550000Y-145550000D01*
X163575000Y-145575000D01*
X165025000Y-145575000D01*
X165025000Y-145025000D01*
X165075000Y-145025000D01*
X165075000Y-145575000D01*
X166525000Y-145575000D01*
X166550000Y-145550000D01*
X166550000Y-145080109D01*
X166534776Y-145043355D01*
X166506646Y-145015224D01*
X166469891Y-145000000D01*
X165100000Y-145000000D01*
X165075000Y-145025000D01*
X165025000Y-145025000D01*
X165000000Y-145000000D01*
X163630109Y-145000000D01*
X163593354Y-145015224D01*
X163565224Y-145043355D01*
X163550000Y-145080109D01*
X161400000Y-145080109D01*
X161384776Y-145043355D01*
X161356646Y-145015224D01*
X161319891Y-145000000D01*
X160950000Y-145000000D01*
X160925000Y-145025000D01*
X160875000Y-145025000D01*
X160850000Y-145000000D01*
X160480109Y-145000000D01*
X160443354Y-145015224D01*
X160415224Y-145043355D01*
X160400000Y-145080109D01*
X155400000Y-145080109D01*
X155384776Y-145043355D01*
X155356646Y-145015224D01*
X155319891Y-145000000D01*
X154750000Y-145000000D01*
X154725000Y-145025000D01*
X154675000Y-145025000D01*
X154650000Y-145000000D01*
X154080109Y-145000000D01*
X154043354Y-145015224D01*
X154015224Y-145043355D01*
X154000000Y-145080109D01*
X151061312Y-145080109D01*
X151084776Y-145056645D01*
X151100000Y-145019891D01*
X151100000Y-144700000D01*
X151075000Y-144675000D01*
X150425000Y-144675000D01*
X150375000Y-144675000D01*
X149725000Y-144675000D01*
X149700000Y-144700000D01*
X144395000Y-144700000D01*
X144395000Y-131000000D01*
X146955000Y-131000000D01*
X146955000Y-141575000D01*
X146986971Y-141735727D01*
X147078015Y-141871985D01*
X148103015Y-142896985D01*
X148239273Y-142988029D01*
X148400000Y-143020000D01*
X149486902Y-143020000D01*
X149496044Y-143068585D01*
X149548882Y-143150697D01*
X149499436Y-143223063D01*
X149473731Y-143350000D01*
X149473731Y-144050000D01*
X149496044Y-144168585D01*
X149566128Y-144277498D01*
X149673063Y-144350564D01*
X149700000Y-144356019D01*
X149700000Y-144600000D01*
X149725000Y-144625000D01*
X150375000Y-144625000D01*
X150375000Y-144605000D01*
X150425000Y-144605000D01*
X150425000Y-144625000D01*
X151075000Y-144625000D01*
X151100000Y-144600000D01*
X151100000Y-144357453D01*
X151118585Y-144353956D01*
X151227498Y-144283872D01*
X151300564Y-144176937D01*
X151326269Y-144050000D01*
X151326269Y-143350000D01*
X151303956Y-143231415D01*
X151251118Y-143149303D01*
X151300564Y-143076937D01*
X151326269Y-142950000D01*
X151326269Y-142250000D01*
X151303956Y-142131415D01*
X151233872Y-142022502D01*
X151126937Y-141949436D01*
X151055955Y-141935062D01*
X151056646Y-141934776D01*
X151084776Y-141906645D01*
X151100000Y-141869891D01*
X151100000Y-141550000D01*
X151075000Y-141525000D01*
X150425000Y-141525000D01*
X150425000Y-141545000D01*
X150375000Y-141545000D01*
X150375000Y-141525000D01*
X149725000Y-141525000D01*
X149700000Y-141550000D01*
X149700000Y-141869891D01*
X149715224Y-141906645D01*
X149743029Y-141934451D01*
X149681415Y-141946044D01*
X149572502Y-142016128D01*
X149499436Y-142123063D01*
X149487906Y-142180000D01*
X148573970Y-142180000D01*
X147795000Y-141401030D01*
X147795000Y-134665441D01*
X147926133Y-134719893D01*
X148172785Y-134720108D01*
X148304998Y-134665478D01*
X148304998Y-137201032D01*
X148053015Y-137453015D01*
X147961971Y-137589273D01*
X147930000Y-137750000D01*
X147930000Y-139875000D01*
X147961971Y-140035727D01*
X148053015Y-140171985D01*
X148578015Y-140696985D01*
X148714273Y-140788029D01*
X148875000Y-140820000D01*
X149486902Y-140820000D01*
X149496044Y-140868585D01*
X149566128Y-140977498D01*
X149673063Y-141050564D01*
X149744045Y-141064938D01*
X149743354Y-141065224D01*
X149715224Y-141093355D01*
X149700000Y-141130109D01*
X149700000Y-141450000D01*
X149725000Y-141475000D01*
X150375000Y-141475000D01*
X150375000Y-141455000D01*
X150425000Y-141455000D01*
X150425000Y-141475000D01*
X151075000Y-141475000D01*
X151100000Y-141450000D01*
X151100000Y-141130109D01*
X151084776Y-141093355D01*
X151056971Y-141065549D01*
X151118585Y-141053956D01*
X151227498Y-140983872D01*
X151300564Y-140876937D01*
X151326269Y-140750000D01*
X151326269Y-140050000D01*
X151303956Y-139931415D01*
X151264436Y-139870000D01*
X151405978Y-139870000D01*
X151526133Y-139919893D01*
X151772785Y-139920108D01*
X152000743Y-139825917D01*
X152175304Y-139651661D01*
X152269893Y-139423867D01*
X152270108Y-139177215D01*
X152175917Y-138949257D01*
X152001661Y-138774696D01*
X151773867Y-138680107D01*
X151527215Y-138679892D01*
X151405945Y-138730000D01*
X151264307Y-138730000D01*
X151300564Y-138676937D01*
X151326269Y-138550000D01*
X151326269Y-137850000D01*
X151303956Y-137731415D01*
X151251118Y-137649303D01*
X151300564Y-137576937D01*
X151326269Y-137450000D01*
X151326269Y-136750000D01*
X151303956Y-136631415D01*
X151251118Y-136549303D01*
X151300564Y-136476937D01*
X151326269Y-136350000D01*
X151326269Y-135650000D01*
X151303956Y-135531415D01*
X151233872Y-135422502D01*
X151126937Y-135349436D01*
X151000000Y-135323731D01*
X149800000Y-135323731D01*
X149681415Y-135346044D01*
X149572502Y-135416128D01*
X149545000Y-135456378D01*
X149545000Y-135144664D01*
X149566128Y-135177498D01*
X149673063Y-135250564D01*
X149800000Y-135276269D01*
X151000000Y-135276269D01*
X151118585Y-135253956D01*
X151227498Y-135183872D01*
X151300564Y-135076937D01*
X151326269Y-134950000D01*
X151326269Y-133950000D01*
X151303956Y-133831415D01*
X151233872Y-133722502D01*
X151126937Y-133649436D01*
X151000000Y-133623731D01*
X149800000Y-133623731D01*
X149681415Y-133646044D01*
X149572502Y-133716128D01*
X149545000Y-133756378D01*
X149545000Y-133075000D01*
X166000000Y-133075000D01*
X166000000Y-133319891D01*
X166015224Y-133356645D01*
X166043354Y-133384776D01*
X166080109Y-133400000D01*
X166225000Y-133400000D01*
X166250000Y-133375000D01*
X166250000Y-133050000D01*
X166300000Y-133050000D01*
X166300000Y-133375000D01*
X166325000Y-133400000D01*
X166469891Y-133400000D01*
X166506646Y-133384776D01*
X166534776Y-133356645D01*
X166550000Y-133319891D01*
X166550000Y-133075000D01*
X166525000Y-133050000D01*
X166300000Y-133050000D01*
X166250000Y-133050000D01*
X166025000Y-133050000D01*
X166000000Y-133075000D01*
X149545000Y-133075000D01*
X149545000Y-132150000D01*
X164450000Y-132150000D01*
X164450000Y-132769891D01*
X164465224Y-132806645D01*
X164493354Y-132834776D01*
X164530109Y-132850000D01*
X165450000Y-132850000D01*
X165475000Y-132825000D01*
X165475000Y-132125000D01*
X165525000Y-132125000D01*
X165525000Y-132825000D01*
X165550000Y-132850000D01*
X166000000Y-132850000D01*
X166000000Y-132975000D01*
X166025000Y-133000000D01*
X166250000Y-133000000D01*
X166250000Y-132980000D01*
X166300000Y-132980000D01*
X166300000Y-133000000D01*
X166525000Y-133000000D01*
X166550000Y-132975000D01*
X166550000Y-132150000D01*
X166525000Y-132125000D01*
X165525000Y-132125000D01*
X165475000Y-132125000D01*
X164475000Y-132125000D01*
X164450000Y-132150000D01*
X149545000Y-132150000D01*
X149545000Y-132098970D01*
X150213861Y-131430109D01*
X164450000Y-131430109D01*
X164450000Y-132050000D01*
X164475000Y-132075000D01*
X165475000Y-132075000D01*
X165475000Y-131375000D01*
X165525000Y-131375000D01*
X165525000Y-132075000D01*
X166525000Y-132075000D01*
X166550000Y-132050000D01*
X166550000Y-131430109D01*
X166534776Y-131393355D01*
X166506646Y-131365224D01*
X166469891Y-131350000D01*
X165550000Y-131350000D01*
X165525000Y-131375000D01*
X165475000Y-131375000D01*
X165450000Y-131350000D01*
X164530109Y-131350000D01*
X164493354Y-131365224D01*
X164465224Y-131393355D01*
X164450000Y-131430109D01*
X150213861Y-131430109D01*
X150448964Y-131195006D01*
X164247058Y-131195006D01*
X164407785Y-131163035D01*
X164544043Y-131071991D01*
X166471991Y-129144043D01*
X166563035Y-129007785D01*
X166595006Y-128847058D01*
X166595006Y-98785006D01*
X166563035Y-98624279D01*
X166471991Y-98488021D01*
X164768230Y-96784260D01*
X164800564Y-96736937D01*
X164826269Y-96610000D01*
X164826269Y-95610000D01*
X164803956Y-95491415D01*
X164733872Y-95382502D01*
X164626937Y-95309436D01*
X164500000Y-95283731D01*
X162500000Y-95283731D01*
X162381415Y-95306044D01*
X162272502Y-95376128D01*
X162199436Y-95483063D01*
X162173731Y-95610000D01*
X162173731Y-96610000D01*
X162196044Y-96728585D01*
X162266128Y-96837498D01*
X162373063Y-96910564D01*
X162500000Y-96936269D01*
X163732299Y-96936269D01*
X164685439Y-97889409D01*
X164626937Y-97849436D01*
X164500000Y-97823731D01*
X162500000Y-97823731D01*
X162381415Y-97846044D01*
X162272502Y-97916128D01*
X162199436Y-98023063D01*
X162173731Y-98150000D01*
X162173731Y-99150000D01*
X162196044Y-99268585D01*
X162266128Y-99377498D01*
X162373063Y-99450564D01*
X162500000Y-99476269D01*
X163732299Y-99476269D01*
X164685439Y-100429409D01*
X164626937Y-100389436D01*
X164500000Y-100363731D01*
X162500000Y-100363731D01*
X162381415Y-100386044D01*
X162272502Y-100456128D01*
X162199436Y-100563063D01*
X162173731Y-100690000D01*
X162173731Y-101690000D01*
X162196044Y-101808585D01*
X162266128Y-101917498D01*
X162373063Y-101990564D01*
X162500000Y-102016269D01*
X163732299Y-102016269D01*
X164685439Y-102969409D01*
X164626937Y-102929436D01*
X164500000Y-102903731D01*
X162500000Y-102903731D01*
X162381415Y-102926044D01*
X162272502Y-102996128D01*
X162199436Y-103103063D01*
X162173731Y-103230000D01*
X162173731Y-104230000D01*
X162196044Y-104348585D01*
X162266128Y-104457498D01*
X162373063Y-104530564D01*
X162500000Y-104556269D01*
X163387299Y-104556269D01*
X164274761Y-105443731D01*
X162500000Y-105443731D01*
X162381415Y-105466044D01*
X162272502Y-105536128D01*
X162199436Y-105643063D01*
X162173731Y-105770000D01*
X162173731Y-106770000D01*
X162196044Y-106888585D01*
X162266128Y-106997498D01*
X162373063Y-107070564D01*
X162500000Y-107096269D01*
X164500000Y-107096269D01*
X164555000Y-107085920D01*
X164555000Y-107994869D01*
X164500000Y-107983731D01*
X162500000Y-107983731D01*
X162381415Y-108006044D01*
X162272502Y-108076128D01*
X162199436Y-108183063D01*
X162173731Y-108310000D01*
X162173731Y-109310000D01*
X162196044Y-109428585D01*
X162266128Y-109537498D01*
X162373063Y-109610564D01*
X162500000Y-109636269D01*
X164500000Y-109636269D01*
X164555000Y-109625920D01*
X164555000Y-110534869D01*
X164500000Y-110523731D01*
X162500000Y-110523731D01*
X162381415Y-110546044D01*
X162272502Y-110616128D01*
X162199436Y-110723063D01*
X162173731Y-110850000D01*
X162173731Y-111850000D01*
X162196044Y-111968585D01*
X162266128Y-112077498D01*
X162373063Y-112150564D01*
X162500000Y-112176269D01*
X164500000Y-112176269D01*
X164555000Y-112165920D01*
X164555000Y-113074869D01*
X164500000Y-113063731D01*
X162500000Y-113063731D01*
X162381415Y-113086044D01*
X162272502Y-113156128D01*
X162199436Y-113263063D01*
X162173731Y-113390000D01*
X162173731Y-114390000D01*
X162196044Y-114508585D01*
X162266128Y-114617498D01*
X162373063Y-114690564D01*
X162500000Y-114716269D01*
X164500000Y-114716269D01*
X164555000Y-114705920D01*
X164555000Y-115614869D01*
X164500000Y-115603731D01*
X162500000Y-115603731D01*
X162381415Y-115626044D01*
X162272502Y-115696128D01*
X162199436Y-115803063D01*
X162173731Y-115930000D01*
X162173731Y-116930000D01*
X162196044Y-117048585D01*
X162266128Y-117157498D01*
X162373063Y-117230564D01*
X162500000Y-117256269D01*
X164500000Y-117256269D01*
X164555000Y-117245920D01*
X164555000Y-118154869D01*
X164500000Y-118143731D01*
X162500000Y-118143731D01*
X162381415Y-118166044D01*
X162272502Y-118236128D01*
X162199436Y-118343063D01*
X162173731Y-118470000D01*
X162173731Y-119470000D01*
X162196044Y-119588585D01*
X162266128Y-119697498D01*
X162373063Y-119770564D01*
X162500000Y-119796269D01*
X164500000Y-119796269D01*
X164555000Y-119785920D01*
X164555000Y-120694869D01*
X164500000Y-120683731D01*
X162500000Y-120683731D01*
X162381415Y-120706044D01*
X162272502Y-120776128D01*
X162199436Y-120883063D01*
X162173731Y-121010000D01*
X162173731Y-122010000D01*
X162196044Y-122128585D01*
X162266128Y-122237498D01*
X162373063Y-122310564D01*
X162500000Y-122336269D01*
X164500000Y-122336269D01*
X164555000Y-122325920D01*
X164555000Y-123234869D01*
X164500000Y-123223731D01*
X162500000Y-123223731D01*
X162381415Y-123246044D01*
X162272502Y-123316128D01*
X162199436Y-123423063D01*
X162173731Y-123550000D01*
X162173731Y-124550000D01*
X162196044Y-124668585D01*
X162266128Y-124777498D01*
X162373063Y-124850564D01*
X162500000Y-124876269D01*
X164500000Y-124876269D01*
X164555000Y-124865920D01*
X164555000Y-128176030D01*
X163576030Y-129155000D01*
X148800000Y-129155000D01*
X148639273Y-129186971D01*
X148503015Y-129278015D01*
X147078015Y-130703015D01*
X146986971Y-130839273D01*
X146955000Y-131000000D01*
X144395000Y-131000000D01*
X144387410Y-130961843D01*
X144387410Y-130922940D01*
X144311290Y-130540257D01*
X144309416Y-130535731D01*
X144252310Y-130397867D01*
X144035538Y-130073443D01*
X143981047Y-130018953D01*
X143926557Y-129964462D01*
X143602133Y-129747689D01*
X143459743Y-129688710D01*
X143077060Y-129612590D01*
X143038157Y-129612590D01*
X143000000Y-129605000D01*
X128038903Y-129605000D01*
X127388755Y-129475677D01*
X126870565Y-129129435D01*
X126524323Y-128611245D01*
X126395000Y-127961096D01*
X126395000Y-124301902D01*
X126929814Y-124301902D01*
X127092369Y-124695315D01*
X127393102Y-124996573D01*
X127786230Y-125159814D01*
X128211902Y-125160186D01*
X128605315Y-124997631D01*
X128906573Y-124696898D01*
X128984180Y-124510000D01*
X132173731Y-124510000D01*
X132173731Y-124550000D01*
X132196044Y-124668585D01*
X132266128Y-124777498D01*
X132373063Y-124850564D01*
X132500000Y-124876269D01*
X134500000Y-124876269D01*
X134618585Y-124853956D01*
X134727498Y-124783872D01*
X134800564Y-124676937D01*
X134826269Y-124550000D01*
X134826269Y-123550000D01*
X134803956Y-123431415D01*
X134733872Y-123322502D01*
X134626937Y-123249436D01*
X134500000Y-123223731D01*
X132500000Y-123223731D01*
X132381415Y-123246044D01*
X132272502Y-123316128D01*
X132199436Y-123423063D01*
X132173731Y-123550000D01*
X132173731Y-123670000D01*
X128984202Y-123670000D01*
X128907631Y-123484685D01*
X128606898Y-123183427D01*
X128213770Y-123020186D01*
X127788098Y-123019814D01*
X127394685Y-123182369D01*
X127093427Y-123483102D01*
X126930186Y-123876230D01*
X126929814Y-124301902D01*
X126395000Y-124301902D01*
X126395000Y-121761902D01*
X126929814Y-121761902D01*
X127092369Y-122155315D01*
X127393102Y-122456573D01*
X127786230Y-122619814D01*
X128211902Y-122620186D01*
X128605315Y-122457631D01*
X128906573Y-122156898D01*
X128984180Y-121970000D01*
X132173731Y-121970000D01*
X132173731Y-122010000D01*
X132196044Y-122128585D01*
X132266128Y-122237498D01*
X132373063Y-122310564D01*
X132500000Y-122336269D01*
X134500000Y-122336269D01*
X134618585Y-122313956D01*
X134727498Y-122243872D01*
X134800564Y-122136937D01*
X134826269Y-122010000D01*
X134826269Y-121010000D01*
X134803956Y-120891415D01*
X134733872Y-120782502D01*
X134626937Y-120709436D01*
X134500000Y-120683731D01*
X132500000Y-120683731D01*
X132381415Y-120706044D01*
X132272502Y-120776128D01*
X132199436Y-120883063D01*
X132173731Y-121010000D01*
X132173731Y-121130000D01*
X128984202Y-121130000D01*
X128907631Y-120944685D01*
X128606898Y-120643427D01*
X128213770Y-120480186D01*
X127788098Y-120479814D01*
X127394685Y-120642369D01*
X127093427Y-120943102D01*
X126930186Y-121336230D01*
X126929814Y-121761902D01*
X126395000Y-121761902D01*
X126395000Y-119221902D01*
X126929814Y-119221902D01*
X127092369Y-119615315D01*
X127393102Y-119916573D01*
X127786230Y-120079814D01*
X128211902Y-120080186D01*
X128605315Y-119917631D01*
X128906573Y-119616898D01*
X128984180Y-119430000D01*
X132173731Y-119430000D01*
X132173731Y-119470000D01*
X132196044Y-119588585D01*
X132266128Y-119697498D01*
X132373063Y-119770564D01*
X132500000Y-119796269D01*
X134500000Y-119796269D01*
X134618585Y-119773956D01*
X134727498Y-119703872D01*
X134800564Y-119596937D01*
X134826269Y-119470000D01*
X134826269Y-118470000D01*
X134803956Y-118351415D01*
X134733872Y-118242502D01*
X134626937Y-118169436D01*
X134500000Y-118143731D01*
X132500000Y-118143731D01*
X132381415Y-118166044D01*
X132272502Y-118236128D01*
X132199436Y-118343063D01*
X132173731Y-118470000D01*
X132173731Y-118590000D01*
X128984202Y-118590000D01*
X128907631Y-118404685D01*
X128606898Y-118103427D01*
X128213770Y-117940186D01*
X127788098Y-117939814D01*
X127394685Y-118102369D01*
X127093427Y-118403102D01*
X126930186Y-118796230D01*
X126929814Y-119221902D01*
X126395000Y-119221902D01*
X126395000Y-116681902D01*
X126929814Y-116681902D01*
X127092369Y-117075315D01*
X127393102Y-117376573D01*
X127786230Y-117539814D01*
X128211902Y-117540186D01*
X128605315Y-117377631D01*
X128906573Y-117076898D01*
X128984180Y-116890000D01*
X132173731Y-116890000D01*
X132173731Y-116930000D01*
X132196044Y-117048585D01*
X132266128Y-117157498D01*
X132373063Y-117230564D01*
X132500000Y-117256269D01*
X134500000Y-117256269D01*
X134618585Y-117233956D01*
X134727498Y-117163872D01*
X134800564Y-117056937D01*
X134826269Y-116930000D01*
X134826269Y-115930000D01*
X134803956Y-115811415D01*
X134733872Y-115702502D01*
X134626937Y-115629436D01*
X134500000Y-115603731D01*
X132500000Y-115603731D01*
X132381415Y-115626044D01*
X132272502Y-115696128D01*
X132199436Y-115803063D01*
X132173731Y-115930000D01*
X132173731Y-116050000D01*
X128984202Y-116050000D01*
X128907631Y-115864685D01*
X128606898Y-115563427D01*
X128213770Y-115400186D01*
X127788098Y-115399814D01*
X127394685Y-115562369D01*
X127093427Y-115863102D01*
X126930186Y-116256230D01*
X126929814Y-116681902D01*
X126395000Y-116681902D01*
X126395000Y-114141902D01*
X126929814Y-114141902D01*
X127092369Y-114535315D01*
X127393102Y-114836573D01*
X127786230Y-114999814D01*
X128211902Y-115000186D01*
X128605315Y-114837631D01*
X128906573Y-114536898D01*
X128984180Y-114350000D01*
X132173731Y-114350000D01*
X132173731Y-114390000D01*
X132196044Y-114508585D01*
X132266128Y-114617498D01*
X132373063Y-114690564D01*
X132500000Y-114716269D01*
X134500000Y-114716269D01*
X134618585Y-114693956D01*
X134727498Y-114623872D01*
X134800564Y-114516937D01*
X134826269Y-114390000D01*
X134826269Y-113390000D01*
X134803956Y-113271415D01*
X134733872Y-113162502D01*
X134626937Y-113089436D01*
X134500000Y-113063731D01*
X132500000Y-113063731D01*
X132381415Y-113086044D01*
X132272502Y-113156128D01*
X132199436Y-113263063D01*
X132173731Y-113390000D01*
X132173731Y-113510000D01*
X128984202Y-113510000D01*
X128907631Y-113324685D01*
X128606898Y-113023427D01*
X128213770Y-112860186D01*
X127788098Y-112859814D01*
X127394685Y-113022369D01*
X127093427Y-113323102D01*
X126930186Y-113716230D01*
X126929814Y-114141902D01*
X126395000Y-114141902D01*
X126395000Y-111601902D01*
X126929814Y-111601902D01*
X127092369Y-111995315D01*
X127393102Y-112296573D01*
X127786230Y-112459814D01*
X128211902Y-112460186D01*
X128605315Y-112297631D01*
X128906573Y-111996898D01*
X128984180Y-111810000D01*
X132173731Y-111810000D01*
X132173731Y-111850000D01*
X132196044Y-111968585D01*
X132266128Y-112077498D01*
X132373063Y-112150564D01*
X132500000Y-112176269D01*
X134500000Y-112176269D01*
X134618585Y-112153956D01*
X134727498Y-112083872D01*
X134800564Y-111976937D01*
X134826269Y-111850000D01*
X134826269Y-110850000D01*
X134803956Y-110731415D01*
X134733872Y-110622502D01*
X134626937Y-110549436D01*
X134500000Y-110523731D01*
X132500000Y-110523731D01*
X132381415Y-110546044D01*
X132272502Y-110616128D01*
X132199436Y-110723063D01*
X132173731Y-110850000D01*
X132173731Y-110970000D01*
X128984202Y-110970000D01*
X128907631Y-110784685D01*
X128606898Y-110483427D01*
X128213770Y-110320186D01*
X127788098Y-110319814D01*
X127394685Y-110482369D01*
X127093427Y-110783102D01*
X126930186Y-111176230D01*
X126929814Y-111601902D01*
X126395000Y-111601902D01*
X126395000Y-109061902D01*
X126929814Y-109061902D01*
X127092369Y-109455315D01*
X127393102Y-109756573D01*
X127786230Y-109919814D01*
X128211902Y-109920186D01*
X128605315Y-109757631D01*
X128906573Y-109456898D01*
X128984180Y-109270000D01*
X132173731Y-109270000D01*
X132173731Y-109310000D01*
X132196044Y-109428585D01*
X132266128Y-109537498D01*
X132373063Y-109610564D01*
X132500000Y-109636269D01*
X134500000Y-109636269D01*
X134618585Y-109613956D01*
X134727498Y-109543872D01*
X134800564Y-109436937D01*
X134826269Y-109310000D01*
X134826269Y-108310000D01*
X134803956Y-108191415D01*
X134733872Y-108082502D01*
X134626937Y-108009436D01*
X134500000Y-107983731D01*
X132500000Y-107983731D01*
X132381415Y-108006044D01*
X132272502Y-108076128D01*
X132199436Y-108183063D01*
X132173731Y-108310000D01*
X132173731Y-108430000D01*
X128984202Y-108430000D01*
X128907631Y-108244685D01*
X128606898Y-107943427D01*
X128213770Y-107780186D01*
X127788098Y-107779814D01*
X127394685Y-107942369D01*
X127093427Y-108243102D01*
X126930186Y-108636230D01*
X126929814Y-109061902D01*
X126395000Y-109061902D01*
X126395000Y-106521902D01*
X126929814Y-106521902D01*
X127092369Y-106915315D01*
X127393102Y-107216573D01*
X127786230Y-107379814D01*
X128211902Y-107380186D01*
X128605315Y-107217631D01*
X128906573Y-106916898D01*
X128984180Y-106730000D01*
X132173731Y-106730000D01*
X132173731Y-106770000D01*
X132196044Y-106888585D01*
X132266128Y-106997498D01*
X132373063Y-107070564D01*
X132500000Y-107096269D01*
X134500000Y-107096269D01*
X134618585Y-107073956D01*
X134727498Y-107003872D01*
X134800564Y-106896937D01*
X134826269Y-106770000D01*
X134826269Y-105770000D01*
X134803956Y-105651415D01*
X134733872Y-105542502D01*
X134626937Y-105469436D01*
X134500000Y-105443731D01*
X132500000Y-105443731D01*
X132381415Y-105466044D01*
X132272502Y-105536128D01*
X132199436Y-105643063D01*
X132173731Y-105770000D01*
X132173731Y-105890000D01*
X128984202Y-105890000D01*
X128907631Y-105704685D01*
X128606898Y-105403427D01*
X128213770Y-105240186D01*
X127788098Y-105239814D01*
X127394685Y-105402369D01*
X127093427Y-105703102D01*
X126930186Y-106096230D01*
X126929814Y-106521902D01*
X126395000Y-106521902D01*
X126395000Y-103981902D01*
X126929814Y-103981902D01*
X127092369Y-104375315D01*
X127393102Y-104676573D01*
X127786230Y-104839814D01*
X128211902Y-104840186D01*
X128605315Y-104677631D01*
X128906573Y-104376898D01*
X129069814Y-103983770D01*
X129070186Y-103558098D01*
X128934619Y-103230000D01*
X132173731Y-103230000D01*
X132173731Y-104230000D01*
X132196044Y-104348585D01*
X132266128Y-104457498D01*
X132373063Y-104530564D01*
X132500000Y-104556269D01*
X134500000Y-104556269D01*
X134618585Y-104533956D01*
X134727498Y-104463872D01*
X134800564Y-104356937D01*
X134826269Y-104230000D01*
X134826269Y-103230000D01*
X134803956Y-103111415D01*
X134733872Y-103002502D01*
X134626937Y-102929436D01*
X134500000Y-102903731D01*
X132500000Y-102903731D01*
X132381415Y-102926044D01*
X132272502Y-102996128D01*
X132199436Y-103103063D01*
X132173731Y-103230000D01*
X128934619Y-103230000D01*
X128907631Y-103164685D01*
X128606898Y-102863427D01*
X128213770Y-102700186D01*
X127788098Y-102699814D01*
X127394685Y-102862369D01*
X127093427Y-103163102D01*
X126930186Y-103556230D01*
X126929814Y-103981902D01*
X126395000Y-103981902D01*
X126395000Y-101441902D01*
X126929814Y-101441902D01*
X127092369Y-101835315D01*
X127393102Y-102136573D01*
X127786230Y-102299814D01*
X128211902Y-102300186D01*
X128605315Y-102137631D01*
X128906573Y-101836898D01*
X129069814Y-101443770D01*
X129070186Y-101018098D01*
X128934619Y-100690000D01*
X132173731Y-100690000D01*
X132173731Y-101690000D01*
X132196044Y-101808585D01*
X132266128Y-101917498D01*
X132373063Y-101990564D01*
X132500000Y-102016269D01*
X134500000Y-102016269D01*
X134618585Y-101993956D01*
X134727498Y-101923872D01*
X134800564Y-101816937D01*
X134826269Y-101690000D01*
X134826269Y-100690000D01*
X134803956Y-100571415D01*
X134733872Y-100462502D01*
X134626937Y-100389436D01*
X134500000Y-100363731D01*
X132500000Y-100363731D01*
X132381415Y-100386044D01*
X132272502Y-100456128D01*
X132199436Y-100563063D01*
X132173731Y-100690000D01*
X128934619Y-100690000D01*
X128907631Y-100624685D01*
X128606898Y-100323427D01*
X128213770Y-100160186D01*
X127788098Y-100159814D01*
X127394685Y-100322369D01*
X127093427Y-100623102D01*
X126930186Y-101016230D01*
X126929814Y-101441902D01*
X126395000Y-101441902D01*
X126395000Y-99302553D01*
X127422802Y-99302553D01*
X127511032Y-99405539D01*
X127822078Y-99538192D01*
X128160210Y-99541715D01*
X128473952Y-99415573D01*
X128488968Y-99405539D01*
X128577198Y-99302553D01*
X128000000Y-98725355D01*
X127422802Y-99302553D01*
X126395000Y-99302553D01*
X126395000Y-98850210D01*
X127148285Y-98850210D01*
X127274427Y-99163952D01*
X127284461Y-99178968D01*
X127387447Y-99267198D01*
X127964645Y-98690000D01*
X128035355Y-98690000D01*
X128612553Y-99267198D01*
X128715539Y-99178968D01*
X128848192Y-98867922D01*
X128849941Y-98700000D01*
X132400000Y-98700000D01*
X132400000Y-99169891D01*
X132415224Y-99206646D01*
X132443355Y-99234776D01*
X132480109Y-99250000D01*
X133450000Y-99250000D01*
X133475000Y-99225000D01*
X133475000Y-98675000D01*
X133525000Y-98675000D01*
X133525000Y-99225000D01*
X133550000Y-99250000D01*
X134519891Y-99250000D01*
X134556645Y-99234776D01*
X134584776Y-99206646D01*
X134600000Y-99169891D01*
X134600000Y-98700000D01*
X134575000Y-98675000D01*
X133525000Y-98675000D01*
X133475000Y-98675000D01*
X132425000Y-98675000D01*
X132400000Y-98700000D01*
X128849941Y-98700000D01*
X128851715Y-98529790D01*
X128725573Y-98216048D01*
X128715539Y-98201032D01*
X128632755Y-98130109D01*
X132400000Y-98130109D01*
X132400000Y-98600000D01*
X132425000Y-98625000D01*
X133475000Y-98625000D01*
X133475000Y-98075000D01*
X133525000Y-98075000D01*
X133525000Y-98625000D01*
X134575000Y-98625000D01*
X134600000Y-98600000D01*
X134600000Y-98130109D01*
X134584776Y-98093354D01*
X134556645Y-98065224D01*
X134519891Y-98050000D01*
X133550000Y-98050000D01*
X133525000Y-98075000D01*
X133475000Y-98075000D01*
X133450000Y-98050000D01*
X132480109Y-98050000D01*
X132443355Y-98065224D01*
X132415224Y-98093354D01*
X132400000Y-98130109D01*
X128632755Y-98130109D01*
X128612553Y-98112802D01*
X128035355Y-98690000D01*
X127964645Y-98690000D01*
X127387447Y-98112802D01*
X127284461Y-98201032D01*
X127151808Y-98512078D01*
X127148285Y-98850210D01*
X126395000Y-98850210D01*
X126395000Y-98077447D01*
X127422802Y-98077447D01*
X128000000Y-98654645D01*
X128577198Y-98077447D01*
X128488968Y-97974461D01*
X128177922Y-97841808D01*
X127839790Y-97838285D01*
X127526048Y-97964427D01*
X127511032Y-97974461D01*
X127422802Y-98077447D01*
X126395000Y-98077447D01*
X126395000Y-96361902D01*
X126929814Y-96361902D01*
X127092369Y-96755315D01*
X127393102Y-97056573D01*
X127786230Y-97219814D01*
X128211902Y-97220186D01*
X128605315Y-97057631D01*
X128906573Y-96756898D01*
X129000789Y-96530000D01*
X132173731Y-96530000D01*
X132173731Y-96610000D01*
X132196044Y-96728585D01*
X132266128Y-96837498D01*
X132373063Y-96910564D01*
X132500000Y-96936269D01*
X134500000Y-96936269D01*
X134618585Y-96913956D01*
X134727498Y-96843872D01*
X134800564Y-96736937D01*
X134826269Y-96610000D01*
X134826269Y-95610000D01*
X134803956Y-95491415D01*
X134733872Y-95382502D01*
X134626937Y-95309436D01*
X134500000Y-95283731D01*
X132500000Y-95283731D01*
X132381415Y-95306044D01*
X132272502Y-95376128D01*
X132199436Y-95483063D01*
X132173731Y-95610000D01*
X132173731Y-95690000D01*
X128967674Y-95690000D01*
X128907631Y-95544685D01*
X128606898Y-95243427D01*
X128213770Y-95080186D01*
X127788098Y-95079814D01*
X127394685Y-95242369D01*
X127093427Y-95543102D01*
X126930186Y-95936230D01*
X126929814Y-96361902D01*
X126395000Y-96361902D01*
X126395000Y-93821902D01*
X126929814Y-93821902D01*
X127092369Y-94215315D01*
X127393102Y-94516573D01*
X127786230Y-94679814D01*
X128211902Y-94680186D01*
X128605315Y-94517631D01*
X128693099Y-94430000D01*
X133459995Y-94430000D01*
X133460000Y-94430001D01*
X133629579Y-94396269D01*
X134500000Y-94396269D01*
X134618585Y-94373956D01*
X134727498Y-94303872D01*
X134800564Y-94196937D01*
X134826269Y-94070000D01*
X134826269Y-93070000D01*
X134803956Y-92951415D01*
X134733872Y-92842502D01*
X134626937Y-92769436D01*
X134500000Y-92743731D01*
X132500000Y-92743731D01*
X132381415Y-92766044D01*
X132344187Y-92790000D01*
X128693320Y-92790000D01*
X128606898Y-92703427D01*
X128213770Y-92540186D01*
X127788098Y-92539814D01*
X127394685Y-92702369D01*
X127093427Y-93003102D01*
X126930186Y-93396230D01*
X126929814Y-93821902D01*
X126395000Y-93821902D01*
X126395000Y-91281902D01*
X126929814Y-91281902D01*
X127092369Y-91675315D01*
X127393102Y-91976573D01*
X127786230Y-92139814D01*
X128211902Y-92140186D01*
X128605315Y-91977631D01*
X128906573Y-91676898D01*
X129069814Y-91283770D01*
X129070186Y-90858098D01*
X128934619Y-90530000D01*
X132173731Y-90530000D01*
X132173731Y-91530000D01*
X132196044Y-91648585D01*
X132266128Y-91757498D01*
X132373063Y-91830564D01*
X132500000Y-91856269D01*
X134500000Y-91856269D01*
X134618585Y-91833956D01*
X134727498Y-91763872D01*
X134800564Y-91656937D01*
X134826269Y-91530000D01*
X134826269Y-90530000D01*
X134803956Y-90411415D01*
X134733872Y-90302502D01*
X134626937Y-90229436D01*
X134500000Y-90203731D01*
X132500000Y-90203731D01*
X132381415Y-90226044D01*
X132272502Y-90296128D01*
X132199436Y-90403063D01*
X132173731Y-90530000D01*
X128934619Y-90530000D01*
X128907631Y-90464685D01*
X128606898Y-90163427D01*
X128213770Y-90000186D01*
X127788098Y-89999814D01*
X127394685Y-90162369D01*
X127093427Y-90463102D01*
X126930186Y-90856230D01*
X126929814Y-91281902D01*
X126395000Y-91281902D01*
X126395000Y-88741902D01*
X126929814Y-88741902D01*
X127092369Y-89135315D01*
X127393102Y-89436573D01*
X127786230Y-89599814D01*
X128211902Y-89600186D01*
X128605315Y-89437631D01*
X128906573Y-89136898D01*
X129016242Y-88872785D01*
X130979892Y-88872785D01*
X131074083Y-89100743D01*
X131248339Y-89275304D01*
X131476133Y-89369893D01*
X131722785Y-89370108D01*
X131950743Y-89275917D01*
X132125304Y-89101661D01*
X132142603Y-89060000D01*
X132186902Y-89060000D01*
X132196044Y-89108585D01*
X132266128Y-89217498D01*
X132373063Y-89290564D01*
X132500000Y-89316269D01*
X134500000Y-89316269D01*
X134618585Y-89293956D01*
X134727498Y-89223872D01*
X134800564Y-89116937D01*
X134826269Y-88990000D01*
X134826269Y-87990000D01*
X134803956Y-87871415D01*
X134733872Y-87762502D01*
X134626937Y-87689436D01*
X134500000Y-87663731D01*
X132500000Y-87663731D01*
X132381415Y-87686044D01*
X132272502Y-87756128D01*
X132199436Y-87863063D01*
X132187906Y-87920000D01*
X131860005Y-87920000D01*
X131860000Y-87919999D01*
X131641871Y-87963388D01*
X131456949Y-88086949D01*
X131369498Y-88174400D01*
X131249257Y-88224083D01*
X131074696Y-88398339D01*
X130980107Y-88626133D01*
X130979892Y-88872785D01*
X129016242Y-88872785D01*
X129069814Y-88743770D01*
X129070186Y-88318098D01*
X128907631Y-87924685D01*
X128606898Y-87623427D01*
X128213770Y-87460186D01*
X127788098Y-87459814D01*
X127394685Y-87622369D01*
X127093427Y-87923102D01*
X126930186Y-88316230D01*
X126929814Y-88741902D01*
X126395000Y-88741902D01*
X126395000Y-86602553D01*
X127422802Y-86602553D01*
X127511032Y-86705539D01*
X127822078Y-86838192D01*
X128160210Y-86841715D01*
X128473952Y-86715573D01*
X128488968Y-86705539D01*
X128577198Y-86602553D01*
X128000000Y-86025355D01*
X127422802Y-86602553D01*
X126395000Y-86602553D01*
X126395000Y-86150210D01*
X127148285Y-86150210D01*
X127274427Y-86463952D01*
X127284461Y-86478968D01*
X127387447Y-86567198D01*
X127964645Y-85990000D01*
X128035355Y-85990000D01*
X128612553Y-86567198D01*
X128715539Y-86478968D01*
X128848192Y-86167922D01*
X128849941Y-86000000D01*
X132400000Y-86000000D01*
X132400000Y-86469891D01*
X132415224Y-86506646D01*
X132443355Y-86534776D01*
X132480109Y-86550000D01*
X133450000Y-86550000D01*
X133475000Y-86525000D01*
X133475000Y-85975000D01*
X133525000Y-85975000D01*
X133525000Y-86525000D01*
X133550000Y-86550000D01*
X134519891Y-86550000D01*
X134556645Y-86534776D01*
X134584776Y-86506646D01*
X134600000Y-86469891D01*
X134600000Y-86000000D01*
X134575000Y-85975000D01*
X133525000Y-85975000D01*
X133475000Y-85975000D01*
X132425000Y-85975000D01*
X132400000Y-86000000D01*
X128849941Y-86000000D01*
X128851715Y-85829790D01*
X128725573Y-85516048D01*
X128715539Y-85501032D01*
X128632755Y-85430109D01*
X132400000Y-85430109D01*
X132400000Y-85900000D01*
X132425000Y-85925000D01*
X133475000Y-85925000D01*
X133475000Y-85375000D01*
X133525000Y-85375000D01*
X133525000Y-85925000D01*
X134575000Y-85925000D01*
X134600000Y-85900000D01*
X134600000Y-85430109D01*
X134584776Y-85393354D01*
X134556645Y-85365224D01*
X134519891Y-85350000D01*
X133550000Y-85350000D01*
X133525000Y-85375000D01*
X133475000Y-85375000D01*
X133450000Y-85350000D01*
X132480109Y-85350000D01*
X132443355Y-85365224D01*
X132415224Y-85393354D01*
X132400000Y-85430109D01*
X128632755Y-85430109D01*
X128612553Y-85412802D01*
X128035355Y-85990000D01*
X127964645Y-85990000D01*
X127387447Y-85412802D01*
X127284461Y-85501032D01*
X127151808Y-85812078D01*
X127148285Y-86150210D01*
X126395000Y-86150210D01*
X126395000Y-85377447D01*
X127422802Y-85377447D01*
X128000000Y-85954645D01*
X128577198Y-85377447D01*
X128488968Y-85274461D01*
X128177922Y-85141808D01*
X127839790Y-85138285D01*
X127526048Y-85264427D01*
X127511032Y-85274461D01*
X127422802Y-85377447D01*
X126395000Y-85377447D01*
X126395000Y-83661902D01*
X126929814Y-83661902D01*
X127092369Y-84055315D01*
X127393102Y-84356573D01*
X127786230Y-84519814D01*
X128211902Y-84520186D01*
X128605315Y-84357631D01*
X128906573Y-84056898D01*
X129069814Y-83663770D01*
X129070186Y-83238098D01*
X128907631Y-82844685D01*
X128606898Y-82543427D01*
X128213770Y-82380186D01*
X127788098Y-82379814D01*
X127394685Y-82542369D01*
X127093427Y-82843102D01*
X126930186Y-83236230D01*
X126929814Y-83661902D01*
X126395000Y-83661902D01*
X126395000Y-81121902D01*
X126929814Y-81121902D01*
X127092369Y-81515315D01*
X127393102Y-81816573D01*
X127786230Y-81979814D01*
X128211902Y-81980186D01*
X128605315Y-81817631D01*
X128906573Y-81516898D01*
X129069814Y-81123770D01*
X129070186Y-80698098D01*
X128907631Y-80304685D01*
X128606898Y-80003427D01*
X128213770Y-79840186D01*
X127788098Y-79839814D01*
X127394685Y-80002369D01*
X127093427Y-80303102D01*
X126930186Y-80696230D01*
X126929814Y-81121902D01*
X126395000Y-81121902D01*
X126395000Y-81038904D01*
X126524323Y-80388755D01*
X126870565Y-79870565D01*
X127388755Y-79524323D01*
X128038903Y-79395000D01*
X140961098Y-79395000D01*
X141037220Y-79410142D01*
M02*
