G04 #@! TF.FileFunction,Copper,L2,Bot,Signal*
%FSLAX46Y46*%
G04 Gerber Fmt 4.6, Leading zero omitted, Abs format (unit mm)*
G04 Created by KiCad (PCBNEW 4.0.7-e1-6374~58~ubuntu14.04.1) date Wed Aug 23 15:58:55 2017*
%MOMM*%
%LPD*%
G01*
G04 APERTURE LIST*
%ADD10C,0.100000*%
%ADD11C,1.500000*%
%ADD12C,0.600000*%
%ADD13C,0.200000*%
%ADD14C,0.750000*%
G04 APERTURE END LIST*
D10*
D11*
X128000000Y-85990000D03*
X128000000Y-88530000D03*
X128000000Y-91070000D03*
X128000000Y-93610000D03*
X128000000Y-96150000D03*
X128000000Y-98690000D03*
X128000000Y-101230000D03*
X128000000Y-103770000D03*
X128000000Y-106310000D03*
X128000000Y-108850000D03*
X128000000Y-111390000D03*
X128000000Y-113930000D03*
X128000000Y-116470000D03*
X128000000Y-119010000D03*
X128000000Y-121550000D03*
X128000000Y-124090000D03*
X128000000Y-83450000D03*
X128000000Y-80910000D03*
D12*
X156500000Y-79800000D03*
X157600000Y-80000000D03*
X149750000Y-140300000D03*
X131375000Y-89075000D03*
X148350000Y-143600000D03*
X149875000Y-132350000D03*
X149650000Y-143425000D03*
X151725000Y-131725000D03*
D13*
X128000000Y-83450000D02*
X132750000Y-83450000D01*
X157000000Y-79300000D02*
X156500000Y-79800000D01*
X158300000Y-79300000D02*
X157000000Y-79300000D01*
X158500000Y-79500000D02*
X158300000Y-79300000D01*
X158500000Y-82200000D02*
X158500000Y-79500000D01*
X158100000Y-82600000D02*
X158500000Y-82200000D01*
X133600000Y-82600000D02*
X158100000Y-82600000D01*
X132750000Y-83450000D02*
X133600000Y-82600000D01*
X128000000Y-80910000D02*
X133010000Y-80910000D01*
X157600000Y-80900000D02*
X157600000Y-80000000D01*
X156600000Y-81900000D02*
X157600000Y-80900000D01*
X134000000Y-81900000D02*
X156600000Y-81900000D01*
X133010000Y-80910000D02*
X134000000Y-81900000D01*
D14*
X149750000Y-135200000D02*
X149750000Y-140300000D01*
X153075000Y-131875000D02*
X149750000Y-135200000D01*
X153075000Y-130300000D02*
X153075000Y-131875000D01*
X150600000Y-127825000D02*
X153075000Y-130300000D01*
X134900000Y-127825000D02*
X150600000Y-127825000D01*
X133550000Y-126475000D02*
X134900000Y-127825000D01*
X133550000Y-91250000D02*
X133550000Y-126475000D01*
X131375000Y-89075000D02*
X133550000Y-91250000D01*
D13*
X148450000Y-143500000D02*
X148350000Y-143600000D01*
X148450000Y-133775000D02*
X148450000Y-143500000D01*
X149875000Y-132350000D02*
X148450000Y-133775000D01*
X148850002Y-142625002D02*
X149650000Y-143425000D01*
X148850002Y-134599998D02*
X148850002Y-142625002D01*
X151725000Y-131725000D02*
X148850002Y-134599998D01*
G36*
X141037220Y-79410142D02*
X141068774Y-79431225D01*
X141089859Y-79462781D01*
X141112590Y-79577060D01*
X141188710Y-79959743D01*
X141247689Y-80102133D01*
X141464462Y-80426557D01*
X141518953Y-80481047D01*
X141573443Y-80535538D01*
X141897867Y-80752310D01*
X142040256Y-80811290D01*
X142040257Y-80811290D01*
X142422940Y-80887410D01*
X142461843Y-80887410D01*
X142500000Y-80895000D01*
X154500000Y-80895000D01*
X154538157Y-80887410D01*
X154577060Y-80887410D01*
X154959743Y-80811290D01*
X155102133Y-80752311D01*
X155426557Y-80535538D01*
X155481047Y-80481047D01*
X155535538Y-80426557D01*
X155752310Y-80102133D01*
X155811290Y-79959744D01*
X155811290Y-79959743D01*
X155887410Y-79577060D01*
X155910142Y-79462780D01*
X155931225Y-79431226D01*
X155962781Y-79410141D01*
X156025447Y-79397676D01*
X155974696Y-79448339D01*
X155880107Y-79676133D01*
X155879892Y-79922785D01*
X155974083Y-80150743D01*
X156148339Y-80325304D01*
X156376133Y-80419893D01*
X156622785Y-80420108D01*
X156850743Y-80325917D01*
X157001600Y-80175323D01*
X157074083Y-80350743D01*
X157180000Y-80456845D01*
X157180000Y-80726030D01*
X156426030Y-81480000D01*
X134173970Y-81480000D01*
X133306985Y-80613015D01*
X133170727Y-80521971D01*
X133010000Y-80490000D01*
X128984202Y-80490000D01*
X128907631Y-80304685D01*
X128606898Y-80003427D01*
X128213770Y-79840186D01*
X127788098Y-79839814D01*
X127394685Y-80002369D01*
X127093427Y-80303102D01*
X126930186Y-80696230D01*
X126929814Y-81121902D01*
X127092369Y-81515315D01*
X127393102Y-81816573D01*
X127786230Y-81979814D01*
X128211902Y-81980186D01*
X128605315Y-81817631D01*
X128906573Y-81516898D01*
X128984180Y-81330000D01*
X132836030Y-81330000D01*
X133686030Y-82180000D01*
X133600005Y-82180000D01*
X133600000Y-82179999D01*
X133465940Y-82206666D01*
X133439273Y-82211971D01*
X133325443Y-82288029D01*
X133303015Y-82303015D01*
X132576030Y-83030000D01*
X128984202Y-83030000D01*
X128907631Y-82844685D01*
X128606898Y-82543427D01*
X128213770Y-82380186D01*
X127788098Y-82379814D01*
X127394685Y-82542369D01*
X127093427Y-82843102D01*
X126930186Y-83236230D01*
X126929814Y-83661902D01*
X127092369Y-84055315D01*
X127393102Y-84356573D01*
X127786230Y-84519814D01*
X128211902Y-84520186D01*
X128605315Y-84357631D01*
X128906573Y-84056898D01*
X128984180Y-83870000D01*
X132750000Y-83870000D01*
X132910727Y-83838029D01*
X133046985Y-83746985D01*
X133293970Y-83500000D01*
X135103800Y-83500000D01*
X135103800Y-126500000D01*
X135133959Y-126651619D01*
X135219844Y-126780156D01*
X135348381Y-126866041D01*
X135500000Y-126896200D01*
X161500000Y-126896200D01*
X161651619Y-126866041D01*
X161780156Y-126780156D01*
X161866041Y-126651619D01*
X161896200Y-126500000D01*
X161896200Y-83500000D01*
X161866041Y-83348381D01*
X161780156Y-83219844D01*
X161651619Y-83133959D01*
X161500000Y-83103800D01*
X135500000Y-83103800D01*
X135348381Y-83133959D01*
X135219844Y-83219844D01*
X135133959Y-83348381D01*
X135103800Y-83500000D01*
X133293970Y-83500000D01*
X133773970Y-83020000D01*
X158100000Y-83020000D01*
X158260727Y-82988029D01*
X158396985Y-82896985D01*
X158796985Y-82496985D01*
X158888029Y-82360727D01*
X158920000Y-82200000D01*
X158920000Y-79500000D01*
X158899114Y-79395000D01*
X166961098Y-79395000D01*
X167228561Y-79448201D01*
X167422327Y-79577671D01*
X167551799Y-79771440D01*
X167605000Y-80038902D01*
X167605000Y-146961098D01*
X167551799Y-147228560D01*
X167422327Y-147422329D01*
X167228561Y-147551799D01*
X166961098Y-147605000D01*
X145038902Y-147605000D01*
X144771440Y-147551799D01*
X144577671Y-147422327D01*
X144448201Y-147228561D01*
X144395000Y-146961098D01*
X144395000Y-131000000D01*
X144387410Y-130961843D01*
X144387410Y-130922940D01*
X144311290Y-130540257D01*
X144252310Y-130397867D01*
X144035538Y-130073443D01*
X143981047Y-130018953D01*
X143926557Y-129964462D01*
X143602133Y-129747689D01*
X143459743Y-129688710D01*
X143077060Y-129612590D01*
X143038157Y-129612590D01*
X143000000Y-129605000D01*
X128038903Y-129605000D01*
X127388755Y-129475677D01*
X126870565Y-129129435D01*
X126524323Y-128611245D01*
X126395000Y-127961096D01*
X126395000Y-124301902D01*
X126929814Y-124301902D01*
X127092369Y-124695315D01*
X127393102Y-124996573D01*
X127786230Y-125159814D01*
X128211902Y-125160186D01*
X128605315Y-124997631D01*
X128906573Y-124696898D01*
X129069814Y-124303770D01*
X129070186Y-123878098D01*
X128907631Y-123484685D01*
X128606898Y-123183427D01*
X128213770Y-123020186D01*
X127788098Y-123019814D01*
X127394685Y-123182369D01*
X127093427Y-123483102D01*
X126930186Y-123876230D01*
X126929814Y-124301902D01*
X126395000Y-124301902D01*
X126395000Y-121761902D01*
X126929814Y-121761902D01*
X127092369Y-122155315D01*
X127393102Y-122456573D01*
X127786230Y-122619814D01*
X128211902Y-122620186D01*
X128605315Y-122457631D01*
X128906573Y-122156898D01*
X129069814Y-121763770D01*
X129070186Y-121338098D01*
X128907631Y-120944685D01*
X128606898Y-120643427D01*
X128213770Y-120480186D01*
X127788098Y-120479814D01*
X127394685Y-120642369D01*
X127093427Y-120943102D01*
X126930186Y-121336230D01*
X126929814Y-121761902D01*
X126395000Y-121761902D01*
X126395000Y-119221902D01*
X126929814Y-119221902D01*
X127092369Y-119615315D01*
X127393102Y-119916573D01*
X127786230Y-120079814D01*
X128211902Y-120080186D01*
X128605315Y-119917631D01*
X128906573Y-119616898D01*
X129069814Y-119223770D01*
X129070186Y-118798098D01*
X128907631Y-118404685D01*
X128606898Y-118103427D01*
X128213770Y-117940186D01*
X127788098Y-117939814D01*
X127394685Y-118102369D01*
X127093427Y-118403102D01*
X126930186Y-118796230D01*
X126929814Y-119221902D01*
X126395000Y-119221902D01*
X126395000Y-116681902D01*
X126929814Y-116681902D01*
X127092369Y-117075315D01*
X127393102Y-117376573D01*
X127786230Y-117539814D01*
X128211902Y-117540186D01*
X128605315Y-117377631D01*
X128906573Y-117076898D01*
X129069814Y-116683770D01*
X129070186Y-116258098D01*
X128907631Y-115864685D01*
X128606898Y-115563427D01*
X128213770Y-115400186D01*
X127788098Y-115399814D01*
X127394685Y-115562369D01*
X127093427Y-115863102D01*
X126930186Y-116256230D01*
X126929814Y-116681902D01*
X126395000Y-116681902D01*
X126395000Y-114141902D01*
X126929814Y-114141902D01*
X127092369Y-114535315D01*
X127393102Y-114836573D01*
X127786230Y-114999814D01*
X128211902Y-115000186D01*
X128605315Y-114837631D01*
X128906573Y-114536898D01*
X129069814Y-114143770D01*
X129070186Y-113718098D01*
X128907631Y-113324685D01*
X128606898Y-113023427D01*
X128213770Y-112860186D01*
X127788098Y-112859814D01*
X127394685Y-113022369D01*
X127093427Y-113323102D01*
X126930186Y-113716230D01*
X126929814Y-114141902D01*
X126395000Y-114141902D01*
X126395000Y-111601902D01*
X126929814Y-111601902D01*
X127092369Y-111995315D01*
X127393102Y-112296573D01*
X127786230Y-112459814D01*
X128211902Y-112460186D01*
X128605315Y-112297631D01*
X128906573Y-111996898D01*
X129069814Y-111603770D01*
X129070186Y-111178098D01*
X128907631Y-110784685D01*
X128606898Y-110483427D01*
X128213770Y-110320186D01*
X127788098Y-110319814D01*
X127394685Y-110482369D01*
X127093427Y-110783102D01*
X126930186Y-111176230D01*
X126929814Y-111601902D01*
X126395000Y-111601902D01*
X126395000Y-109061902D01*
X126929814Y-109061902D01*
X127092369Y-109455315D01*
X127393102Y-109756573D01*
X127786230Y-109919814D01*
X128211902Y-109920186D01*
X128605315Y-109757631D01*
X128906573Y-109456898D01*
X129069814Y-109063770D01*
X129070186Y-108638098D01*
X128907631Y-108244685D01*
X128606898Y-107943427D01*
X128213770Y-107780186D01*
X127788098Y-107779814D01*
X127394685Y-107942369D01*
X127093427Y-108243102D01*
X126930186Y-108636230D01*
X126929814Y-109061902D01*
X126395000Y-109061902D01*
X126395000Y-106521902D01*
X126929814Y-106521902D01*
X127092369Y-106915315D01*
X127393102Y-107216573D01*
X127786230Y-107379814D01*
X128211902Y-107380186D01*
X128605315Y-107217631D01*
X128906573Y-106916898D01*
X129069814Y-106523770D01*
X129070186Y-106098098D01*
X128907631Y-105704685D01*
X128606898Y-105403427D01*
X128213770Y-105240186D01*
X127788098Y-105239814D01*
X127394685Y-105402369D01*
X127093427Y-105703102D01*
X126930186Y-106096230D01*
X126929814Y-106521902D01*
X126395000Y-106521902D01*
X126395000Y-103981902D01*
X126929814Y-103981902D01*
X127092369Y-104375315D01*
X127393102Y-104676573D01*
X127786230Y-104839814D01*
X128211902Y-104840186D01*
X128605315Y-104677631D01*
X128906573Y-104376898D01*
X129069814Y-103983770D01*
X129070186Y-103558098D01*
X128907631Y-103164685D01*
X128606898Y-102863427D01*
X128213770Y-102700186D01*
X127788098Y-102699814D01*
X127394685Y-102862369D01*
X127093427Y-103163102D01*
X126930186Y-103556230D01*
X126929814Y-103981902D01*
X126395000Y-103981902D01*
X126395000Y-101441902D01*
X126929814Y-101441902D01*
X127092369Y-101835315D01*
X127393102Y-102136573D01*
X127786230Y-102299814D01*
X128211902Y-102300186D01*
X128605315Y-102137631D01*
X128906573Y-101836898D01*
X129069814Y-101443770D01*
X129070186Y-101018098D01*
X128907631Y-100624685D01*
X128606898Y-100323427D01*
X128213770Y-100160186D01*
X127788098Y-100159814D01*
X127394685Y-100322369D01*
X127093427Y-100623102D01*
X126930186Y-101016230D01*
X126929814Y-101441902D01*
X126395000Y-101441902D01*
X126395000Y-99302553D01*
X127422802Y-99302553D01*
X127511032Y-99405539D01*
X127822078Y-99538192D01*
X128160210Y-99541715D01*
X128473952Y-99415573D01*
X128488968Y-99405539D01*
X128577198Y-99302553D01*
X128000000Y-98725355D01*
X127422802Y-99302553D01*
X126395000Y-99302553D01*
X126395000Y-98850210D01*
X127148285Y-98850210D01*
X127274427Y-99163952D01*
X127284461Y-99178968D01*
X127387447Y-99267198D01*
X127964645Y-98690000D01*
X128035355Y-98690000D01*
X128612553Y-99267198D01*
X128715539Y-99178968D01*
X128848192Y-98867922D01*
X128851715Y-98529790D01*
X128725573Y-98216048D01*
X128715539Y-98201032D01*
X128612553Y-98112802D01*
X128035355Y-98690000D01*
X127964645Y-98690000D01*
X127387447Y-98112802D01*
X127284461Y-98201032D01*
X127151808Y-98512078D01*
X127148285Y-98850210D01*
X126395000Y-98850210D01*
X126395000Y-98077447D01*
X127422802Y-98077447D01*
X128000000Y-98654645D01*
X128577198Y-98077447D01*
X128488968Y-97974461D01*
X128177922Y-97841808D01*
X127839790Y-97838285D01*
X127526048Y-97964427D01*
X127511032Y-97974461D01*
X127422802Y-98077447D01*
X126395000Y-98077447D01*
X126395000Y-96361902D01*
X126929814Y-96361902D01*
X127092369Y-96755315D01*
X127393102Y-97056573D01*
X127786230Y-97219814D01*
X128211902Y-97220186D01*
X128605315Y-97057631D01*
X128906573Y-96756898D01*
X129069814Y-96363770D01*
X129070186Y-95938098D01*
X128907631Y-95544685D01*
X128606898Y-95243427D01*
X128213770Y-95080186D01*
X127788098Y-95079814D01*
X127394685Y-95242369D01*
X127093427Y-95543102D01*
X126930186Y-95936230D01*
X126929814Y-96361902D01*
X126395000Y-96361902D01*
X126395000Y-93821902D01*
X126929814Y-93821902D01*
X127092369Y-94215315D01*
X127393102Y-94516573D01*
X127786230Y-94679814D01*
X128211902Y-94680186D01*
X128605315Y-94517631D01*
X128906573Y-94216898D01*
X129069814Y-93823770D01*
X129070186Y-93398098D01*
X128907631Y-93004685D01*
X128606898Y-92703427D01*
X128213770Y-92540186D01*
X127788098Y-92539814D01*
X127394685Y-92702369D01*
X127093427Y-93003102D01*
X126930186Y-93396230D01*
X126929814Y-93821902D01*
X126395000Y-93821902D01*
X126395000Y-91281902D01*
X126929814Y-91281902D01*
X127092369Y-91675315D01*
X127393102Y-91976573D01*
X127786230Y-92139814D01*
X128211902Y-92140186D01*
X128605315Y-91977631D01*
X128906573Y-91676898D01*
X129069814Y-91283770D01*
X129070186Y-90858098D01*
X128907631Y-90464685D01*
X128606898Y-90163427D01*
X128213770Y-90000186D01*
X127788098Y-89999814D01*
X127394685Y-90162369D01*
X127093427Y-90463102D01*
X126930186Y-90856230D01*
X126929814Y-91281902D01*
X126395000Y-91281902D01*
X126395000Y-88741902D01*
X126929814Y-88741902D01*
X127092369Y-89135315D01*
X127393102Y-89436573D01*
X127786230Y-89599814D01*
X128211902Y-89600186D01*
X128605315Y-89437631D01*
X128906573Y-89136898D01*
X128932275Y-89075000D01*
X130680000Y-89075000D01*
X130732904Y-89340965D01*
X130883561Y-89566439D01*
X132855000Y-91537879D01*
X132855000Y-126475000D01*
X132907904Y-126740965D01*
X133058561Y-126966439D01*
X134408561Y-128316439D01*
X134634035Y-128467096D01*
X134900000Y-128520000D01*
X150312122Y-128520000D01*
X152380000Y-130587879D01*
X152380000Y-131587122D01*
X152345091Y-131622031D01*
X152345108Y-131602215D01*
X152250917Y-131374257D01*
X152076661Y-131199696D01*
X151848867Y-131105107D01*
X151602215Y-131104892D01*
X151374257Y-131199083D01*
X151199696Y-131373339D01*
X151105107Y-131601133D01*
X151104976Y-131751054D01*
X150494991Y-132361039D01*
X150495108Y-132227215D01*
X150400917Y-131999257D01*
X150226661Y-131824696D01*
X149998867Y-131730107D01*
X149752215Y-131729892D01*
X149524257Y-131824083D01*
X149349696Y-131998339D01*
X149255107Y-132226133D01*
X149254976Y-132376054D01*
X148153015Y-133478015D01*
X148061971Y-133614273D01*
X148030000Y-133775000D01*
X148030000Y-143061380D01*
X147999257Y-143074083D01*
X147824696Y-143248339D01*
X147730107Y-143476133D01*
X147729892Y-143722785D01*
X147824083Y-143950743D01*
X147998339Y-144125304D01*
X148226133Y-144219893D01*
X148472785Y-144220108D01*
X148700743Y-144125917D01*
X148875304Y-143951661D01*
X148969893Y-143723867D01*
X148970108Y-143477215D01*
X148875917Y-143249257D01*
X148870000Y-143243330D01*
X148870000Y-143238970D01*
X149030022Y-143398992D01*
X149029892Y-143547785D01*
X149124083Y-143775743D01*
X149298339Y-143950304D01*
X149526133Y-144044893D01*
X149772785Y-144045108D01*
X150000743Y-143950917D01*
X150175304Y-143776661D01*
X150269893Y-143548867D01*
X150270108Y-143302215D01*
X150175917Y-143074257D01*
X150001661Y-142899696D01*
X149773867Y-142805107D01*
X149623946Y-142804976D01*
X149270002Y-142451032D01*
X149270002Y-140799084D01*
X149484035Y-140942096D01*
X149750000Y-140995000D01*
X150015965Y-140942096D01*
X150241439Y-140791439D01*
X150392096Y-140565965D01*
X150445000Y-140300000D01*
X150445000Y-135487878D01*
X153566439Y-132366439D01*
X153717096Y-132140965D01*
X153770000Y-131875000D01*
X153770000Y-130300000D01*
X153717096Y-130034035D01*
X153642864Y-129922939D01*
X153566440Y-129808561D01*
X151091439Y-127333561D01*
X150865965Y-127182904D01*
X150600000Y-127130000D01*
X135187878Y-127130000D01*
X134245000Y-126187122D01*
X134245000Y-91250000D01*
X134192096Y-90984035D01*
X134107948Y-90858098D01*
X134041439Y-90758560D01*
X131866439Y-88583561D01*
X131640965Y-88432904D01*
X131375000Y-88380000D01*
X131109035Y-88432904D01*
X130883561Y-88583561D01*
X130732904Y-88809035D01*
X130680000Y-89075000D01*
X128932275Y-89075000D01*
X129069814Y-88743770D01*
X129070186Y-88318098D01*
X128907631Y-87924685D01*
X128606898Y-87623427D01*
X128213770Y-87460186D01*
X127788098Y-87459814D01*
X127394685Y-87622369D01*
X127093427Y-87923102D01*
X126930186Y-88316230D01*
X126929814Y-88741902D01*
X126395000Y-88741902D01*
X126395000Y-86602553D01*
X127422802Y-86602553D01*
X127511032Y-86705539D01*
X127822078Y-86838192D01*
X128160210Y-86841715D01*
X128473952Y-86715573D01*
X128488968Y-86705539D01*
X128577198Y-86602553D01*
X128000000Y-86025355D01*
X127422802Y-86602553D01*
X126395000Y-86602553D01*
X126395000Y-86150210D01*
X127148285Y-86150210D01*
X127274427Y-86463952D01*
X127284461Y-86478968D01*
X127387447Y-86567198D01*
X127964645Y-85990000D01*
X128035355Y-85990000D01*
X128612553Y-86567198D01*
X128715539Y-86478968D01*
X128848192Y-86167922D01*
X128851715Y-85829790D01*
X128725573Y-85516048D01*
X128715539Y-85501032D01*
X128612553Y-85412802D01*
X128035355Y-85990000D01*
X127964645Y-85990000D01*
X127387447Y-85412802D01*
X127284461Y-85501032D01*
X127151808Y-85812078D01*
X127148285Y-86150210D01*
X126395000Y-86150210D01*
X126395000Y-85377447D01*
X127422802Y-85377447D01*
X128000000Y-85954645D01*
X128577198Y-85377447D01*
X128488968Y-85274461D01*
X128177922Y-85141808D01*
X127839790Y-85138285D01*
X127526048Y-85264427D01*
X127511032Y-85274461D01*
X127422802Y-85377447D01*
X126395000Y-85377447D01*
X126395000Y-81038904D01*
X126524323Y-80388755D01*
X126870565Y-79870565D01*
X127388755Y-79524323D01*
X128038903Y-79395000D01*
X140961098Y-79395000D01*
X141037220Y-79410142D01*
X141037220Y-79410142D01*
G37*
X141037220Y-79410142D02*
X141068774Y-79431225D01*
X141089859Y-79462781D01*
X141112590Y-79577060D01*
X141188710Y-79959743D01*
X141247689Y-80102133D01*
X141464462Y-80426557D01*
X141518953Y-80481047D01*
X141573443Y-80535538D01*
X141897867Y-80752310D01*
X142040256Y-80811290D01*
X142040257Y-80811290D01*
X142422940Y-80887410D01*
X142461843Y-80887410D01*
X142500000Y-80895000D01*
X154500000Y-80895000D01*
X154538157Y-80887410D01*
X154577060Y-80887410D01*
X154959743Y-80811290D01*
X155102133Y-80752311D01*
X155426557Y-80535538D01*
X155481047Y-80481047D01*
X155535538Y-80426557D01*
X155752310Y-80102133D01*
X155811290Y-79959744D01*
X155811290Y-79959743D01*
X155887410Y-79577060D01*
X155910142Y-79462780D01*
X155931225Y-79431226D01*
X155962781Y-79410141D01*
X156025447Y-79397676D01*
X155974696Y-79448339D01*
X155880107Y-79676133D01*
X155879892Y-79922785D01*
X155974083Y-80150743D01*
X156148339Y-80325304D01*
X156376133Y-80419893D01*
X156622785Y-80420108D01*
X156850743Y-80325917D01*
X157001600Y-80175323D01*
X157074083Y-80350743D01*
X157180000Y-80456845D01*
X157180000Y-80726030D01*
X156426030Y-81480000D01*
X134173970Y-81480000D01*
X133306985Y-80613015D01*
X133170727Y-80521971D01*
X133010000Y-80490000D01*
X128984202Y-80490000D01*
X128907631Y-80304685D01*
X128606898Y-80003427D01*
X128213770Y-79840186D01*
X127788098Y-79839814D01*
X127394685Y-80002369D01*
X127093427Y-80303102D01*
X126930186Y-80696230D01*
X126929814Y-81121902D01*
X127092369Y-81515315D01*
X127393102Y-81816573D01*
X127786230Y-81979814D01*
X128211902Y-81980186D01*
X128605315Y-81817631D01*
X128906573Y-81516898D01*
X128984180Y-81330000D01*
X132836030Y-81330000D01*
X133686030Y-82180000D01*
X133600005Y-82180000D01*
X133600000Y-82179999D01*
X133465940Y-82206666D01*
X133439273Y-82211971D01*
X133325443Y-82288029D01*
X133303015Y-82303015D01*
X132576030Y-83030000D01*
X128984202Y-83030000D01*
X128907631Y-82844685D01*
X128606898Y-82543427D01*
X128213770Y-82380186D01*
X127788098Y-82379814D01*
X127394685Y-82542369D01*
X127093427Y-82843102D01*
X126930186Y-83236230D01*
X126929814Y-83661902D01*
X127092369Y-84055315D01*
X127393102Y-84356573D01*
X127786230Y-84519814D01*
X128211902Y-84520186D01*
X128605315Y-84357631D01*
X128906573Y-84056898D01*
X128984180Y-83870000D01*
X132750000Y-83870000D01*
X132910727Y-83838029D01*
X133046985Y-83746985D01*
X133293970Y-83500000D01*
X135103800Y-83500000D01*
X135103800Y-126500000D01*
X135133959Y-126651619D01*
X135219844Y-126780156D01*
X135348381Y-126866041D01*
X135500000Y-126896200D01*
X161500000Y-126896200D01*
X161651619Y-126866041D01*
X161780156Y-126780156D01*
X161866041Y-126651619D01*
X161896200Y-126500000D01*
X161896200Y-83500000D01*
X161866041Y-83348381D01*
X161780156Y-83219844D01*
X161651619Y-83133959D01*
X161500000Y-83103800D01*
X135500000Y-83103800D01*
X135348381Y-83133959D01*
X135219844Y-83219844D01*
X135133959Y-83348381D01*
X135103800Y-83500000D01*
X133293970Y-83500000D01*
X133773970Y-83020000D01*
X158100000Y-83020000D01*
X158260727Y-82988029D01*
X158396985Y-82896985D01*
X158796985Y-82496985D01*
X158888029Y-82360727D01*
X158920000Y-82200000D01*
X158920000Y-79500000D01*
X158899114Y-79395000D01*
X166961098Y-79395000D01*
X167228561Y-79448201D01*
X167422327Y-79577671D01*
X167551799Y-79771440D01*
X167605000Y-80038902D01*
X167605000Y-146961098D01*
X167551799Y-147228560D01*
X167422327Y-147422329D01*
X167228561Y-147551799D01*
X166961098Y-147605000D01*
X145038902Y-147605000D01*
X144771440Y-147551799D01*
X144577671Y-147422327D01*
X144448201Y-147228561D01*
X144395000Y-146961098D01*
X144395000Y-131000000D01*
X144387410Y-130961843D01*
X144387410Y-130922940D01*
X144311290Y-130540257D01*
X144252310Y-130397867D01*
X144035538Y-130073443D01*
X143981047Y-130018953D01*
X143926557Y-129964462D01*
X143602133Y-129747689D01*
X143459743Y-129688710D01*
X143077060Y-129612590D01*
X143038157Y-129612590D01*
X143000000Y-129605000D01*
X128038903Y-129605000D01*
X127388755Y-129475677D01*
X126870565Y-129129435D01*
X126524323Y-128611245D01*
X126395000Y-127961096D01*
X126395000Y-124301902D01*
X126929814Y-124301902D01*
X127092369Y-124695315D01*
X127393102Y-124996573D01*
X127786230Y-125159814D01*
X128211902Y-125160186D01*
X128605315Y-124997631D01*
X128906573Y-124696898D01*
X129069814Y-124303770D01*
X129070186Y-123878098D01*
X128907631Y-123484685D01*
X128606898Y-123183427D01*
X128213770Y-123020186D01*
X127788098Y-123019814D01*
X127394685Y-123182369D01*
X127093427Y-123483102D01*
X126930186Y-123876230D01*
X126929814Y-124301902D01*
X126395000Y-124301902D01*
X126395000Y-121761902D01*
X126929814Y-121761902D01*
X127092369Y-122155315D01*
X127393102Y-122456573D01*
X127786230Y-122619814D01*
X128211902Y-122620186D01*
X128605315Y-122457631D01*
X128906573Y-122156898D01*
X129069814Y-121763770D01*
X129070186Y-121338098D01*
X128907631Y-120944685D01*
X128606898Y-120643427D01*
X128213770Y-120480186D01*
X127788098Y-120479814D01*
X127394685Y-120642369D01*
X127093427Y-120943102D01*
X126930186Y-121336230D01*
X126929814Y-121761902D01*
X126395000Y-121761902D01*
X126395000Y-119221902D01*
X126929814Y-119221902D01*
X127092369Y-119615315D01*
X127393102Y-119916573D01*
X127786230Y-120079814D01*
X128211902Y-120080186D01*
X128605315Y-119917631D01*
X128906573Y-119616898D01*
X129069814Y-119223770D01*
X129070186Y-118798098D01*
X128907631Y-118404685D01*
X128606898Y-118103427D01*
X128213770Y-117940186D01*
X127788098Y-117939814D01*
X127394685Y-118102369D01*
X127093427Y-118403102D01*
X126930186Y-118796230D01*
X126929814Y-119221902D01*
X126395000Y-119221902D01*
X126395000Y-116681902D01*
X126929814Y-116681902D01*
X127092369Y-117075315D01*
X127393102Y-117376573D01*
X127786230Y-117539814D01*
X128211902Y-117540186D01*
X128605315Y-117377631D01*
X128906573Y-117076898D01*
X129069814Y-116683770D01*
X129070186Y-116258098D01*
X128907631Y-115864685D01*
X128606898Y-115563427D01*
X128213770Y-115400186D01*
X127788098Y-115399814D01*
X127394685Y-115562369D01*
X127093427Y-115863102D01*
X126930186Y-116256230D01*
X126929814Y-116681902D01*
X126395000Y-116681902D01*
X126395000Y-114141902D01*
X126929814Y-114141902D01*
X127092369Y-114535315D01*
X127393102Y-114836573D01*
X127786230Y-114999814D01*
X128211902Y-115000186D01*
X128605315Y-114837631D01*
X128906573Y-114536898D01*
X129069814Y-114143770D01*
X129070186Y-113718098D01*
X128907631Y-113324685D01*
X128606898Y-113023427D01*
X128213770Y-112860186D01*
X127788098Y-112859814D01*
X127394685Y-113022369D01*
X127093427Y-113323102D01*
X126930186Y-113716230D01*
X126929814Y-114141902D01*
X126395000Y-114141902D01*
X126395000Y-111601902D01*
X126929814Y-111601902D01*
X127092369Y-111995315D01*
X127393102Y-112296573D01*
X127786230Y-112459814D01*
X128211902Y-112460186D01*
X128605315Y-112297631D01*
X128906573Y-111996898D01*
X129069814Y-111603770D01*
X129070186Y-111178098D01*
X128907631Y-110784685D01*
X128606898Y-110483427D01*
X128213770Y-110320186D01*
X127788098Y-110319814D01*
X127394685Y-110482369D01*
X127093427Y-110783102D01*
X126930186Y-111176230D01*
X126929814Y-111601902D01*
X126395000Y-111601902D01*
X126395000Y-109061902D01*
X126929814Y-109061902D01*
X127092369Y-109455315D01*
X127393102Y-109756573D01*
X127786230Y-109919814D01*
X128211902Y-109920186D01*
X128605315Y-109757631D01*
X128906573Y-109456898D01*
X129069814Y-109063770D01*
X129070186Y-108638098D01*
X128907631Y-108244685D01*
X128606898Y-107943427D01*
X128213770Y-107780186D01*
X127788098Y-107779814D01*
X127394685Y-107942369D01*
X127093427Y-108243102D01*
X126930186Y-108636230D01*
X126929814Y-109061902D01*
X126395000Y-109061902D01*
X126395000Y-106521902D01*
X126929814Y-106521902D01*
X127092369Y-106915315D01*
X127393102Y-107216573D01*
X127786230Y-107379814D01*
X128211902Y-107380186D01*
X128605315Y-107217631D01*
X128906573Y-106916898D01*
X129069814Y-106523770D01*
X129070186Y-106098098D01*
X128907631Y-105704685D01*
X128606898Y-105403427D01*
X128213770Y-105240186D01*
X127788098Y-105239814D01*
X127394685Y-105402369D01*
X127093427Y-105703102D01*
X126930186Y-106096230D01*
X126929814Y-106521902D01*
X126395000Y-106521902D01*
X126395000Y-103981902D01*
X126929814Y-103981902D01*
X127092369Y-104375315D01*
X127393102Y-104676573D01*
X127786230Y-104839814D01*
X128211902Y-104840186D01*
X128605315Y-104677631D01*
X128906573Y-104376898D01*
X129069814Y-103983770D01*
X129070186Y-103558098D01*
X128907631Y-103164685D01*
X128606898Y-102863427D01*
X128213770Y-102700186D01*
X127788098Y-102699814D01*
X127394685Y-102862369D01*
X127093427Y-103163102D01*
X126930186Y-103556230D01*
X126929814Y-103981902D01*
X126395000Y-103981902D01*
X126395000Y-101441902D01*
X126929814Y-101441902D01*
X127092369Y-101835315D01*
X127393102Y-102136573D01*
X127786230Y-102299814D01*
X128211902Y-102300186D01*
X128605315Y-102137631D01*
X128906573Y-101836898D01*
X129069814Y-101443770D01*
X129070186Y-101018098D01*
X128907631Y-100624685D01*
X128606898Y-100323427D01*
X128213770Y-100160186D01*
X127788098Y-100159814D01*
X127394685Y-100322369D01*
X127093427Y-100623102D01*
X126930186Y-101016230D01*
X126929814Y-101441902D01*
X126395000Y-101441902D01*
X126395000Y-99302553D01*
X127422802Y-99302553D01*
X127511032Y-99405539D01*
X127822078Y-99538192D01*
X128160210Y-99541715D01*
X128473952Y-99415573D01*
X128488968Y-99405539D01*
X128577198Y-99302553D01*
X128000000Y-98725355D01*
X127422802Y-99302553D01*
X126395000Y-99302553D01*
X126395000Y-98850210D01*
X127148285Y-98850210D01*
X127274427Y-99163952D01*
X127284461Y-99178968D01*
X127387447Y-99267198D01*
X127964645Y-98690000D01*
X128035355Y-98690000D01*
X128612553Y-99267198D01*
X128715539Y-99178968D01*
X128848192Y-98867922D01*
X128851715Y-98529790D01*
X128725573Y-98216048D01*
X128715539Y-98201032D01*
X128612553Y-98112802D01*
X128035355Y-98690000D01*
X127964645Y-98690000D01*
X127387447Y-98112802D01*
X127284461Y-98201032D01*
X127151808Y-98512078D01*
X127148285Y-98850210D01*
X126395000Y-98850210D01*
X126395000Y-98077447D01*
X127422802Y-98077447D01*
X128000000Y-98654645D01*
X128577198Y-98077447D01*
X128488968Y-97974461D01*
X128177922Y-97841808D01*
X127839790Y-97838285D01*
X127526048Y-97964427D01*
X127511032Y-97974461D01*
X127422802Y-98077447D01*
X126395000Y-98077447D01*
X126395000Y-96361902D01*
X126929814Y-96361902D01*
X127092369Y-96755315D01*
X127393102Y-97056573D01*
X127786230Y-97219814D01*
X128211902Y-97220186D01*
X128605315Y-97057631D01*
X128906573Y-96756898D01*
X129069814Y-96363770D01*
X129070186Y-95938098D01*
X128907631Y-95544685D01*
X128606898Y-95243427D01*
X128213770Y-95080186D01*
X127788098Y-95079814D01*
X127394685Y-95242369D01*
X127093427Y-95543102D01*
X126930186Y-95936230D01*
X126929814Y-96361902D01*
X126395000Y-96361902D01*
X126395000Y-93821902D01*
X126929814Y-93821902D01*
X127092369Y-94215315D01*
X127393102Y-94516573D01*
X127786230Y-94679814D01*
X128211902Y-94680186D01*
X128605315Y-94517631D01*
X128906573Y-94216898D01*
X129069814Y-93823770D01*
X129070186Y-93398098D01*
X128907631Y-93004685D01*
X128606898Y-92703427D01*
X128213770Y-92540186D01*
X127788098Y-92539814D01*
X127394685Y-92702369D01*
X127093427Y-93003102D01*
X126930186Y-93396230D01*
X126929814Y-93821902D01*
X126395000Y-93821902D01*
X126395000Y-91281902D01*
X126929814Y-91281902D01*
X127092369Y-91675315D01*
X127393102Y-91976573D01*
X127786230Y-92139814D01*
X128211902Y-92140186D01*
X128605315Y-91977631D01*
X128906573Y-91676898D01*
X129069814Y-91283770D01*
X129070186Y-90858098D01*
X128907631Y-90464685D01*
X128606898Y-90163427D01*
X128213770Y-90000186D01*
X127788098Y-89999814D01*
X127394685Y-90162369D01*
X127093427Y-90463102D01*
X126930186Y-90856230D01*
X126929814Y-91281902D01*
X126395000Y-91281902D01*
X126395000Y-88741902D01*
X126929814Y-88741902D01*
X127092369Y-89135315D01*
X127393102Y-89436573D01*
X127786230Y-89599814D01*
X128211902Y-89600186D01*
X128605315Y-89437631D01*
X128906573Y-89136898D01*
X128932275Y-89075000D01*
X130680000Y-89075000D01*
X130732904Y-89340965D01*
X130883561Y-89566439D01*
X132855000Y-91537879D01*
X132855000Y-126475000D01*
X132907904Y-126740965D01*
X133058561Y-126966439D01*
X134408561Y-128316439D01*
X134634035Y-128467096D01*
X134900000Y-128520000D01*
X150312122Y-128520000D01*
X152380000Y-130587879D01*
X152380000Y-131587122D01*
X152345091Y-131622031D01*
X152345108Y-131602215D01*
X152250917Y-131374257D01*
X152076661Y-131199696D01*
X151848867Y-131105107D01*
X151602215Y-131104892D01*
X151374257Y-131199083D01*
X151199696Y-131373339D01*
X151105107Y-131601133D01*
X151104976Y-131751054D01*
X150494991Y-132361039D01*
X150495108Y-132227215D01*
X150400917Y-131999257D01*
X150226661Y-131824696D01*
X149998867Y-131730107D01*
X149752215Y-131729892D01*
X149524257Y-131824083D01*
X149349696Y-131998339D01*
X149255107Y-132226133D01*
X149254976Y-132376054D01*
X148153015Y-133478015D01*
X148061971Y-133614273D01*
X148030000Y-133775000D01*
X148030000Y-143061380D01*
X147999257Y-143074083D01*
X147824696Y-143248339D01*
X147730107Y-143476133D01*
X147729892Y-143722785D01*
X147824083Y-143950743D01*
X147998339Y-144125304D01*
X148226133Y-144219893D01*
X148472785Y-144220108D01*
X148700743Y-144125917D01*
X148875304Y-143951661D01*
X148969893Y-143723867D01*
X148970108Y-143477215D01*
X148875917Y-143249257D01*
X148870000Y-143243330D01*
X148870000Y-143238970D01*
X149030022Y-143398992D01*
X149029892Y-143547785D01*
X149124083Y-143775743D01*
X149298339Y-143950304D01*
X149526133Y-144044893D01*
X149772785Y-144045108D01*
X150000743Y-143950917D01*
X150175304Y-143776661D01*
X150269893Y-143548867D01*
X150270108Y-143302215D01*
X150175917Y-143074257D01*
X150001661Y-142899696D01*
X149773867Y-142805107D01*
X149623946Y-142804976D01*
X149270002Y-142451032D01*
X149270002Y-140799084D01*
X149484035Y-140942096D01*
X149750000Y-140995000D01*
X150015965Y-140942096D01*
X150241439Y-140791439D01*
X150392096Y-140565965D01*
X150445000Y-140300000D01*
X150445000Y-135487878D01*
X153566439Y-132366439D01*
X153717096Y-132140965D01*
X153770000Y-131875000D01*
X153770000Y-130300000D01*
X153717096Y-130034035D01*
X153642864Y-129922939D01*
X153566440Y-129808561D01*
X151091439Y-127333561D01*
X150865965Y-127182904D01*
X150600000Y-127130000D01*
X135187878Y-127130000D01*
X134245000Y-126187122D01*
X134245000Y-91250000D01*
X134192096Y-90984035D01*
X134107948Y-90858098D01*
X134041439Y-90758560D01*
X131866439Y-88583561D01*
X131640965Y-88432904D01*
X131375000Y-88380000D01*
X131109035Y-88432904D01*
X130883561Y-88583561D01*
X130732904Y-88809035D01*
X130680000Y-89075000D01*
X128932275Y-89075000D01*
X129069814Y-88743770D01*
X129070186Y-88318098D01*
X128907631Y-87924685D01*
X128606898Y-87623427D01*
X128213770Y-87460186D01*
X127788098Y-87459814D01*
X127394685Y-87622369D01*
X127093427Y-87923102D01*
X126930186Y-88316230D01*
X126929814Y-88741902D01*
X126395000Y-88741902D01*
X126395000Y-86602553D01*
X127422802Y-86602553D01*
X127511032Y-86705539D01*
X127822078Y-86838192D01*
X128160210Y-86841715D01*
X128473952Y-86715573D01*
X128488968Y-86705539D01*
X128577198Y-86602553D01*
X128000000Y-86025355D01*
X127422802Y-86602553D01*
X126395000Y-86602553D01*
X126395000Y-86150210D01*
X127148285Y-86150210D01*
X127274427Y-86463952D01*
X127284461Y-86478968D01*
X127387447Y-86567198D01*
X127964645Y-85990000D01*
X128035355Y-85990000D01*
X128612553Y-86567198D01*
X128715539Y-86478968D01*
X128848192Y-86167922D01*
X128851715Y-85829790D01*
X128725573Y-85516048D01*
X128715539Y-85501032D01*
X128612553Y-85412802D01*
X128035355Y-85990000D01*
X127964645Y-85990000D01*
X127387447Y-85412802D01*
X127284461Y-85501032D01*
X127151808Y-85812078D01*
X127148285Y-86150210D01*
X126395000Y-86150210D01*
X126395000Y-85377447D01*
X127422802Y-85377447D01*
X128000000Y-85954645D01*
X128577198Y-85377447D01*
X128488968Y-85274461D01*
X128177922Y-85141808D01*
X127839790Y-85138285D01*
X127526048Y-85264427D01*
X127511032Y-85274461D01*
X127422802Y-85377447D01*
X126395000Y-85377447D01*
X126395000Y-81038904D01*
X126524323Y-80388755D01*
X126870565Y-79870565D01*
X127388755Y-79524323D01*
X128038903Y-79395000D01*
X140961098Y-79395000D01*
X141037220Y-79410142D01*
M02*
