G04 #@! TF.FileFunction,Paste,Top*
%FSLAX46Y46*%
G04 Gerber Fmt 4.6, Leading zero omitted, Abs format (unit mm)*
G04 Created by KiCad (PCBNEW 4.0.6-e0-6349~53~ubuntu14.04.1) date Sun Jun 18 12:02:25 2017*
%MOMM*%
%LPD*%
G01*
G04 APERTURE LIST*
%ADD10C,0.100000*%
%ADD11R,2.000000X1.000000*%
%ADD12R,1.000000X2.000000*%
%ADD13R,1.200000X0.700000*%
%ADD14R,1.200000X1.000000*%
%ADD15R,2.800000X1.000000*%
%ADD16R,0.800000X1.000000*%
%ADD17R,1.900000X1.300000*%
%ADD18R,0.350000X0.550000*%
G04 APERTURE END LIST*
D10*
D11*
X133500000Y-85950000D03*
X133500000Y-88490000D03*
X133500000Y-91030000D03*
X133500000Y-93570000D03*
X133500000Y-96110000D03*
X133500000Y-98650000D03*
X133500000Y-101190000D03*
X133500000Y-103730000D03*
X133500000Y-106270000D03*
X133500000Y-108810000D03*
X133500000Y-111350000D03*
X133500000Y-113890000D03*
X133500000Y-116430000D03*
X133500000Y-118970000D03*
X133500000Y-121510000D03*
X133500000Y-124050000D03*
D12*
X136500000Y-127750000D03*
X138500000Y-127650000D03*
X140500000Y-127750000D03*
X142500000Y-127750000D03*
X144500000Y-127750000D03*
X146500000Y-127750000D03*
X148500000Y-127750000D03*
X150500000Y-127750000D03*
X152500000Y-127500000D03*
X154500000Y-127750000D03*
X156500000Y-127750000D03*
X158500000Y-127750000D03*
X160500000Y-127750000D03*
D11*
X163500000Y-124050000D03*
X163500000Y-121510000D03*
X163500000Y-118970000D03*
X163500000Y-116430000D03*
X163500000Y-113890000D03*
X163500000Y-111350000D03*
X163500000Y-108810000D03*
X163500000Y-106270000D03*
X163500000Y-103730000D03*
X163500000Y-101190000D03*
X163500000Y-98650000D03*
X163500000Y-96110000D03*
X163500000Y-93570000D03*
X163500000Y-91030000D03*
X163500000Y-88490000D03*
X163500000Y-85950000D03*
D12*
X160500000Y-81950000D03*
X158500000Y-81950000D03*
X156500000Y-81950000D03*
X154500000Y-81950000D03*
X142500000Y-81950000D03*
X140500000Y-81950000D03*
X138500000Y-81950000D03*
X136500000Y-81950000D03*
D13*
X150400000Y-136000000D03*
X150400000Y-137100000D03*
X150400000Y-138200000D03*
X150400000Y-139300000D03*
X150400000Y-140400000D03*
X150400000Y-141500000D03*
X150400000Y-142600000D03*
X150400000Y-143700000D03*
X150400000Y-144650000D03*
D14*
X150400000Y-134450000D03*
D15*
X165050000Y-145600000D03*
D16*
X160900000Y-145600000D03*
D14*
X154700000Y-145600000D03*
D17*
X165500000Y-132100000D03*
D18*
X166275000Y-133025000D03*
M02*
